<svg width="261" height="218" viewBox="0 0 261 218" fill="none" xmlns="http://www.w3.org/2000/svg">
<path d="M252.341 123.307C252.341 126.967 249.38 129.928 245.72 129.928H241.179V0.766968H245.742C249.169 0.766968 251.984 3.37604 252.308 6.72154C252.37 7.3381 252.329 1.83431 252.341 123.307Z" fill="url(#paint0_linear_7_1085)"/>
<path d="M249.533 7.39742V123.308C249.533 126.968 246.573 129.927 242.913 129.927H120.968C117.309 129.927 114.342 126.968 114.342 123.308V7.39742C114.342 3.73695 117.308 0.772095 120.968 0.772095H242.913C246.573 0.772095 249.533 3.73758 249.533 7.39742Z" fill="white"/>
<path opacity="0.03" d="M238.745 108.897V129.927H146.617V108.897C146.617 106.408 148.635 104.391 151.123 104.391H234.24C236.728 104.391 238.746 106.408 238.746 108.897H238.745Z" fill="black"/>
<path opacity="0.03" d="M248.153 23.0543V94.631H177.618C175.003 94.631 172.885 92.5071 172.885 89.8916V27.7879C172.885 25.1724 175.003 23.0543 177.618 23.0543H248.153Z" fill="black"/>
<path d="M249.537 7.37187V14.1655H114.346V7.37187C114.346 3.7235 117.296 0.767578 120.945 0.767578H242.938C246.581 0.767578 249.536 3.7235 249.536 7.37187H249.537Z" fill="url(#paint1_linear_7_1085)"/>
<path d="M123.193 7.79204C123.193 8.95566 122.251 9.89804 121.087 9.89804C119.923 9.89804 118.984 8.95566 118.984 7.79204C118.984 6.62841 119.926 5.68604 121.087 5.68604C122.248 5.68604 123.193 6.62841 123.193 7.79204Z" fill="white"/>
<path d="M128.924 7.79204C128.924 8.95566 127.981 9.89804 126.818 9.89804C125.654 9.89804 124.714 8.95566 124.714 7.79204C124.714 6.62841 125.657 5.68604 126.818 5.68604C127.979 5.68604 128.924 6.62841 128.924 7.79204Z" fill="white"/>
<path d="M134.655 7.79204C134.655 8.95566 133.713 9.89804 132.549 9.89804C131.386 9.89804 130.446 8.95566 130.446 7.79204C130.446 6.62841 131.388 5.68604 132.549 5.68604C133.71 5.68604 134.655 6.62841 134.655 7.79204Z" fill="white"/>
<path d="M141.745 38.1184L141.744 38.1196L141.746 38.1207L141.745 38.1184Z" fill="url(#paint2_linear_7_1085)"/>
<path d="M141.748 90.3085L141.749 90.3079L141.748 90.3062L141.748 90.3085Z" fill="url(#paint3_linear_7_1085)"/>
<path d="M136.279 80.0147V48.4126H128.864L128.867 48.4106H128.862V80.0172H128.867L128.864 80.0147H136.279Z" fill="url(#paint4_linear_7_1085)"/>
<path d="M147.212 48.4125V80.0146H147.213H154.629V48.4125H147.212Z" fill="url(#paint5_linear_7_1085)"/>
<path d="M147.212 48.4106H154.627L141.746 38.121L147.211 48.4106H147.212Z" fill="url(#paint6_linear_7_1085)"/>
<path d="M136.282 48.4106L141.744 38.1197L141.743 38.1184L128.867 48.4106H136.279H136.282Z" fill="url(#paint7_linear_7_1085)"/>
<path d="M147.212 80.0146V48.4125H136.28H136.279V80.0146H136.281H147.212Z" fill="url(#paint8_linear_7_1085)"/>
<path d="M147.211 48.4105L141.746 38.1209L141.744 38.1196L136.282 48.4105H147.211Z" fill="url(#paint9_linear_7_1085)"/>
<path d="M147.212 80.0172L141.749 90.3081L141.75 90.3088L154.627 80.0172H147.212Z" fill="url(#paint10_linear_7_1085)"/>
<path d="M136.279 80.0172H128.867L141.748 90.3062L136.282 80.0172H136.279Z" fill="url(#paint11_linear_7_1085)"/>
<path d="M136.282 80.0172L141.748 90.3062L141.749 90.3081L147.212 80.0172H136.282Z" fill="url(#paint12_linear_7_1085)"/>
<path d="M255.598 21.0306H249.615V92.6041H255.598C258.214 92.6041 260.336 90.4828 260.336 87.8673V25.7623C260.336 23.1468 258.214 21.0306 255.598 21.0306Z" fill="url(#paint13_linear_7_1085)"/>
<path d="M257.916 25.7623V87.8673C257.916 90.4828 255.795 92.6041 253.178 92.6041H179.644C177.029 92.6041 174.907 90.4828 174.907 87.8673V25.7623C174.907 23.1468 177.028 21.0306 179.644 21.0306H253.178C255.794 21.0306 257.916 23.1468 257.916 25.7623Z" fill="url(#paint14_linear_7_1085)"/>
<path d="M220.215 31.2125H180.799V33.4014H220.215V31.2125Z" fill="white"/>
<path d="M192.699 36.3082H180.799V38.4971H192.699V36.3082Z" fill="white"/>
<path d="M233.206 36.3082H223.381V38.4971H233.206V36.3082Z" fill="white"/>
<path d="M252.024 36.3082H236.833V38.4971H252.024V36.3082Z" fill="white"/>
<path d="M215.975 36.3082H197.838V38.4971H215.975V36.3082Z" fill="white"/>
<path d="M200.257 41.4033H180.799V43.5922H200.257V41.4033Z" fill="white"/>
<path d="M217.643 41.4033H205.709V43.5922H217.643V41.4033Z" fill="white"/>
<path d="M202.623 46.4984H190.072V48.6879H202.623V46.4984Z" fill="white"/>
<path d="M213.116 46.4984H207.458V48.6879H213.116V46.4984Z" fill="white"/>
<path d="M228.342 46.4984H216.82V48.6879H228.342V46.4984Z" fill="white"/>
<path d="M239.247 46.4984H233.281V48.6879H239.247V46.4984Z" fill="white"/>
<path d="M252.024 46.4984H242.951V48.6879H252.024V46.4984Z" fill="white"/>
<path d="M198.92 51.5941H191.101V53.7836H198.92V51.5941Z" fill="white"/>
<path d="M217.437 51.5941H203.651V53.7836H217.437V51.5941Z" fill="white"/>
<path d="M212.191 56.6898H199.742V58.8793H212.191V56.6898Z" fill="white"/>
<path d="M200.969 67.781H190.058V69.9699H200.969V67.781Z" fill="white"/>
<path d="M211.709 67.781H205.953V69.9699H211.709V67.781Z" fill="white"/>
<path d="M237.911 67.781H230.179V69.9699H237.911V67.781Z" fill="white"/>
<path d="M250.197 67.781H240.833V69.9699H250.197V67.781Z" fill="white"/>
<path d="M226.657 67.781H216.433V69.9699H226.657V67.781Z" fill="white"/>
<path d="M217.293 72.876H205.953V75.0655H217.293V72.876Z" fill="white"/>
<path d="M240.403 72.876H229.063V75.0655H240.403V72.876Z" fill="white"/>
<path d="M200.969 72.876H190.058V75.0655H200.969V72.876Z" fill="white"/>
<path d="M213.169 77.9718H205.953V80.1613H213.169V77.9718Z" fill="white"/>
<path d="M251.227 77.9718H242.035V80.1613H251.227V77.9718Z" fill="white"/>
<path d="M239.888 77.9718H234.217V80.1613H239.888V77.9718Z" fill="white"/>
<path d="M228.461 77.9718H217.121V80.1613H228.461V77.9718Z" fill="white"/>
<path d="M200.969 77.9718H190.058V80.1613H200.969V77.9718Z" fill="white"/>
<path d="M200.969 83.0668H190.058V85.2563H200.969V83.0668Z" fill="white"/>
<path d="M228.118 83.0668H205.953V85.2563H228.118V83.0668Z" fill="white"/>
<path d="M243.754 83.0668H231.297V85.2563H243.754V83.0668Z" fill="white"/>
<path d="M121.901 25.972C121.901 27.4544 122.68 28.8661 121.175 28.8661H121.1V29.6453H121.175C122.67 29.6453 121.901 31.15 121.901 32.4902C121.901 33.6437 122.545 34.2538 123.762 34.2538H124.096V33.425H123.799C123.187 33.425 122.902 33.1081 122.902 32.4284C122.902 31.4586 123.556 29.7403 122.317 29.248C123.556 28.745 122.902 27.0853 122.902 26.0951C122.902 25.4052 123.17 25.1106 123.799 25.1106H124.096V24.2817H123.762C122.562 24.2817 121.901 24.8817 121.901 25.9714V25.972Z" fill="url(#paint15_linear_7_1085)"/>
<path d="M137.936 28.8661C136.432 28.8661 137.211 27.4538 137.211 25.972C137.211 24.8976 136.527 24.2823 135.336 24.2823H135.014V25.1112H135.31C135.94 25.1221 136.209 25.4166 136.209 26.0957C136.209 27.0891 135.538 28.7335 136.785 29.2486C135.532 29.7549 136.209 31.4656 136.209 32.429C136.209 33.6545 135.165 33.3854 135.014 33.4256V34.2545C135.371 34.2047 137.211 34.4738 137.211 32.4908C137.211 31.1551 136.441 29.6459 137.936 29.6459H138.012V28.8667H137.936V28.8661Z" fill="url(#paint16_linear_7_1085)"/>
<path d="M133.76 26.3444H125.34V27.2906H133.76V26.3444Z" fill="url(#paint17_linear_7_1085)"/>
<path d="M133.76 28.4912H125.34V29.4374H133.76V28.4912Z" fill="url(#paint18_linear_7_1085)"/>
<path d="M128.289 30.6387H125.34V31.5849H128.289V30.6387Z" fill="url(#paint19_linear_7_1085)"/>
<path d="M132.253 30.6387H129.724V31.5849H132.253V30.6387Z" fill="url(#paint20_linear_7_1085)"/>
<path d="M154.25 92.9541L153.483 95.2769H152.497L155.006 87.8909H156.156L158.677 95.2769H157.658L156.869 92.9541H154.25ZM156.672 92.2087C155.947 89.9962 155.966 90.301 155.565 88.7351H155.543C155.157 90.2793 154.981 90.565 154.448 92.2087H156.672Z" fill="url(#paint21_linear_7_1085)"/>
<path d="M159.655 95.2769C159.735 93.9436 159.682 93.2525 159.698 87.4968H160.651V90.8283H160.673C161.013 90.2366 161.626 89.8528 162.481 89.8528C163.796 89.8528 164.728 90.9488 164.717 92.5594C164.717 94.455 163.523 95.3974 162.339 95.3974C161.572 95.3974 160.958 95.1015 160.564 94.4002H160.531L160.488 95.2769H159.655ZM160.652 93.1511C160.652 93.8952 161.26 94.6303 162.142 94.6303C163.15 94.6303 163.753 93.8085 163.753 92.5919C163.753 91.529 163.205 90.6198 162.175 90.6198C161.318 90.6198 160.651 91.3715 160.651 92.1979V93.1511H160.652Z" fill="url(#paint22_linear_7_1085)"/>
<path d="M169.716 95.0799C169.464 95.2112 168.905 95.3866 168.193 95.3866C166.593 95.3866 165.552 94.302 165.552 92.6799C165.552 91.0579 166.67 89.8636 168.402 89.8636C168.972 89.8636 169.475 90.0058 169.739 90.1372L169.519 90.8825C169.289 90.7512 168.928 90.6307 168.402 90.6307C167.185 90.6307 166.528 91.5291 166.528 92.636C166.528 93.8633 167.316 94.6195 168.368 94.6195C168.916 94.6195 169.278 94.4773 169.552 94.3568L169.716 95.0799Z" fill="url(#paint23_linear_7_1085)"/>
<path d="M235.81 101.933H152.694C150.205 101.933 148.188 103.95 148.188 106.439V135.272C148.188 137.761 150.205 139.778 152.694 139.778H235.81C238.298 139.778 240.315 137.761 240.315 135.272V106.439C240.315 103.95 238.298 101.933 235.81 101.933Z" fill="url(#paint24_linear_7_1085)"/>
<path d="M167.279 107.387H156.11C155.474 107.387 154.959 107.902 154.959 108.538V119.707C154.959 120.342 155.474 120.858 156.11 120.858H167.279C167.914 120.858 168.43 120.342 168.43 119.707V108.538C168.43 107.902 167.914 107.387 167.279 107.387Z" fill="url(#paint25_linear_7_1085)"/>
<path d="M233.545 109.921H174.141V111.557H233.545V109.921Z" fill="url(#paint26_linear_7_1085)"/>
<path d="M233.545 114.474H174.141V116.11H233.545V114.474Z" fill="url(#paint27_linear_7_1085)"/>
<path d="M233.545 119.028H174.141V120.664H233.545V119.028Z" fill="url(#paint28_linear_7_1085)"/>
<path d="M233.545 123.581H155.204V125.218H233.545V123.581Z" fill="url(#paint29_linear_7_1085)"/>
<path d="M233.545 128.135H155.204V129.771H233.545V128.135Z" fill="url(#paint30_linear_7_1085)"/>
<path d="M233.545 132.688H155.204V134.324H233.545V132.688Z" fill="url(#paint31_linear_7_1085)"/>
<path d="M229.164 54.8523C228.921 54.6088 228.589 54.5157 228.187 54.6681L222.438 57.2472C222.026 57.4416 221.747 57.8038 221.747 58.2686V58.384C221.747 58.8514 222.028 59.2123 222.444 59.408L228.188 61.9846L228.205 61.9916C228.531 62.1146 228.905 62.0604 229.166 61.7997C229.62 61.345 229.435 60.5971 228.851 60.3536L224.29 58.3266L228.844 56.3023C229.462 56.0459 229.603 55.2929 229.165 54.8523H229.164Z" fill="white"/>
<path d="M234.156 51.8951L230.341 63.0531C230.123 63.7131 230.584 64.2563 231.175 64.2563C231.599 64.2563 231.907 63.993 232.021 63.6493L235.837 52.4913C235.959 52.1202 235.874 51.7924 235.646 51.5533C235.221 51.1115 234.38 51.2211 234.156 51.8957L234.156 51.8951Z" fill="white"/>
<path d="M243.72 57.2446L237.972 54.6662C237.424 54.4315 236.745 54.8084 236.745 55.4766C236.745 55.8457 236.995 56.1671 237.313 56.2991L241.874 58.326L237.319 60.3504C236.703 60.6093 236.562 61.3635 237 61.7997C237.275 62.0751 237.683 62.1102 237.977 61.9839L243.725 59.4055C244.137 59.2123 244.417 58.8482 244.417 58.384V58.2686C244.417 57.8032 244.14 57.4429 243.72 57.2446Z" fill="white"/>
<path d="M79.7946 209.178L71.1398 209.086L71.6773 200.85L80.0394 201.109L79.8736 209.109C79.8685 209.149 79.8348 209.179 79.7946 209.178Z" fill="#FFDAD9"/>
<path d="M70.9351 208.831L69.436 215.093C69.1785 216.414 70.1616 217.652 71.507 217.697C77.0312 217.882 87.8895 217.699 89.8948 217.681C90.0548 217.679 90.1817 217.553 90.1894 217.393C90.2786 215.478 89.0066 214.26 87.1321 213.318L79.9055 208.451C79.8921 208.443 79.8768 208.439 79.8608 208.44L70.9344 208.831L70.9351 208.831Z" fill="#373A50"/>
<path d="M45.1045 204.811L37.9321 199.966L42.9182 193.388L49.7539 198.211L45.2084 204.797C45.1823 204.827 45.1377 204.833 45.1045 204.811Z" fill="#FFDAD9"/>
<path d="M37.9015 199.64L33.2011 204.04C32.2587 205.001 32.397 206.576 33.495 207.354C38.0035 210.552 47.1665 216.381 48.8491 217.471C48.9836 217.558 49.159 217.523 49.2533 217.393C50.3832 215.844 49.9923 214.127 48.9473 212.308L45.5973 204.266C45.5903 204.252 45.5801 204.239 45.5661 204.232L37.9015 199.64Z" fill="#373A50"/>
<path d="M28.0397 165.855H26.5873V210.906H28.0397V165.855Z" fill="#373A50"/>
<path d="M54.2426 159.698L40.1299 195.467L47.9042 201.76L66.1428 172.919C62.9981 165.18 59.6431 158.292 54.2432 159.697L54.2426 159.698Z" fill="#3A4AC3"/>
<path d="M13.2416 141.536L11.8254 152.933C11.6711 158.125 15.8379 162.418 21.0324 162.418H57.5141L69.9646 205.336C70.1106 207.182 81.4115 206.288 81.2654 204.442C81.2654 204.442 76.9591 154.673 71.6364 150.151C64.6055 144.178 36.3438 141.756 36.3438 141.756L13.2416 141.536V141.536Z" fill="#3A4AC3"/>
<path d="M42.4763 93.9698C42.2576 94.2165 42.0281 94.8662 41.7979 95.7002C41.0736 98.322 40.3722 102.824 40.3722 102.824L31.4891 96.6949C34.7492 92.0264 35.8644 88.5763 35.8644 88.5763C35.8644 88.5763 36.537 88.7484 37.4628 89.0532C39.9756 89.8987 44.3795 91.7496 42.4763 93.9691V93.9698Z" fill="#FFDAD9"/>
<path d="M42.4763 93.9698C42.2576 94.2165 42.0281 94.8662 41.7979 95.7002C41.7979 95.7002 37.6637 91.6355 36.9796 90.3125C36.7781 89.9274 37.0197 89.4906 37.4622 89.0532C39.975 89.8987 44.379 91.7496 42.4757 93.9691L42.4763 93.9698Z" fill="#FECDCB"/>
<path d="M52.1647 87.1334C52.1647 87.743 50.8021 87.8692 50.8021 87.8692C50.8021 87.8692 50.739 88.8639 50.5433 90.1117C50.3297 91.4513 49.8655 93.7167 48.8932 94.6482C48.042 95.4643 39.1245 95.0391 35.8644 88.577L32.7822 84.4026L35.0247 75.9505C35.0247 75.9505 41.1367 73.9153 46.7942 74.0186C52.4631 74.1161 50.7728 84.2585 50.7728 84.2585C50.7728 84.2585 52.1641 86.5927 52.1641 87.1334H52.1647Z" fill="#FFDAD9"/>
<path d="M35.8669 88.5763C35.8669 88.5763 36.0862 87.3541 35.5156 85.9156C34.8773 84.3076 34.3436 83.0859 34.9985 82.215C36.713 79.9349 39.2417 84.3363 39.2417 84.3363L40.5284 83.9888L40.7719 76.7896C40.7719 76.7896 50.9965 80.3372 53.5355 76.7896C56.0744 73.242 55.0657 68.3038 51.3447 69.0689C47.6236 69.834 42.2327 70.0425 42.2327 70.0425C42.2327 70.0425 32.2166 69.0338 31.382 73.2771C30.5474 77.5203 27.8331 83.7746 35.8675 88.577L35.8669 88.5763Z" fill="#111228"/>
<path d="M83.2178 117.616C83.2178 117.616 85.2033 121.239 84.0824 122.008C81.7501 123.609 75.9708 122.905 75.9708 122.905L78.1482 117.617C78.1482 117.617 79.1518 111.885 80.6298 112.483C82.1077 113.076 81.5907 115.578 81.5907 115.578C81.5907 115.578 88.64 112.018 89.4568 113.283C90.2786 114.548 83.2184 117.617 83.2184 117.617L83.2178 117.616Z" fill="#FFDAD9"/>
<path d="M31.9814 113.189C35.7688 118.701 45.5611 134.286 50.417 135.072C54.5564 135.742 80.8842 123.94 80.8842 123.94L78.0692 116.804L56.1089 122.309C56.1089 122.309 46.0501 106.825 42.9507 103.975C37.4444 98.9113 27.5858 106.793 31.9814 113.19V113.189Z" fill="#EAC250"/>
<path d="M43.1688 128.536L44.2476 142.646C44.2476 143.193 39.3891 144.251 33.3752 145.28C23.6122 146.941 11.821 146.165 11.821 145.28C11.821 145.28 20.8565 99.3175 31.9967 95.2394C36.1794 93.7078 41.9943 101.493 42.9507 104.679C45.3749 112.751 43.1688 128.537 43.1688 128.537V128.536Z" fill="#FADF68"/>
<path d="M46.8349 128.646C46.5072 133.568 45.6904 138.403 44.2475 142.646C44.2475 143.193 39.389 144.251 33.3751 145.28C35.1687 142.077 35.9338 138.294 35.3243 134.665C34.2895 128.513 29.8103 123.419 28.4248 117.33C27.2459 112.127 28.0454 108.441 31.3571 104.256C34.2436 105.222 35.9625 108.211 36.8424 111.126C37.7166 114.047 38.0443 117.164 39.4356 119.878C40.3614 121.683 41.7182 123.224 43.0922 124.719C44.317 126.047 45.5648 127.358 46.8349 128.646Z" fill="#EAC250"/>
<path d="M80.4302 137.57L77.4348 136.04L70.1731 136.138L70.4951 131.475C70.4951 131.475 73.4446 128.474 74.8015 129.687C76.0951 130.842 74.5655 131.688 74.4278 131.762C74.7785 131.687 81.4395 131.601 81.4179 133.297C81.3719 136.884 80.4302 137.57 80.4302 137.57Z" fill="#FFDAD9"/>
<path d="M29.3659 109.226C30.8669 115.743 34.2576 133.834 38.4868 136.347C42.0918 138.488 70.914 137.169 70.914 137.169V130.561L48.4653 126.562C48.4653 126.562 44.7889 108.468 42.952 104.679C39.6874 97.9478 27.6246 101.662 29.3666 109.226L29.3659 109.226Z" fill="#FADF68"/>
<path d="M52.2221 162.4H10.535C9.64901 162.4 8.93079 163.118 8.93079 164.004V165.721C8.93079 166.607 9.64901 167.325 10.535 167.325H52.2221C53.1081 167.325 53.8263 166.607 53.8263 165.721V164.004C53.8263 163.118 53.1081 162.4 52.2221 162.4Z" fill="#B2C7FF"/>
<path d="M12.2304 167.059L10.535 167.325C9.65955 167.462 8.83896 166.864 8.70187 165.988L0.791777 115.693C0.654692 114.817 1.25276 113.997 2.12819 113.86L3.82358 113.594C4.69901 113.457 5.5196 114.055 5.65668 114.93L13.5668 165.225C13.7039 166.1 13.1058 166.921 12.2304 167.058V167.059Z" fill="#B2C7FF"/>
<path d="M43.967 217.646C43.8108 216.743 43.0674 216.025 42.125 215.944C35.0566 215.335 28.0442 210.906 28.0442 210.906H26.5866C26.5866 210.906 19.5749 215.335 12.5058 215.944C11.5641 216.025 10.82 216.743 10.6644 217.646H43.967Z" fill="#373A50"/>
<path d="M94.2465 140.327H71.3368C71.3368 139.668 71.6014 139.068 72.0337 138.642C72.466 138.203 73.0602 137.938 73.7189 137.938H91.8644C93.1811 137.938 94.2465 139.009 94.2465 140.326V140.327Z" fill="#373A50"/>
<path d="M58.1645 217.646L69.5132 151.67C70.2617 147.319 74.0089 144.161 78.4237 144.161H124.064C128.479 144.161 132.226 147.319 132.974 151.67L144.323 217.646H146.288L134.883 151.342C133.974 146.059 129.424 142.224 124.063 142.224H78.423C73.0627 142.224 68.5121 146.059 67.6036 151.341L56.1981 217.645H58.1632L58.1645 217.646Z" fill="#373A50"/>
<path d="M134.597 141.545V142.946C134.597 143.617 134.055 144.16 133.377 144.16H69.109C68.4376 144.16 67.8893 143.617 67.8893 142.946V141.545C67.8893 140.874 68.4383 140.325 69.109 140.325H133.377C134.055 140.325 134.597 140.874 134.597 141.545Z" fill="#B2C7FF"/>
<path d="M119.858 140.327H108.357C107.822 140.327 107.388 139.893 107.388 139.358C107.388 138.823 107.822 138.39 108.357 138.39H119.916C121.556 138.39 123.159 137.7 124.164 136.403C125.21 135.053 125.519 133.334 125.01 131.712L115.92 102.68L117.768 102.101L126.859 131.133C127.544 133.323 127.15 135.639 125.777 137.481C124.401 139.327 122.161 140.327 119.858 140.327Z" fill="black"/>
<path d="M119.31 95.0767C119.992 93.3755 122.591 94.3211 122.12 96.0917L115.579 120.686C115.547 120.805 115.509 120.921 115.464 121.033C114.784 122.735 112.182 121.791 112.653 120.019L119.195 95.4235C119.227 95.3043 119.265 95.1889 119.31 95.0773V95.0767Z" fill="#111228"/>
<path d="M122.559 84.7864L110.869 128.742C110.185 131.314 107.551 132.847 104.979 132.163L116.672 88.2002C117.354 85.6364 119.995 84.1048 122.559 84.7864Z" fill="#373A50"/>
<path d="M49.8024 83.2741C49.7928 83.8798 49.5314 84.3663 49.2209 84.3612C48.9098 84.3561 48.6643 83.8619 48.6739 83.2562C48.6834 82.6505 48.9448 82.164 49.2553 82.1691C49.5665 82.1742 49.812 82.6683 49.8024 83.2741Z" fill="#111228"/>
<path d="M50.2194 81.7866C49.5085 81.842 49.3657 81.6278 48.7835 81.9217C48.6324 82.0002 48.4654 82.1047 48.2562 82.1691C48.3002 81.9568 48.3774 81.7744 48.51 81.6061C48.7956 81.2287 49.2891 81.1292 49.7571 81.3791C49.9414 81.476 50.097 81.6074 50.22 81.7866H50.2194Z" fill="#111228"/>
<path d="M50.5433 90.1117C50.4802 90.5083 50.4056 90.9278 50.3074 91.348H50.25C49.5601 91.348 49.0079 90.7958 48.9965 90.1117H50.5433Z" fill="white"/>
<path d="M105.515 62.2517L106.032 65.4607C106.092 65.8809 105.732 66.2539 105.311 66.1818L101.561 65.5806C99.4097 66.8188 96.9097 67.5278 94.2534 67.5278C86.1527 67.5278 79.5784 60.9656 79.5784 52.8649C79.5784 44.7641 86.1527 38.1898 94.2534 38.1898C102.354 38.1898 108.916 44.7641 108.916 52.8649C108.916 56.4342 107.63 59.7159 105.515 62.2517Z" fill="url(#paint32_linear_7_1085)"/>
<path d="M103.656 54.5896V51.7605H101.595C101.398 50.748 101.006 49.8031 100.447 48.9812L101.902 47.5269L99.8887 45.5203L98.4406 46.9683C97.6188 46.4098 96.6796 46.0113 95.6613 45.8143V43.765H92.8266V45.8143C91.8141 46.0107 90.8691 46.4098 90.0473 46.9683L88.5993 45.5203L86.5927 47.5269L88.0471 48.9812C87.4886 49.8031 87.0901 50.748 86.8994 51.7605H84.8374V54.5896H86.893C87.0894 55.6021 87.4822 56.5407 88.0401 57.3689L86.5921 58.8233L88.5986 60.8234L90.0466 59.3812C90.8691 59.9397 91.8141 60.3389 92.8259 60.5289V62.5788H95.6607V60.5289C96.6796 60.3389 97.6181 59.9397 98.4464 59.3812L99.8887 60.8234L101.902 58.8233L100.447 57.3689C101.006 56.5407 101.404 55.6021 101.595 54.5896H103.656ZM94.244 56.7734C92.2572 56.7734 90.6485 55.159 90.6485 53.1786C90.6485 51.1982 92.2572 49.571 94.244 49.571C96.2307 49.571 97.8451 51.1918 97.8451 53.1786C97.8451 55.1653 96.2365 56.7734 94.244 56.7734Z" fill="white"/>
<path d="M201.751 187.609C201.751 187.609 216.4 174.778 216.296 172.128C216.192 169.479 210.634 171.297 210.27 169.531C209.907 167.765 218.582 160.648 217.335 159.141C216.088 157.634 212.816 161.739 212.296 159.765C211.776 157.791 218.123 147.68 211.154 147.037C202.256 146.218 206.109 158.064 204.66 158.362C202.81 158.743 200.012 155.619 197.105 158.211C191.978 162.782 201.751 187.608 201.751 187.608V187.609Z" fill="#3DCFA4"/>
<path d="M202.241 185.591C202.456 183.285 202.766 180.993 203.116 178.709C203.461 176.423 203.862 174.146 204.294 171.875C204.426 171.243 205.205 167.276 205.766 165.094C206.141 163.533 206.893 160.749 207.503 159.265L207.867 158.475L207.625 159.307C207.309 160.486 206.679 163.873 206.418 165.237L205.132 172.037C204.685 174.301 204.248 176.567 203.769 178.826C203.296 181.087 202.804 183.345 202.241 185.591Z" fill="#30BB93"/>
<path d="M205.673 168.658C206.034 167.749 206.738 166.76 207.374 166.017C208.011 165.272 208.884 164.424 209.723 163.932C209.364 164.84 208.656 165.835 208.022 166.573C207.389 167.311 206.517 168.162 205.673 168.658Z" fill="#30BB93"/>
<path d="M203.479 180.247C204.031 179.424 204.939 178.594 205.723 177.995C206.51 177.392 207.554 176.734 208.486 176.421C207.938 177.24 207.029 178.073 206.241 178.673C205.459 179.27 204.419 179.929 203.479 180.247Z" fill="#30BB93"/>
<path d="M203.828 176.649C202.894 175.503 201.911 173.8 201.275 172.537C200.641 171.29 199.849 169.473 199.484 168.04C200.404 169.165 201.394 170.867 202.038 172.152C202.68 173.423 203.461 175.217 203.828 176.65V176.649Z" fill="#30BB93"/>
<path d="M201.245 187.843C201.245 187.843 202.133 174.428 200.789 173.186C199.445 171.943 197.618 175.544 196.579 174.859C195.539 174.175 196.3 166.465 194.956 166.338C193.612 166.212 194.018 169.813 192.801 169.102C191.584 168.392 189.745 160.358 186.029 163.448C181.286 167.39 188.95 171.293 188.388 172.146C187.671 173.235 184.78 173.076 184.626 175.76C184.355 180.494 201.245 187.843 201.245 187.843Z" fill="#3DCFA4"/>
<path d="M200.5 186.619C199.48 185.389 198.512 184.118 197.567 182.832C196.62 181.547 195.704 180.241 194.807 178.921C193.627 177.117 192.386 175.322 191.017 172.815C189.909 170.682 190.245 171.156 190.009 170.635C190.76 171.934 190.67 171.77 191.265 172.665C191.455 172.961 191.261 172.672 195.294 178.591C196.181 179.914 197.075 181.233 197.944 182.571C198.817 183.905 199.679 185.247 200.5 186.619Z" fill="#30BB93"/>
<path d="M193.909 176.677C193.642 176.057 193.503 175.23 193.45 174.558C193.397 173.883 193.41 173.042 193.58 172.393C193.848 173.012 193.988 173.843 194.039 174.512C194.09 175.181 194.08 176.023 193.909 176.677H193.909Z" fill="#30BB93"/>
<path d="M198.495 183.406C198.363 182.736 198.401 181.886 198.491 181.211C198.581 180.533 198.77 179.702 199.072 179.094C199.204 179.761 199.168 180.612 199.076 181.29C198.985 181.963 198.799 182.792 198.495 183.406Z" fill="#30BB93"/>
<path d="M196.909 181.479C195.894 181.375 194.583 181.024 193.655 180.718C192.737 180.419 191.464 179.918 190.586 179.396C191.584 179.497 192.898 179.845 193.84 180.158C194.774 180.464 196.031 180.959 196.909 181.479Z" fill="#30BB93"/>
<path d="M208.857 185.53H192.78V188.686H208.857V185.53Z" fill="url(#paint33_linear_7_1085)"/>
<path d="M205.257 198.303H196.38L194.407 188.686H207.229L205.257 198.303Z" fill="url(#paint34_linear_7_1085)"/>
<defs>
<linearGradient id="paint0_linear_7_1085" x1="241.178" y1="65.3472" x2="252.343" y2="65.3472" gradientUnits="userSpaceOnUse">
<stop stop-color="#D1DEFF"/>
<stop offset="1" stop-color="#B2C7FF"/>
</linearGradient>
<linearGradient id="paint1_linear_7_1085" x1="114.346" y1="7.46687" x2="249.537" y2="7.46687" gradientUnits="userSpaceOnUse">
<stop stop-color="#D1DEFF"/>
<stop offset="1" stop-color="#B2C7FF"/>
</linearGradient>
<linearGradient id="paint2_linear_7_1085" x1="136.741" y1="38.1196" x2="146.751" y2="38.1196" gradientUnits="userSpaceOnUse">
<stop stop-color="#EBF2FF"/>
<stop offset="1" stop-color="#E1E8FF"/>
</linearGradient>
<linearGradient id="paint3_linear_7_1085" x1="136.739" y1="90.3073" x2="146.755" y2="90.3073" gradientUnits="userSpaceOnUse">
<stop stop-color="#EBF2FF"/>
<stop offset="1" stop-color="#E1E8FF"/>
</linearGradient>
<linearGradient id="paint4_linear_7_1085" x1="131.706" y1="64.2532" x2="136.814" y2="64.0134" gradientUnits="userSpaceOnUse">
<stop stop-color="#D1DEFF"/>
<stop offset="1" stop-color="#B2C7FF"/>
</linearGradient>
<linearGradient id="paint5_linear_7_1085" x1="154.059" y1="63.7934" x2="144.274" y2="65.1036" gradientUnits="userSpaceOnUse">
<stop stop-color="#D1DEFF"/>
<stop offset="1" stop-color="#B2C7FF"/>
</linearGradient>
<linearGradient id="paint6_linear_7_1085" x1="128.865" y1="43.2658" x2="154.627" y2="43.2658" gradientUnits="userSpaceOnUse">
<stop stop-color="#EBF2FF"/>
<stop offset="1" stop-color="#E1E8FF"/>
</linearGradient>
<linearGradient id="paint7_linear_7_1085" x1="128.867" y1="43.2645" x2="154.622" y2="43.2645" gradientUnits="userSpaceOnUse">
<stop stop-color="#EBF2FF"/>
<stop offset="1" stop-color="#E1E8FF"/>
</linearGradient>
<linearGradient id="paint8_linear_7_1085" x1="136.279" y1="64.2135" x2="147.212" y2="64.2135" gradientUnits="userSpaceOnUse">
<stop stop-color="#EBF2FF"/>
<stop offset="1" stop-color="#E1E8FF"/>
</linearGradient>
<linearGradient id="paint9_linear_7_1085" x1="136.282" y1="43.2651" x2="147.211" y2="43.2651" gradientUnits="userSpaceOnUse">
<stop stop-color="#D1DEFF"/>
<stop offset="1" stop-color="#B2C7FF"/>
</linearGradient>
<linearGradient id="paint10_linear_7_1085" x1="128.871" y1="85.1627" x2="154.627" y2="85.1627" gradientUnits="userSpaceOnUse">
<stop stop-color="#EBF2FF"/>
<stop offset="1" stop-color="#E1E8FF"/>
</linearGradient>
<linearGradient id="paint11_linear_7_1085" x1="128.867" y1="85.1614" x2="154.629" y2="85.1614" gradientUnits="userSpaceOnUse">
<stop stop-color="#EBF2FF"/>
<stop offset="1" stop-color="#E1E8FF"/>
</linearGradient>
<linearGradient id="paint12_linear_7_1085" x1="136.282" y1="85.1627" x2="147.212" y2="85.1627" gradientUnits="userSpaceOnUse">
<stop stop-color="#D1DEFF"/>
<stop offset="1" stop-color="#B2C7FF"/>
</linearGradient>
<linearGradient id="paint13_linear_7_1085" x1="255.736" y1="56.8174" x2="258.245" y2="56.8174" gradientUnits="userSpaceOnUse">
<stop stop-color="#909EFF"/>
<stop offset="1" stop-color="#6977E3"/>
</linearGradient>
<linearGradient id="paint14_linear_7_1085" x1="230.873" y1="42.5982" x2="189.347" y2="83.4239" gradientUnits="userSpaceOnUse">
<stop stop-color="#909EFF"/>
<stop offset="1" stop-color="#6977E3"/>
</linearGradient>
<linearGradient id="paint15_linear_7_1085" x1="121.1" y1="29.2684" x2="124.097" y2="29.2684" gradientUnits="userSpaceOnUse">
<stop stop-color="#D1DEFF"/>
<stop offset="1" stop-color="#B2C7FF"/>
</linearGradient>
<linearGradient id="paint16_linear_7_1085" x1="135.015" y1="29.2684" x2="138.012" y2="29.2684" gradientUnits="userSpaceOnUse">
<stop stop-color="#D1DEFF"/>
<stop offset="1" stop-color="#B2C7FF"/>
</linearGradient>
<linearGradient id="paint17_linear_7_1085" x1="125.34" y1="26.8175" x2="133.76" y2="26.8175" gradientUnits="userSpaceOnUse">
<stop stop-color="#D1DEFF"/>
<stop offset="1" stop-color="#B2C7FF"/>
</linearGradient>
<linearGradient id="paint18_linear_7_1085" x1="125.34" y1="28.9643" x2="133.76" y2="28.9643" gradientUnits="userSpaceOnUse">
<stop stop-color="#D1DEFF"/>
<stop offset="1" stop-color="#B2C7FF"/>
</linearGradient>
<linearGradient id="paint19_linear_7_1085" x1="125.34" y1="31.1118" x2="133.76" y2="31.1118" gradientUnits="userSpaceOnUse">
<stop stop-color="#D1DEFF"/>
<stop offset="1" stop-color="#B2C7FF"/>
</linearGradient>
<linearGradient id="paint20_linear_7_1085" x1="126.977" y1="31.1118" x2="132.253" y2="31.1118" gradientUnits="userSpaceOnUse">
<stop stop-color="#D1DEFF"/>
<stop offset="1" stop-color="#B2C7FF"/>
</linearGradient>
<linearGradient id="paint21_linear_7_1085" x1="152.497" y1="91.5845" x2="158.677" y2="91.5845" gradientUnits="userSpaceOnUse">
<stop stop-color="#D1DEFF"/>
<stop offset="1" stop-color="#B2C7FF"/>
</linearGradient>
<linearGradient id="paint22_linear_7_1085" x1="159.655" y1="91.4474" x2="164.717" y2="91.4474" gradientUnits="userSpaceOnUse">
<stop stop-color="#D1DEFF"/>
<stop offset="1" stop-color="#B2C7FF"/>
</linearGradient>
<linearGradient id="paint23_linear_7_1085" x1="165.553" y1="92.6251" x2="169.739" y2="92.6251" gradientUnits="userSpaceOnUse">
<stop stop-color="#D1DEFF"/>
<stop offset="1" stop-color="#B2C7FF"/>
</linearGradient>
<linearGradient id="paint24_linear_7_1085" x1="194.252" y1="129.922" x2="194.252" y2="92.0762" gradientUnits="userSpaceOnUse">
<stop stop-color="#EBF2FF"/>
<stop offset="0.63" stop-color="#E7EEFF"/>
<stop offset="1" stop-color="#E1E8FF"/>
</linearGradient>
<linearGradient id="paint25_linear_7_1085" x1="161.695" y1="120.858" x2="161.695" y2="107.387" gradientUnits="userSpaceOnUse">
<stop stop-color="#D1DEFF"/>
<stop offset="1" stop-color="#B2C7FF"/>
</linearGradient>
<linearGradient id="paint26_linear_7_1085" x1="203.843" y1="111.063" x2="203.843" y2="112.667" gradientUnits="userSpaceOnUse">
<stop stop-color="#D1DEFF"/>
<stop offset="1" stop-color="#B2C7FF"/>
</linearGradient>
<linearGradient id="paint27_linear_7_1085" x1="203.843" y1="115.616" x2="203.843" y2="117.221" gradientUnits="userSpaceOnUse">
<stop stop-color="#D1DEFF"/>
<stop offset="1" stop-color="#B2C7FF"/>
</linearGradient>
<linearGradient id="paint28_linear_7_1085" x1="203.843" y1="120.17" x2="203.843" y2="121.775" gradientUnits="userSpaceOnUse">
<stop stop-color="#D1DEFF"/>
<stop offset="1" stop-color="#B2C7FF"/>
</linearGradient>
<linearGradient id="paint29_linear_7_1085" x1="194.374" y1="124.724" x2="194.374" y2="126.328" gradientUnits="userSpaceOnUse">
<stop stop-color="#D1DEFF"/>
<stop offset="1" stop-color="#B2C7FF"/>
</linearGradient>
<linearGradient id="paint30_linear_7_1085" x1="194.374" y1="129.277" x2="194.374" y2="130.881" gradientUnits="userSpaceOnUse">
<stop stop-color="#D1DEFF"/>
<stop offset="1" stop-color="#B2C7FF"/>
</linearGradient>
<linearGradient id="paint31_linear_7_1085" x1="194.374" y1="133.831" x2="194.374" y2="135.435" gradientUnits="userSpaceOnUse">
<stop stop-color="#D1DEFF"/>
<stop offset="1" stop-color="#B2C7FF"/>
</linearGradient>
<linearGradient id="paint32_linear_7_1085" x1="108.916" y1="52.8591" x2="79.5771" y2="52.8591" gradientUnits="userSpaceOnUse">
<stop stop-color="#D1DEFF"/>
<stop offset="1" stop-color="#B2C7FF"/>
</linearGradient>
<linearGradient id="paint33_linear_7_1085" x1="200.819" y1="186.683" x2="200.819" y2="187.679" gradientUnits="userSpaceOnUse">
<stop stop-color="#909EFF"/>
<stop offset="1" stop-color="#6977E3"/>
</linearGradient>
<linearGradient id="paint34_linear_7_1085" x1="200.819" y1="190.616" x2="200.819" y2="193.672" gradientUnits="userSpaceOnUse">
<stop stop-color="#909EFF"/>
<stop offset="1" stop-color="#6977E3"/>
</linearGradient>
</defs>
</svg>
