<svg width="56" height="56" viewBox="0 0 56 56" fill="none" xmlns="http://www.w3.org/2000/svg">
<path d="M0 0H56V56H0V0Z" fill="#FFDF00"/>
<path d="M37.6178 43.7502C38.7458 45.592 40.2134 46.9457 42.809 46.9457C44.9894 46.9457 46.3822 45.8559 46.3822 44.3501C46.3822 42.5457 44.9512 41.9066 42.5512 40.8568L41.2356 40.2923C37.4382 38.6746 34.9156 36.6478 34.9156 32.3634C34.9156 28.4167 37.9227 25.4123 42.6223 25.4123C45.968 25.4123 48.3734 26.5767 50.1067 29.6256L46.009 32.2568C45.1067 30.639 44.1334 30.0017 42.6223 30.0017C41.081 30.0017 40.104 30.9795 40.104 32.2568C40.104 33.8355 41.0818 34.4746 43.3395 35.4524L44.6551 36.0159C49.1262 37.9332 51.6506 39.8879 51.6506 44.2825C51.6506 49.0203 47.9288 51.6159 42.9306 51.6159C38.0435 51.6159 34.8862 49.287 33.3412 46.2346L37.6178 43.7502ZM19.0284 44.2062C19.8551 45.6729 20.6072 46.9129 22.4151 46.9129C24.144 46.9129 25.2347 46.2364 25.2347 43.6063V25.7129H30.497V43.6773C30.497 49.1261 27.3023 51.6062 22.6391 51.6062C18.4258 51.6062 15.9858 49.4257 14.7449 46.7995L19.0284 44.2062Z" fill="black"/>
</svg>
