<svg width="40" height="56" viewBox="0 0 40 56" fill="none" xmlns="http://www.w3.org/2000/svg">
<path d="M3.85632 0H6.37195V2.49375H8.6907V0H11.2063V7.54688H8.6907V5.03125H6.39382V7.54688H3.85632V0ZM14.5313 2.51562H12.311V0H19.2782V2.51562H17.0469V7.54688H14.5313V2.51562ZM20.3829 0H23.0188L24.6376 2.65781L26.2563 0H28.8923V7.54688H26.3766V3.80625L24.6157 6.51875L22.8548 3.80625V7.54688H20.3829V0ZM30.1391 0H32.6548V5.05312H36.2204V7.54688H30.1391V0Z" fill="black"/>
<path d="M3.7688 51.5156L0.159424 11.0031H39.8407L36.2313 51.4937L19.9672 56" fill="#FF4C1E"/>
<path d="M20 52.5547V14.3281H36.2203L33.125 48.8906L20 52.5547Z" fill="#FF651E"/>
<path d="M7.53125 19.2828H20L21.854 21.7656L20 24.2485H12.9781L13.4375 29.3344H20L21.854 31.9101L20 34.2891H8.8875L7.53125 19.2828ZM9.10625 36.7828H14.0938L14.4437 40.7531L20 42.2407L22.092 44.7191L20 47.425L9.80625 44.5813L9.10625 36.7828Z" fill="#EBEBEB"/>
<path d="M32.425 19.2828H19.9781V24.2485H31.9656L32.425 19.2828ZM31.5172 29.3344H19.9781V34.3H26.1031L25.5235 40.7531L19.9781 42.2407V47.4031L30.15 44.5813L31.5172 29.3344Z" fill="white"/>
</svg>
