<svg width="40" height="56" viewBox="0 0 40 56" fill="none" xmlns="http://www.w3.org/2000/svg">
<path d="M39.837 11.0053L36.2226 51.4958L19.9757 56L3.77354 51.5022L0.162964 11.0053H39.837Z" fill="#004CE8"/>
<path d="M33.1283 48.9175L36.217 14.3165H20V52.5572L33.1283 48.9175Z" fill="#0065F4"/>
<path d="M8.44006 29.3362L8.88522 34.303H19.9999L22.1363 31.8196L19.9999 29.3362H8.44006Z" fill="#EBEBEB"/>
<path d="M20 19.2834H19.9828H7.54565L7.99715 24.2502H20L22.1364 21.7667L20 19.2834Z" fill="#EBEBEB"/>
<path d="M19.9999 47.403L22.1364 44.7692L19.9999 42.2355L19.9782 42.2413L14.4466 40.7477L14.093 36.7864H11.4051H9.10718L9.80302 44.585L19.9771 47.4094L19.9999 47.403Z" fill="#EBEBEB"/>
<path d="M9.5 0H15.5156V2.51562H12.0156V5.03125H15.5156V7.54688H9.5V0Z" fill="black"/>
<path d="M16.7188 0H22.7344V2.1875H19.2344V2.625H22.7344V7.65625H16.7188V5.35938H20.2188V4.92188H16.7188V0Z" fill="black"/>
<path d="M23.9375 0H29.9531V2.1875H26.4531V2.625H29.9531V7.65625H23.9375V5.35938H27.4375V4.92188H23.9375V0Z" fill="black"/>
<path d="M26.0988 34.303L25.5223 40.7445L19.9828 42.2397V47.407L30.1649 44.585L30.2396 43.7459L31.4068 30.67L31.528 29.3363L32.4246 19.2834H19.9828V24.2502H26.9815L26.5295 29.3363H19.9828V34.303H26.0988Z" fill="white"/>
</svg>
