<svg width="144" height="89" viewBox="0 0 144 89" fill="none" xmlns="http://www.w3.org/2000/svg">
<path d="M70.9448 88.246C70.4591 88.246 70.0057 88.1166 69.5844 87.8898L65.2766 85.3311C64.6287 84.9746 64.9527 84.8451 65.1472 84.7804C66.0216 84.4889 66.1835 84.4239 67.0905 83.906C67.1877 83.841 67.3175 83.8735 67.4144 83.9382L70.7184 85.914C70.8478 85.9788 71.0098 85.9788 71.1068 85.914L84.0307 78.4318C84.1602 78.3671 84.2252 78.2373 84.2252 78.0756V63.1436C84.2252 62.9814 84.1602 62.8522 84.0307 62.7871L71.1068 55.3374C70.9773 55.2724 70.8153 55.2724 70.7184 55.3374L57.7944 62.7871C57.6649 62.8519 57.5999 63.0139 57.5999 63.1433V78.0753C57.5999 78.2051 57.6649 78.3668 57.7944 78.4318L61.3251 80.4723C63.2361 81.444 64.4345 80.3104 64.4345 79.1767V64.439C64.4345 64.2447 64.5965 64.0503 64.8232 64.0503H66.475C66.6695 64.0503 66.8637 64.2122 66.8637 64.439V79.1767C66.8637 81.7354 65.4709 83.2256 63.0416 83.2256C62.2967 83.2256 61.7138 83.2256 60.0617 82.4156L56.6608 80.4723C55.8186 79.9867 55.3004 79.0795 55.3004 78.1078V63.1759C55.3004 62.2042 55.8186 61.297 56.6608 60.8113L69.5844 53.3291C70.3944 52.8757 71.4958 52.8757 72.3054 53.3291L85.2291 60.8113C86.0713 61.297 86.5897 62.2042 86.5897 63.1759V78.1078C86.5897 79.0795 86.0713 79.9867 85.2291 80.4723L72.3054 87.9546C71.8842 88.1491 71.3983 88.246 70.9448 88.246ZM74.9289 77.9783C69.2607 77.9783 68.0946 75.3871 68.0946 73.1846C68.0946 72.9901 68.2566 72.7959 68.4833 72.7959H70.1677C70.3619 72.7959 70.5239 72.9254 70.5239 73.1199C70.7831 74.8364 71.528 75.6786 74.9614 75.6786C77.6821 75.6786 78.8485 75.0631 78.8485 73.6055C78.8485 72.7634 78.5243 72.1482 74.2812 71.727C70.7506 71.3705 68.5481 70.5934 68.5481 67.7754C68.5481 65.1516 70.7509 63.5968 74.4432 63.5968C78.589 63.5968 80.6298 65.0222 80.8891 68.1313C80.8891 68.2288 80.8566 68.3258 80.7918 68.4231C80.7268 68.4878 80.6298 68.5525 80.5326 68.5525H78.8483C78.6863 68.5525 78.5243 68.4231 78.4921 68.2611C78.1033 66.4798 77.0992 65.8966 74.4432 65.8966C71.4633 65.8966 71.1068 66.9332 71.1068 67.7104C71.1068 68.6498 71.528 68.9413 75.5443 69.4594C79.5284 69.9779 81.4073 70.7228 81.4073 73.5083C81.3748 76.3588 79.0428 77.9783 74.9289 77.9783Z" fill="#539E43"/>
<path d="M30.8453 29.846C30.8453 29.2631 30.5214 28.7121 30.0032 28.4206L16.2696 20.5174C16.0426 20.3877 15.7836 20.3229 15.5247 20.2904H15.3949C15.136 20.2904 14.8767 20.3877 14.65 20.5174L0.916384 28.4206C0.397913 28.7121 0.0742188 29.2628 0.0742188 29.846L0.106728 51.0941C0.106728 51.3855 0.268716 51.677 0.527671 51.8067C0.786907 51.9687 1.1106 51.9687 1.33761 51.8067L9.50003 47.1425C10.0182 46.851 10.3422 46.3003 10.3422 45.7174V35.7734C10.3422 35.1904 10.6659 34.6397 11.1844 34.3483L14.65 32.34C14.9092 32.178 15.2007 32.113 15.4922 32.113C15.7836 32.113 16.0751 32.178 16.3021 32.34L19.7677 34.3483C20.2862 34.6397 20.6099 35.1902 20.6099 35.7734V45.7174C20.6099 46.3003 20.9339 46.851 21.4521 47.1425L29.6145 51.8067C29.8737 51.9687 30.1974 51.9687 30.4566 51.8067C30.7159 51.677 30.8779 51.3855 30.8779 51.0941L30.8453 29.846ZM96.8574 0.597196C96.5984 0.467438 96.2745 0.467438 96.0475 0.597196C95.7885 0.759184 95.6265 1.01814 95.6265 1.3096V22.3637C95.6265 22.558 95.5296 22.7522 95.3351 22.8819C95.1408 22.9789 94.9463 22.9789 94.7521 22.8819L91.3187 20.9061C91.067 20.7628 90.7823 20.6875 90.4927 20.6875C90.203 20.6875 89.9183 20.7628 89.6666 20.9061L75.933 28.8418C75.4148 29.1333 75.0909 29.684 75.0909 30.2669V46.1058C75.0909 46.6887 75.4148 47.2397 75.933 47.5312L89.6666 55.4669C89.9183 55.6102 90.203 55.6856 90.4927 55.6856C90.7823 55.6856 91.067 55.6102 91.3187 55.4669L105.052 47.5312C105.571 47.2397 105.894 46.689 105.894 46.1058V6.62183C105.894 6.00639 105.571 5.45597 105.052 5.16423L96.8574 0.597196ZM95.5943 40.8911C95.5943 41.0531 95.5295 41.1826 95.3998 41.2473L90.7033 43.968C90.6377 44 90.5657 44.0167 90.4927 44.0167C90.4197 44.0167 90.3477 44 90.2821 43.968L85.5856 41.2473C85.4558 41.1826 85.3911 41.0206 85.3911 40.8911V35.4494C85.3911 35.2874 85.4558 35.1579 85.5856 35.0932L90.2821 32.3722C90.3477 32.3402 90.4197 32.3236 90.4927 32.3236C90.5657 32.3236 90.6377 32.3402 90.7033 32.3722L95.3998 35.0932C95.5295 35.1576 95.5943 35.3199 95.5943 35.4494V40.8911ZM142.561 35.3199C143.079 35.0285 143.37 34.4778 143.37 33.8945V30.0402C143.37 29.4573 143.046 28.9066 142.561 28.6151L128.924 20.7119C128.672 20.5687 128.388 20.4933 128.098 20.4933C127.809 20.4933 127.524 20.5687 127.272 20.7119L113.539 28.6473C113.02 28.9388 112.697 29.4895 112.697 30.0727V45.9116C112.697 46.4945 113.02 47.0452 113.539 47.3367L127.175 55.1104C127.694 55.4019 128.309 55.4019 128.795 55.1104L137.054 50.5114C137.313 50.3816 137.475 50.0902 137.475 49.7987C137.475 49.5073 137.313 49.2158 137.054 49.086L123.256 41.1503C122.997 40.9886 122.835 40.7294 122.835 40.4379V35.4822C122.835 35.1907 122.997 34.8993 123.256 34.7695L127.564 32.3077C127.69 32.2284 127.836 32.1863 127.985 32.1863C128.134 32.1863 128.28 32.2284 128.406 32.3077L132.714 34.7695C132.973 34.9315 133.135 35.1904 133.135 35.4822V39.369C133.135 39.6605 133.297 39.952 133.556 40.0814C133.815 40.2434 134.139 40.2434 134.398 40.0814L142.561 35.3199Z" fill="#333333"/>
<path d="M127.888 34.575C127.936 34.5434 127.992 34.5265 128.05 34.5265C128.107 34.5265 128.163 34.5434 128.211 34.575L130.835 36.0973C130.932 36.1618 130.997 36.259 130.997 36.3888V39.4335C130.997 39.563 130.932 39.6602 130.835 39.725L128.211 41.2473C128.163 41.2789 128.107 41.2958 128.05 41.2958C127.992 41.2958 127.936 41.2789 127.888 41.2473L125.264 39.725C125.167 39.6602 125.102 39.563 125.102 39.4335V36.3888C125.102 36.259 125.167 36.1618 125.264 36.0973L127.888 34.575Z" fill="#539E43"/>
<path d="M53.8103 20.7767C53.5586 20.6334 53.274 20.5581 52.9844 20.5581C52.6948 20.5581 52.4101 20.6334 52.1584 20.7767L38.5221 28.6471C38.0036 28.9386 37.7122 29.4893 37.7122 30.0722V45.8466C37.7122 46.4296 38.0361 46.9803 38.5221 47.2717L52.1584 55.1427C52.4101 55.2859 52.6948 55.3613 52.9844 55.3613C53.274 55.3613 53.5586 55.2859 53.8103 55.1427L67.4469 47.2717C67.9651 46.9803 68.2568 46.4296 68.2568 45.8466V30.0725C68.2568 29.4896 67.9326 28.9389 67.4469 28.6474L53.8103 20.7767Z" fill="url(#paint0_linear_9_4155)"/>
<mask id="mask0_9_4155" style="mask-type:luminance" maskUnits="userSpaceOnUse" x="37" y="20" width="32" height="36">
<path d="M53.8103 20.7767C53.5586 20.6334 53.274 20.5581 52.9844 20.5581C52.6948 20.5581 52.4101 20.6334 52.1584 20.7767L38.5221 28.6471C38.0036 28.9386 37.7122 29.4893 37.7122 30.0722V45.8466C37.7122 46.4296 38.0361 46.9803 38.5221 47.2717L52.1584 55.1427C52.4101 55.2859 52.6948 55.3613 52.9844 55.3613C53.274 55.3613 53.5586 55.2859 53.8103 55.1427L67.4469 47.2717C67.9651 46.9803 68.2568 46.4296 68.2568 45.8466V30.0725C68.2568 29.4896 67.9326 28.9389 67.4469 28.6474L53.8103 20.7767Z" fill="white"/>
</mask>
<g mask="url(#mask0_9_4155)">
<path d="M67.4791 28.6474L53.778 20.7767C53.6433 20.7088 53.5022 20.6545 53.3567 20.6147L38.0035 46.9161C38.1307 47.0714 38.2843 47.203 38.4573 47.3048L52.1584 55.1758C52.5471 55.4025 53.0005 55.4672 53.4215 55.3375L67.8355 28.9717C67.7383 28.8422 67.6085 28.7444 67.4791 28.6474Z" fill="url(#paint1_linear_9_4155)"/>
</g>
<mask id="mask1_9_4155" style="mask-type:luminance" maskUnits="userSpaceOnUse" x="37" y="20" width="32" height="36">
<path d="M53.8103 20.7767C53.5586 20.6334 53.274 20.5581 52.9844 20.5581C52.6948 20.5581 52.4101 20.6334 52.1584 20.7767L38.5221 28.6471C38.0036 28.9386 37.7122 29.4893 37.7122 30.0722V45.8466C37.7122 46.4296 38.0361 46.9803 38.5221 47.2717L52.1584 55.1427C52.4101 55.2859 52.6948 55.3613 52.9844 55.3613C53.274 55.3613 53.5586 55.2859 53.8103 55.1427L67.4469 47.2717C67.9651 46.9803 68.2568 46.4296 68.2568 45.8466V30.0725C68.2568 29.4896 67.9326 28.9389 67.4469 28.6474L53.8103 20.7767Z" fill="white"/>
</mask>
<g mask="url(#mask1_9_4155)">
<path fill-rule="evenodd" clip-rule="evenodd" d="M67.5116 47.272C67.9003 47.0453 68.1917 46.6566 68.3215 46.2356L53.2917 20.5822C52.903 20.5175 52.4818 20.5497 52.1259 20.7764L38.5217 28.6152L53.1945 55.3697C53.4079 55.3347 53.6151 55.2693 53.8099 55.1755L67.5113 47.2723L67.5116 47.272Z" fill="url(#paint2_linear_9_4155)"/>
<path fill-rule="evenodd" clip-rule="evenodd" d="M67.5116 47.2719L53.8427 55.1428C53.6498 55.2412 53.4418 55.3069 53.2273 55.3371L53.4865 55.823L68.6452 47.0454V46.851L68.2565 46.203C68.1918 46.6565 67.9003 47.0452 67.5116 47.2719Z" fill="url(#paint3_linear_9_4155)"/>
<path fill-rule="evenodd" clip-rule="evenodd" d="M67.5116 47.2719L53.8427 55.1428C53.6498 55.2412 53.4418 55.3069 53.2273 55.3371L53.4865 55.823L68.6452 47.0454V46.851L68.2565 46.203C68.1918 46.6565 67.9003 47.0452 67.5116 47.2719Z" fill="url(#paint4_linear_9_4155)"/>
</g>
<defs>
<linearGradient id="paint0_linear_9_4155" x1="2120.49" y1="629.161" x2="625.816" y2="2977.74" gradientUnits="userSpaceOnUse">
<stop stop-color="#41873F"/>
<stop offset="0.3288" stop-color="#418B3D"/>
<stop offset="0.6352" stop-color="#419637"/>
<stop offset="0.9319" stop-color="#3FA92D"/>
<stop offset="1" stop-color="#3FAE2A"/>
</linearGradient>
<linearGradient id="paint1_linear_9_4155" x1="1329.04" y1="1939.88" x2="5072.39" y2="-93.8912" gradientUnits="userSpaceOnUse">
<stop offset="0.1376" stop-color="#41873F"/>
<stop offset="0.4032" stop-color="#54A044"/>
<stop offset="0.7136" stop-color="#66B848"/>
<stop offset="0.9081" stop-color="#6CC04A"/>
</linearGradient>
<linearGradient id="paint2_linear_9_4155" x1="-92.2695" y1="1761.3" x2="3063.17" y2="1761.3" gradientUnits="userSpaceOnUse">
<stop offset="0.09192" stop-color="#6CC04A"/>
<stop offset="0.2864" stop-color="#66B848"/>
<stop offset="0.5968" stop-color="#54A044"/>
<stop offset="0.8624" stop-color="#41873F"/>
</linearGradient>
<linearGradient id="paint3_linear_9_4155" x1="-1548.1" y1="529.85" x2="1607.31" y2="529.85" gradientUnits="userSpaceOnUse">
<stop offset="0.09192" stop-color="#6CC04A"/>
<stop offset="0.2864" stop-color="#66B848"/>
<stop offset="0.5968" stop-color="#54A044"/>
<stop offset="0.8624" stop-color="#41873F"/>
</linearGradient>
<linearGradient id="paint4_linear_9_4155" x1="2067.01" y1="-1984.29" x2="1267.62" y2="2204.48" gradientUnits="userSpaceOnUse">
<stop stop-color="#41873F"/>
<stop offset="0.3288" stop-color="#418B3D"/>
<stop offset="0.6352" stop-color="#419637"/>
<stop offset="0.9319" stop-color="#3FA92D"/>
<stop offset="1" stop-color="#3FAE2A"/>
</linearGradient>
</defs>
</svg>
