<svg width="37" height="36" viewBox="0 0 37 36" fill="none" xmlns="http://www.w3.org/2000/svg">
<path d="M18.4251 0C8.24689 0 -0.0065918 8.25203 -0.0065918 18.4317C-0.0065918 26.5755 5.27465 33.4844 12.5982 35.9217C13.5193 36.0923 13.8576 35.5218 13.8576 35.035C13.8576 34.5955 13.8404 33.1434 13.8326 31.6033C8.7047 32.7183 7.62269 29.4286 7.62269 29.4286C6.78426 27.2981 5.5762 26.7318 5.5762 26.7318C3.90396 25.5877 5.70225 25.6112 5.70225 25.6112C7.55316 25.7413 8.52776 27.5106 8.52776 27.5106C10.1717 30.3285 12.8396 29.5138 13.8914 29.0429C14.0568 27.8515 14.5345 27.0385 15.0616 26.5782C10.9677 26.112 6.66399 24.5316 6.66399 17.4691C6.66399 15.4569 7.38403 13.8126 8.56318 12.5218C8.37179 12.0575 7.74094 10.1829 8.74171 7.64403C8.74171 7.64403 10.2895 7.14863 13.8118 9.53339C15.2819 9.12487 16.8587 8.92018 18.4251 8.91324C19.9916 8.92018 21.5695 9.12487 23.0426 9.53339C26.5607 7.14863 28.1063 7.64403 28.1063 7.64403C29.1095 10.1829 28.4784 12.0575 28.287 12.5218C29.4687 13.8126 30.1838 15.4568 30.1838 17.4691C30.1838 24.5484 25.872 26.1073 21.7677 26.5635C22.4288 27.1355 23.0179 28.2573 23.0179 29.9768C23.0179 32.4429 22.9965 34.4278 22.9965 35.035C22.9965 35.5254 23.3282 36.1002 24.2626 35.9192C31.5821 33.4792 36.8567 26.5727 36.8567 18.4317C36.8567 8.25203 28.6044 0 18.4251 0Z" fill="#161614"/>
<path d="M6.89675 26.2564C6.85627 26.3479 6.712 26.3754 6.58089 26.3126C6.44717 26.2525 6.372 26.1276 6.41537 26.0357C6.45512 25.9414 6.59939 25.9151 6.73282 25.9784C6.86682 26.0384 6.94315 26.1645 6.89675 26.2564ZM7.80341 27.0653C7.71552 27.1469 7.54364 27.109 7.42698 26.9802C7.30642 26.8517 7.28387 26.68 7.37306 26.5971C7.4637 26.5157 7.63037 26.5538 7.75122 26.6824C7.87178 26.8124 7.8952 26.9831 7.80326 27.0655M8.42544 28.1004C8.31239 28.1789 8.12765 28.1053 8.01359 27.9414C7.90069 27.7776 7.90069 27.581 8.01605 27.5022C8.13054 27.4234 8.31239 27.4942 8.42804 27.6569C8.54079 27.8235 8.54079 28.0201 8.42529 28.1005M9.47723 29.2992C9.37619 29.4105 9.16109 29.3807 9.00352 29.2286C8.84248 29.08 8.79753 28.8691 8.89886 28.7577C9.00106 28.6461 9.21746 28.6774 9.37619 28.8282C9.53621 28.9765 9.58493 29.189 9.47723 29.2992ZM10.8366 29.7039C10.7923 29.8482 10.585 29.9138 10.3762 29.8525C10.1678 29.7894 10.0313 29.6202 10.0734 29.4744C10.1168 29.3291 10.3249 29.2607 10.5352 29.3264C10.7434 29.3892 10.88 29.5571 10.8366 29.7039ZM12.384 29.8755C12.3892 30.0276 12.2121 30.1537 11.993 30.1564C11.7725 30.1612 11.5943 30.0382 11.592 29.8887C11.592 29.7352 11.765 29.6103 11.9853 29.6067C12.2044 29.6023 12.384 29.7245 12.384 29.8755ZM13.9039 29.8173C13.9302 29.9656 13.7778 30.118 13.5602 30.1584C13.3463 30.1975 13.1483 30.106 13.1209 29.9589C13.0943 29.8069 13.2496 29.6546 13.4631 29.6152C13.6811 29.5773 13.8761 29.6665 13.9039 29.8173Z" fill="#161614"/>
</svg>
