<svg width="95" height="85" viewBox="0 0 95 85" fill="none" xmlns="http://www.w3.org/2000/svg">
<path d="M94.7808 42.5097C94.7808 36.2309 86.9178 30.2805 74.8625 26.5905C77.6445 14.3034 76.4081 4.52781 70.96 1.39808C69.7043 0.663942 68.236 0.316194 66.6325 0.316194V4.62441C67.5212 4.62441 68.236 4.79829 68.8349 5.12672C71.4623 6.63363 72.6022 12.3715 71.7135 19.7515C71.501 21.5675 71.1532 23.4801 70.7282 25.4314C66.9416 24.504 62.8072 23.7892 58.4604 23.3256C55.8523 19.7515 53.1476 16.5058 50.4235 13.6659C56.7217 7.81211 62.6334 4.60509 66.6518 4.60509V0.296875C61.339 0.296875 54.384 4.08347 47.3518 10.6521C40.3195 4.12211 33.3645 0.374153 28.0517 0.374153V4.68237C32.0508 4.68237 37.9819 7.87007 44.28 13.6852C41.5753 16.5251 38.8706 19.7515 36.3011 23.3256C31.9349 23.7892 27.8006 24.504 24.014 25.4507C23.5696 23.5187 23.2412 21.6448 23.0094 19.8481C22.1014 12.4681 23.2219 6.73022 25.83 5.20399C26.4096 4.85625 27.163 4.70169 28.0517 4.70169V0.393472C26.4289 0.393472 24.9606 0.74122 23.6855 1.47536C18.2568 4.60509 17.0397 14.3614 19.841 26.6098C7.82434 30.3192 0 36.2502 0 42.5097C0 48.7885 7.86298 54.7388 19.9183 58.4288C17.1363 70.716 18.3727 80.4915 23.8208 83.6213C25.0765 84.3554 26.5448 84.7032 28.1676 84.7032C33.4805 84.7032 40.4354 80.9166 47.4677 74.348C54.4999 80.8779 61.4549 84.6259 66.7677 84.6259C68.3905 84.6259 69.8588 84.2781 71.1339 83.544C76.5626 80.4143 77.7798 70.658 74.9784 58.4095C86.9565 54.7195 94.7808 48.7692 94.7808 42.5097ZM69.627 29.6237C68.9122 32.1159 68.0235 34.6853 67.0189 37.2548C66.2268 35.7093 65.396 34.1637 64.488 32.6182C63.5993 31.0726 62.6527 29.5657 61.7061 28.0974C64.4494 28.5031 67.0961 29.0054 69.627 29.6237ZM60.7787 50.1988C59.2718 52.8069 57.7263 55.2798 56.1228 57.5788C53.2442 57.8299 50.3269 57.9652 47.3904 57.9652C44.4732 57.9652 41.556 57.8299 38.6967 57.5981C37.0932 55.2991 35.5283 52.8455 34.0214 50.2567C32.5531 47.7259 31.2201 45.1564 30.003 42.5676C31.2008 39.9788 32.5531 37.39 34.0021 34.8592C35.509 32.2511 37.0545 29.7782 38.658 27.4792C41.5366 27.2281 44.4539 27.0928 47.3904 27.0928C50.3076 27.0928 53.2248 27.2281 56.0841 27.4599C57.6876 29.7589 59.2525 32.2125 60.7594 34.8013C62.2277 37.3321 63.5607 39.9016 64.7778 42.4904C63.5607 45.0792 62.2277 47.6679 60.7787 50.1988ZM67.0189 47.6873C68.0621 50.2761 68.9508 52.8649 69.685 55.3764C67.1541 55.9946 64.488 56.5162 61.7254 56.9219C62.672 55.4343 63.6187 53.9081 64.5074 52.3432C65.396 50.7977 66.2268 49.2328 67.0189 47.6873ZM47.429 68.301C45.6323 66.4464 43.8356 64.3792 42.0583 62.1188C43.797 62.1961 45.5744 62.2541 47.3711 62.2541C49.1871 62.2541 50.9838 62.2154 52.7419 62.1188C51.0031 64.3792 49.2064 66.4464 47.429 68.301ZM33.0554 56.9219C30.3121 56.5162 27.6653 56.0139 25.1345 55.3957C25.8493 52.9035 26.738 50.334 27.7426 47.7646C28.5347 49.3101 29.3654 50.8557 30.2734 52.4012C31.1815 53.9467 32.1088 55.4537 33.0554 56.9219ZM47.3324 16.7183C49.1291 18.573 50.9258 20.6402 52.7032 22.9005C50.9645 22.8233 49.1871 22.7653 47.3904 22.7653C45.5744 22.7653 43.7777 22.8039 42.0196 22.9005C43.7584 20.6402 45.5551 18.573 47.3324 16.7183ZM33.0361 28.0974C32.0895 29.585 31.1428 31.1113 30.2541 32.6761C29.3654 34.2217 28.5347 35.7672 27.7426 37.3128C26.6994 34.724 25.8107 32.1352 25.0765 29.6237C27.6074 29.0248 30.2734 28.5031 33.0361 28.0974ZM15.5521 52.2853C8.71304 49.3681 4.2889 45.5428 4.2889 42.5097C4.2889 39.4765 8.71304 35.632 15.5521 32.7341C17.2136 32.0193 19.0296 31.3817 20.9036 30.7828C22.0048 34.5694 23.4537 38.5106 25.2504 42.5483C23.473 46.5667 22.0434 50.4886 20.9615 54.2559C19.0489 53.657 17.2329 53.0001 15.5521 52.2853ZM25.9459 79.8926C23.3185 78.3857 22.1786 72.6479 23.0673 65.2679C23.2798 63.4519 23.6276 61.5393 24.0526 59.588C27.8392 60.5153 31.9736 61.2301 36.3204 61.6938C38.9285 65.2679 41.6332 68.5135 44.3573 71.3535C38.0591 77.2073 32.1474 80.4143 28.129 80.4143C27.2596 80.395 26.5255 80.2211 25.9459 79.8926ZM71.7714 65.1713C72.6795 72.5513 71.5589 78.2891 68.9508 79.8154C68.3712 80.1631 67.6178 80.3177 66.7291 80.3177C62.73 80.3177 56.7989 77.13 50.5008 71.3149C53.2055 68.4749 55.9102 65.2486 58.4797 61.6745C62.8459 61.2108 66.9802 60.496 70.7668 59.5494C71.2112 61.5006 71.5589 63.3746 71.7714 65.1713ZM79.2094 52.2853C77.5479 53.0001 75.7319 53.6376 73.8579 54.2365C72.7567 50.4499 71.3078 46.5088 69.5111 42.471C71.2885 38.4526 72.7181 34.5308 73.8 30.7635C75.7126 31.3624 77.5286 32.0193 79.2287 32.7341C86.0678 35.6513 90.4919 39.4765 90.4919 42.5097C90.4726 45.5428 86.0484 49.3874 79.2094 52.2853Z" fill="#61DAFB"/>
<path d="M47.3711 51.3387C52.2472 51.3387 56.2 47.3858 56.2 42.5097C56.2 37.6336 52.2472 33.6808 47.3711 33.6808C42.495 33.6808 38.5421 37.6336 38.5421 42.5097C38.5421 47.3858 42.495 51.3387 47.3711 51.3387Z" fill="#61DAFB"/>
</svg>
