<svg width="108" height="109" viewBox="0 0 108 109" fill="none" xmlns="http://www.w3.org/2000/svg">
<path d="M54.4125 8.72705L56.4688 12.589C56.931 13.3017 57.4321 13.9324 58.0196 14.5199C59.7475 16.2263 61.3588 18.0492 62.8405 19.9759C66.3223 24.5463 68.6723 29.6264 70.3484 35.1212C71.3549 38.4734 71.8992 41.9206 71.9424 45.3981C72.1109 55.8045 68.5427 64.7379 61.3545 72.1637C60.1882 73.3387 58.9224 74.423 57.5747 75.3906C56.8619 75.3906 56.5249 74.8463 56.2312 74.3409C55.6955 73.4078 55.3413 72.384 55.1815 71.3213C54.9266 70.06 54.7624 68.8029 54.8445 67.5069V66.9194C54.7884 66.7855 54.162 9.02512 54.4125 8.72705Z" fill="#599636"/>
<path d="M54.4126 8.60182C54.3305 8.43334 54.2441 8.55862 54.1577 8.64501C54.2009 9.48738 53.9028 10.239 53.4449 10.9561C52.9395 11.6689 52.2699 12.2175 51.596 12.805C47.868 16.0319 44.9305 19.937 42.5806 24.3001C39.4487 30.1707 37.8374 36.4647 37.3838 43.0956C37.1765 45.4845 38.1398 53.9168 38.8957 56.3489C40.952 62.8113 44.6411 68.2241 49.4275 72.9197C50.6025 74.0515 51.8595 75.1012 53.1555 76.1121C53.5356 76.1121 53.5745 75.7751 53.6609 75.5246C53.8294 74.9889 53.9547 74.4446 54.0411 73.8917L54.8834 67.602L54.4126 8.60182Z" fill="#6CAC48"/>
<path d="M56.4687 77.9394C56.5508 76.9761 57.013 76.1812 57.5185 75.3821C57.013 75.1747 56.6372 74.7557 56.3435 74.2935C56.0886 73.8529 55.8813 73.3906 55.7171 72.9068C55.1296 71.1486 55.0043 69.2954 54.8359 67.4984V66.4098C54.6285 66.5783 54.581 68.0038 54.581 68.2155C54.46 70.1205 54.2052 72.0083 53.825 73.8788C53.6997 74.6347 53.6177 75.3907 53.1511 76.0603C53.1511 76.1424 53.1511 76.2288 53.1943 76.354C53.9503 78.5787 54.1576 80.8423 54.2829 83.1534V83.9958C54.2829 85.0023 54.2397 84.7907 55.0778 85.1276C55.4147 85.2529 55.7905 85.2961 56.1275 85.5466C56.3824 85.5466 56.4212 85.3393 56.4212 85.1665L56.296 83.7798V79.9179C56.2571 79.244 56.3824 78.5744 56.4687 77.9394Z" fill="#C2BFBF"/>
<path d="M20.7062 96.681V98.5469C20.7062 98.6219 20.7062 98.6968 20.7195 98.7674C20.7415 98.988 20.8783 99.1247 21.0767 99.1865C21.2621 99.235 21.4517 99.2703 21.6414 99.2967C21.7517 99.31 21.787 99.3585 21.8002 99.4776C21.8134 99.8966 21.7782 99.9452 21.3723 99.9187C20.4283 99.8702 19.48 99.8569 18.536 99.9187H18.4478C18.1522 99.932 18.1302 99.9055 18.1302 99.6099C18.1302 99.5614 18.1434 99.4997 18.1434 99.4511C18.1434 99.3629 18.2052 99.3144 18.289 99.3144C18.4875 99.2924 18.6683 99.2394 18.8536 99.2041C19.1094 99.1423 19.2594 98.9836 19.2815 98.7233C19.3168 98.441 19.3168 98.1455 19.3168 97.8632L19.33 94.5725C19.3388 94.3784 19.233 94.1975 19.0609 94.1049C18.8404 93.9814 18.6021 93.8844 18.3595 93.8094C18.2845 93.7874 18.214 93.7741 18.1522 93.7344C17.9714 93.6462 17.9669 93.4873 18.139 93.3903C18.2008 93.355 18.2757 93.3286 18.3463 93.3153C19.0908 93.2051 19.8223 93.0204 20.5298 92.7639C20.6754 92.7154 20.715 92.7287 20.7283 92.8742C20.7415 92.9624 20.7283 93.0727 20.715 93.1565C20.693 93.3153 20.693 93.4741 20.693 93.6241C20.693 93.6859 20.7062 93.7477 20.768 93.7829C20.8298 93.8182 20.8915 93.7829 20.9488 93.7476C21.2047 93.5491 21.465 93.3682 21.7473 93.2095C22.1531 92.9889 22.581 92.7904 23.0485 92.7287C23.6131 92.6537 24.1028 92.8036 24.5351 93.1698C24.7115 93.3286 24.8703 93.5094 25.0027 93.7079C25.1262 93.8888 25.1394 93.8932 25.2982 93.7697C25.7657 93.4256 26.2554 93.1213 26.7847 92.8963C27.3361 92.6625 27.9007 92.6272 28.4653 92.8213C29.0432 93.0286 29.4358 93.4344 29.6696 93.9858C29.8681 94.4269 29.9519 94.8857 29.9519 95.3621V98.6527C29.9519 98.8733 30.0401 99.01 30.2607 99.1203C30.4944 99.2085 30.7503 99.257 30.9973 99.3056C31.1561 99.3409 31.1561 99.3409 31.1561 99.5041C31.134 99.9099 31.0943 99.932 30.7018 99.9099C29.7175 99.8526 28.7306 99.8526 27.7463 99.9099C27.5478 99.9231 27.5478 99.9231 27.539 99.7246V99.6628C27.5258 99.332 27.5258 99.332 27.8478 99.257L28.1654 99.1688C28.3859 99.1159 28.5447 98.9174 28.5447 98.688L28.58 97.7661L28.558 95.3621C28.5491 95.1459 28.505 94.9342 28.4212 94.7357C28.1124 93.9858 27.4376 93.7167 26.7891 93.7917C26.2995 93.8402 25.8672 94.0388 25.4614 94.3211C25.3732 94.3829 25.3158 94.4578 25.3246 94.5769C25.4349 95.3621 25.3599 96.1472 25.3732 96.9324V98.6395C25.3732 98.9483 25.4967 99.0938 25.7922 99.1688L26.3568 99.2924C26.445 99.3056 26.4936 99.3409 26.4936 99.438V99.5261C26.4803 99.8702 26.4583 99.8834 26.1142 99.8834C25.1306 99.8349 24.1513 99.8482 23.1808 99.8834C22.85 99.8967 22.8236 99.8614 22.8368 99.5262C22.85 99.3276 22.8721 99.3188 23.0573 99.2791L23.4632 99.2041C23.8205 99.1291 23.9528 98.9968 23.9793 98.613L24.0145 97.7882L23.9925 95.3224C23.9705 95.0136 23.9043 94.7225 23.7366 94.4402C23.4896 93.9858 23.1059 93.752 22.581 93.73C22.0516 93.6947 21.5885 93.8888 21.1429 94.1358C20.8341 94.3167 20.7019 94.5284 20.7239 94.8857V96.6766L20.7062 96.681ZM43.8335 96.756V98.4851C43.8335 98.6086 43.8424 98.7321 43.8556 98.8512C43.8644 99.0188 43.9879 99.16 44.1511 99.1953C44.3629 99.2571 44.579 99.2923 44.7996 99.3056C44.9231 99.3188 44.9451 99.3674 44.9584 99.4644V99.5526C44.9451 99.9805 44.8966 100.033 44.4776 100.007C43.5424 99.9452 42.6116 99.9584 41.6809 100.007L41.3236 100.02C41.2487 100.02 41.2354 99.9849 41.2134 99.932C41.1781 99.7618 41.1781 99.5861 41.2134 99.4159C41.2266 99.3409 41.2751 99.3276 41.3501 99.3056C41.531 99.2836 41.6809 99.2438 41.853 99.2173C42.1617 99.1424 42.272 99.0188 42.2808 98.7013L42.3161 97.6691V94.6475C42.3161 94.4269 42.2279 94.2902 42.0338 94.1931C41.8133 94.0696 41.5795 93.9858 41.3325 93.8976C41.2575 93.8756 41.1869 93.8491 41.1251 93.8094C40.9663 93.6991 40.9443 93.5403 41.1031 93.4168C41.1737 93.3594 41.2575 93.3242 41.3501 93.3197C42.1353 93.1962 42.8984 93.0242 43.635 92.7287C43.7233 92.6934 43.7586 92.7154 43.7938 92.7904C43.8291 92.8654 43.8424 92.9492 43.8291 93.0374L43.7938 93.6153C43.7938 93.6903 43.7586 93.7961 43.8159 93.8226C43.8909 93.8711 43.9394 93.7608 44.0012 93.7344C44.3629 93.43 44.7634 93.1748 45.1921 92.9757C45.5715 92.7948 45.9641 92.6801 46.4052 92.7066C47.2301 92.7551 47.8167 93.1742 48.1961 93.8976C48.3946 94.277 48.4784 94.696 48.5137 95.1239L48.549 96.0237L48.5622 98.7366C48.5754 98.9439 48.6504 99.0806 48.8578 99.1556C49.0737 99.2261 49.295 99.2792 49.5194 99.3144C49.7179 99.3364 49.7267 99.3762 49.74 99.5614V99.6232C49.7179 100.042 49.6915 100.051 49.2724 100.029C48.357 99.9805 47.4397 99.9805 46.5243 100.029C46.4007 100.042 46.2773 100.029 46.167 100.042C46.092 100.042 46.0434 100.029 46.0302 99.954C46.0082 99.7952 45.9817 99.6364 46.017 99.4644C46.0302 99.3894 46.0655 99.3541 46.1538 99.3408L46.7184 99.2526C46.9169 99.2041 47.0272 99.0718 47.0492 98.8954L47.0713 98.5513L47.058 95.984C47.058 95.6885 47.0448 95.393 46.9831 95.1018C46.8375 94.4711 46.3567 94.0255 45.7083 93.9593C45.1436 93.8976 44.6319 94.0476 44.16 94.3519C43.9262 94.4975 43.8291 94.7093 43.8291 94.9651V96.8177C43.8291 96.7824 43.8291 96.7824 43.8424 96.7824L43.8335 96.756Z" fill="#47474A"/>
<path d="M79.7795 93.2845C79.6427 92.389 79.3119 91.5907 78.7341 90.8893C78.2312 90.2718 77.5827 89.7909 76.8417 89.491C76.0698 89.1734 75.2449 89.0719 74.4112 89.0499C74.0671 89.0366 69.3782 89.1116 69.0341 89.0499C68.9458 89.0366 68.8885 89.0631 68.8356 89.1381C68.7738 89.2263 68.7121 89.3234 68.6768 89.4204C68.5312 89.7512 68.5312 89.7292 68.8841 89.7777C69.1796 89.8262 69.462 89.8527 69.7443 89.9365C70.0001 90.0247 70.1854 90.1703 70.2471 90.4526C70.2692 90.5894 70.2957 94.9078 70.2957 96.9193L70.2472 98.3573C70.2339 98.4675 70.2251 98.5778 70.1854 98.6749C70.1369 98.8204 70.0486 98.9439 69.9031 99.0057C69.7399 99.0807 69.5679 99.1292 69.387 99.1424C69.0561 99.1777 69.0076 99.191 68.8973 99.5615L68.862 99.6982C68.84 99.857 68.8488 99.8835 69.0076 99.8835L72.6776 99.9188L74.1157 99.8967L75.1081 99.7732C76.2374 99.5659 77.2431 99.0983 78.1033 98.3484C78.5929 97.9161 78.9943 97.3912 79.281 96.8002C79.6251 96.112 79.7706 95.3621 79.8103 94.6034C79.8765 94.1667 79.8545 93.7256 79.7795 93.2845ZM78.0018 95.0269C77.9533 95.8121 77.7944 96.5752 77.3887 97.2589C76.8726 98.1543 76.1359 98.7807 75.117 99.0013C74.6758 99.0895 74.2347 99.138 73.7716 99.0763C73.4408 99.041 73.1232 99.0013 72.8144 98.891C72.263 98.6925 72.0645 98.3528 72.0557 97.8147L72.0424 90.4129C72.0424 89.9718 72.2409 89.8747 72.5585 89.8615C73.0393 89.8262 73.529 89.8395 74.0054 89.8835C74.517 89.9321 75.0155 90.0556 75.4919 90.2409C75.8448 90.3865 76.1712 90.5894 76.4623 90.8408C77.124 91.4054 77.5651 92.1156 77.8077 92.9493C78.0062 93.6242 78.0415 94.3123 78.0062 95.0004L78.0018 95.0269ZM89.9823 96.2311C89.9823 96.1561 89.9823 96.0944 89.9691 96.0238C89.8588 95.3489 89.5015 94.8328 88.9501 94.4402C88.5928 94.1844 88.1914 94.0123 87.7723 93.8888C87.6974 93.8668 87.6356 93.8403 87.565 93.8271C87.5783 93.7653 87.6135 93.7521 87.6532 93.7389C87.9003 93.6153 88.134 93.483 88.3414 93.2978C88.7207 92.9802 88.9722 92.5876 89.1001 92.1068C89.1751 91.8509 89.1751 91.5907 89.1486 91.3216C89.1089 90.682 88.7781 90.0953 88.2531 89.7248C87.6885 89.3057 87.0269 89.1337 86.3388 89.1249C85.011 89.1028 83.6745 89.1249 82.3511 89.1249C81.9718 89.1249 81.5924 89.1469 81.1955 89.0896C81.1205 89.0763 81.0146 89.0543 80.9617 89.1381C80.8734 89.2969 80.7631 89.4557 80.7279 89.6409C80.7146 89.7292 80.7411 89.7777 80.8381 89.7865L81.6851 89.9101C82.0159 89.9586 82.2497 90.1438 82.2761 90.4394C82.2982 90.6423 82.3114 90.8496 82.3114 91.0525L82.2894 93.3463L82.2761 97.8853C82.2761 98.1543 82.2408 98.4146 82.1879 98.6837C82.1615 98.8601 82.0379 99.0013 81.8703 99.0498C81.6233 99.1248 81.3895 99.1954 81.1337 99.1954C80.9925 99.1821 80.8602 99.2704 80.8161 99.4027C80.7676 99.513 80.7279 99.6365 80.7058 99.7467C80.6838 99.8923 80.719 99.9452 80.8646 99.9276C80.9749 99.9144 85.0242 100.016 85.7874 99.9408C86.2417 99.8923 86.6872 99.8306 87.1372 99.6938C87.9091 99.4468 88.6237 99.0939 89.1883 98.4896C89.6559 97.9999 89.925 97.4089 89.947 96.7208C89.9823 96.562 89.9823 96.4032 89.9823 96.2311ZM84.0274 91.1981L84.0626 90.2144C84.0626 90.0291 84.1376 89.9453 84.3185 89.9056C84.614 89.8438 84.9096 89.8703 85.2007 89.8836C85.4962 89.9056 85.7785 89.9454 86.0741 90.0292C86.6123 90.1879 87.0313 90.4967 87.2783 91.0128C87.3886 91.2466 87.4503 91.5024 87.4503 91.7627C87.4636 92.1067 87.4371 92.4376 87.3048 92.7684C87.0974 93.2228 86.7666 93.5183 86.2858 93.6021C85.805 93.6904 84.4464 93.6507 84.2347 93.6507C84.0494 93.6507 84.0362 93.6286 84.0362 93.4433V92.2876C84.0053 91.9303 84.0053 91.5686 84.023 91.2069L84.0274 91.1981ZM88.015 97.8014C87.8076 98.3528 87.4239 98.7366 86.8857 98.9439C86.5902 99.0542 86.2946 99.1248 85.9859 99.1027C85.6065 99.0895 85.2271 99.1027 84.8434 99.0278C84.3273 98.9175 84.0935 98.4278 84.0582 98.0705C83.9964 97.4441 84.0362 96.8046 84.023 96.3414V94.7225C84.023 94.524 84.045 94.4667 84.2567 94.4667L85.4124 94.4799L86.1976 94.5681C86.749 94.6917 87.2518 94.899 87.6444 95.3268C87.962 95.6709 88.134 96.0856 88.1737 96.5399C88.209 96.9678 88.187 97.3868 88.0282 97.7926L88.015 97.8014Z" fill="#C2BFBF"/>
<path d="M56.8286 94.1049L57.1462 94.1534C57.4902 94.1666 57.896 94.0431 58.0195 93.5623C58.0857 93.3332 58.0857 93.0901 58.0195 92.861C57.9446 92.861 57.9093 92.9227 57.874 92.9492C57.6887 93.0948 57.4814 93.183 57.2609 93.205C56.8197 93.2536 56.3786 93.227 55.9463 93.0683L55.3464 92.8609C54.9274 92.7242 54.4863 92.6669 54.0452 92.6889C53.4188 92.7374 52.8321 92.9448 52.2763 93.2403C51.6853 93.5579 51.2706 94.0387 51.0721 94.6871C50.9618 95.0665 50.9485 95.4591 50.9971 95.8517C51.1206 96.7471 51.5882 97.3735 52.4219 97.7043C52.4704 97.7175 52.5101 97.7396 52.5586 97.7528C52.6689 97.8146 52.6821 97.8764 52.5807 97.9602L52.2719 98.1675L51.5353 98.6218C51.35 98.7321 51.3279 98.8203 51.3897 99.0144C51.4647 99.2438 51.597 99.4467 51.7823 99.6055C51.9499 99.751 52.1396 99.8657 52.3469 99.9495C52.4836 100.011 52.4836 100.038 52.3601 100.148L51.6588 100.651C51.425 100.832 51.1912 101.008 50.9971 101.242C50.8606 101.387 50.7622 101.564 50.7106 101.756C50.659 101.949 50.6559 102.151 50.7015 102.345C50.7942 102.773 51.0147 103.156 51.3412 103.448C51.6597 103.744 52.0482 103.955 52.4704 104.061C53.1585 104.259 53.8687 104.268 54.5701 104.136C55.5758 103.95 56.458 103.505 57.1462 102.751C57.627 102.248 57.9049 101.657 57.9313 100.955C57.9887 100.113 57.4241 99.3585 56.6036 99.1644L55.9419 99.0409L53.9172 98.86C53.6967 98.8468 53.4762 98.8115 53.2908 98.7012C53.0571 98.5556 52.9953 98.2733 53.1453 98.0881C53.2556 97.9513 53.3924 97.8675 53.5643 97.8543L53.9569 97.819C54.7328 97.7401 55.4612 97.4085 56.0301 96.875C56.334 96.5931 56.5512 96.2305 56.6565 95.8296C56.8021 95.3003 56.8021 94.7533 56.6785 94.2152C56.6433 94.0784 56.6565 94.0696 56.8241 94.0916L56.8286 94.1049ZM53.8202 100.219C53.8952 100.232 53.9658 100.219 54.0408 100.219C54.5569 100.241 55.0862 100.28 55.589 100.417C55.7522 100.466 55.9154 100.527 56.0698 100.602C56.5595 100.871 56.7447 101.339 56.683 101.842C56.608 102.393 56.3036 102.786 55.8228 103.046C55.5052 103.227 55.1479 103.302 54.7774 103.342C54.6407 103.355 54.5216 103.342 54.3848 103.342C53.9569 103.355 53.5379 103.306 53.132 103.134C52.8497 103.024 52.616 102.865 52.4087 102.645C51.9808 102.217 51.7779 101.432 52.4219 100.792C52.8145 100.426 53.2556 100.17 53.8202 100.219ZM55.2229 96.3898C54.9671 97.0382 54.3981 97.2367 53.8378 97.1485C53.3217 97.0735 52.9424 96.7912 52.6954 96.3237C52.3778 95.6973 52.2896 95.0489 52.4748 94.3739C52.6116 93.8711 52.9159 93.4918 53.4585 93.4035C54.1466 93.28 54.8039 93.527 55.1523 94.2152C55.3332 94.546 55.4082 94.9518 55.4082 95.5297C55.3949 95.7634 55.3464 96.0811 55.2229 96.3898ZM39.7577 95.5517C39.6474 94.89 39.4004 94.2857 38.946 93.7829C38.2712 93.0329 37.411 92.7066 36.4405 92.7021C35.5936 92.6889 34.7952 92.9359 34.085 93.3771C33.3837 93.7961 32.872 94.4666 32.647 95.2562C32.4397 95.9664 32.4485 96.6942 32.6117 97.4176C33.0396 99.3585 34.5394 100.192 36.3303 100.069C36.8596 100.033 37.3625 99.8613 37.8389 99.6276C38.549 99.2967 39.0651 98.7674 39.4224 98.0704C39.7047 97.4926 39.8282 96.8794 39.815 96.1781L39.7577 95.5517ZM38.0153 98.2778C37.8345 98.8424 37.3404 99.2482 36.7493 99.31C36.2112 99.3849 35.7039 99.2482 35.254 98.9306C34.9276 98.688 34.6629 98.3748 34.482 98.0087C33.9792 96.9765 33.8909 95.9002 34.1512 94.793C34.235 94.4489 34.4114 94.1402 34.6673 93.8975C35.1216 93.4785 35.651 93.3815 36.2376 93.505C36.8022 93.6285 37.2301 93.9328 37.583 94.4004C37.9359 94.868 38.0991 95.4061 38.1962 95.9708C38.2447 96.2531 38.2447 96.5486 38.2579 96.7295C38.2579 97.3205 38.2094 97.8058 38.0241 98.2778H38.0153ZM66.577 95.6532C66.4888 94.943 66.2197 94.2901 65.7169 93.752C65.0552 93.0286 64.195 92.7198 63.2379 92.7066C62.413 92.6933 61.6543 92.9271 60.9529 93.333C60.1678 93.8005 59.6252 94.4622 59.4179 95.3577C59.1708 96.3369 59.2723 97.3691 59.7134 98.2778C60.1192 99.1379 60.8073 99.6893 61.7161 99.9363C62.7217 100.205 63.679 100.082 64.6141 99.6276C65.4258 99.235 65.9992 98.6218 66.3344 97.7882C66.5329 97.2985 66.6035 96.7692 66.6167 96.156C66.6255 96.0458 66.5991 95.8473 66.577 95.6532ZM64.8832 98.1189C64.6847 98.7806 64.27 99.2129 63.5687 99.3099C63.0526 99.3849 62.563 99.2614 62.1218 98.9659C61.7425 98.7101 61.4734 98.366 61.2749 97.9601C61.0544 97.5323 60.9308 97.0779 60.8823 96.6104C60.8073 96.0325 60.8073 95.4679 60.9441 94.89C60.9705 94.7753 61.0059 94.6651 61.0544 94.5592C61.3984 93.6991 62.1571 93.3065 63.057 93.505C63.6569 93.6417 64.1112 93.9725 64.4553 94.4754C64.7861 94.965 64.9449 95.5076 65.0199 96.0899C65.0552 96.3237 65.0685 96.5707 65.0552 96.778C65.0552 97.2588 65.0199 97.6999 64.8744 98.1278L64.8832 98.1189Z" fill="#47474A"/>
</svg>
