<svg width="208" height="188" viewBox="0 0 208 188" fill="none" xmlns="http://www.w3.org/2000/svg">
<path d="M101.208 28.8768H100.806V23.649C100.806 18.9014 104.668 15.0388 109.416 15.0388H114.836V15.4415H109.416C104.89 15.4415 101.208 19.1233 101.208 23.649L101.208 28.8768Z" fill="#B7BCFF"/>
<path d="M114.74 100.43H109.512C104.764 100.43 100.902 96.5681 100.902 91.8205V86.4009H101.304V91.8205C101.304 96.3459 104.986 100.028 109.512 100.028H114.74V100.43Z" fill="#B7BCFF"/>
<path d="M207.2 28.8768H206.797V23.649C206.797 19.1234 203.116 15.4416 198.59 15.4416H193.171V15.0389H198.59C203.338 15.0389 207.2 18.9014 207.2 23.6491L207.2 28.8768Z" fill="#B7BCFF"/>
<path d="M198.494 100.43H193.266V100.028H198.494C203.02 100.028 206.702 96.3459 206.702 91.8205V86.4009H207.104V91.8205C207.105 96.5681 203.242 100.43 198.494 100.43Z" fill="#B7BCFF"/>
<path d="M202.41 23.6488V91.8206C202.41 94.0946 200.567 95.938 198.293 95.938H109.713C107.439 95.938 105.596 94.0946 105.596 91.8206V23.6488C105.596 21.3748 107.439 19.5314 109.713 19.5314H198.293C200.567 19.5313 202.41 21.3748 202.41 23.6488Z" fill="url(#paint0_linear_7_2486)"/>
<path d="M202.411 23.6482V33.489H134.717C134.002 33.489 133.334 33.1354 132.931 32.5443L130.292 28.6693C129.889 28.0782 129.22 27.7245 128.505 27.7245H119.234C118.519 27.7245 117.85 28.0782 117.447 28.6693L114.808 32.5443C114.405 33.1353 113.736 33.489 113.021 33.489H105.596V23.6484C105.596 21.3731 107.441 19.5286 109.716 19.5286H198.291C200.567 19.5286 202.411 21.373 202.411 23.6482Z" fill="url(#paint1_linear_7_2486)"/>
<path d="M197.925 26.6234C197.925 28.3021 196.564 29.6629 194.886 29.6629H146.532C144.853 29.6629 143.492 28.3021 143.492 26.6234C143.492 24.9447 144.853 23.5838 146.532 23.5838H194.886C196.564 23.5838 197.925 24.9447 197.925 26.6234Z" fill="url(#paint2_linear_7_2486)"/>
<path d="M194.886 23.5838H191.913V29.6629H194.886C196.565 29.6629 197.925 28.302 197.925 26.6234C197.925 24.9447 196.565 23.5838 194.886 23.5838Z" fill="#3D79F3"/>
<path d="M194.44 27.4567C194.44 27.4567 194.44 27.4567 194.439 27.4567C194.153 27.4567 193.884 27.3446 193.681 27.1414C193.479 26.9397 193.368 26.6707 193.367 26.3843C193.366 26.0971 193.478 25.8271 193.681 25.6243C193.882 25.4228 194.152 25.3118 194.44 25.3118C194.727 25.3118 194.997 25.4228 195.198 25.6243C195.401 25.8271 195.513 26.0971 195.512 26.3843C195.512 26.6707 195.4 26.9397 195.198 27.1416C194.995 27.3448 194.726 27.4567 194.44 27.4567ZM194.44 25.5132C194.206 25.5132 193.987 25.6032 193.823 25.7667C193.659 25.9315 193.568 26.1505 193.569 26.384C193.569 26.6166 193.659 26.8351 193.823 26.9991C193.989 27.1642 194.207 27.2553 194.44 27.2553C194.672 27.2553 194.89 27.1644 195.056 26.9993C195.22 26.8353 195.31 26.6168 195.31 26.384C195.311 26.1505 195.22 25.9315 195.056 25.7667C194.892 25.6033 194.673 25.5132 194.44 25.5132Z" fill="white"/>
<path d="M195.891 27.9351C195.865 27.9351 195.839 27.9253 195.82 27.9056L195.056 27.1416C195.016 27.1023 195.016 27.0386 195.056 26.9993C195.095 26.96 195.159 26.96 195.198 26.9993L195.962 27.7632C196.001 27.8026 196.001 27.8663 195.962 27.9056C195.942 27.9253 195.917 27.9351 195.891 27.9351Z" fill="white"/>
<path d="M120.673 38.8132H111.11V40.7643H120.673V38.8132Z" fill="white"/>
<path d="M120.673 43.3572H111.11V45.3084H120.673V43.3572Z" fill="white"/>
<path d="M141.287 38.8132H126.04V40.7645H141.287V38.8132Z" fill="white"/>
<path d="M167.359 38.8132H145.671V40.7645H167.359V38.8132Z" fill="white"/>
<path d="M172.615 43.3572H159.053V45.3084H172.615V43.3572Z" fill="white"/>
<path d="M153.054 43.3572H126.04V45.3084H153.054V43.3572Z" fill="white"/>
<path d="M120.673 47.3263H111.11V49.2774H120.673V47.3263Z" fill="white"/>
<path d="M120.673 51.8704H111.11V53.8216H120.673V51.8704Z" fill="white"/>
<path d="M141.287 47.3264H126.04V49.2776H141.287V47.3264Z" fill="white"/>
<path d="M184.019 47.3264H145.671V49.2776H184.019V47.3264Z" fill="white"/>
<path d="M172.615 51.8703H159.053V53.8215H172.615V51.8703Z" fill="white"/>
<path d="M153.054 51.8703H126.04V53.8215H153.054V51.8703Z" fill="white"/>
<path d="M124.481 56.5244H114.918V58.4755H124.481V56.5244Z" fill="white"/>
<path d="M124.481 61.0684H114.918V63.0196H124.481V61.0684Z" fill="white"/>
<path d="M145.095 56.5244H129.849V58.4756H145.095V56.5244Z" fill="white"/>
<path d="M171.167 56.5244H149.479V58.4756H171.167V56.5244Z" fill="white"/>
<path d="M184.888 61.0683H162.861V63.0195H184.888V61.0683Z" fill="white"/>
<path d="M156.862 61.0683H129.849V63.0195H156.862V61.0683Z" fill="white"/>
<path d="M124.481 65.0375H114.918V66.9886H124.481V65.0375Z" fill="white"/>
<path d="M124.481 69.5815H114.918V71.5327H124.481V69.5815Z" fill="white"/>
<path d="M145.095 65.0375H129.849V66.9887H145.095V65.0375Z" fill="white"/>
<path d="M171.167 65.0375H149.479V66.9887H171.167V65.0375Z" fill="white"/>
<path d="M195.891 69.5814H162.861V71.5327H195.891V69.5814Z" fill="white"/>
<path d="M156.862 69.5814H129.849V71.5327H156.862V69.5814Z" fill="white"/>
<path d="M121.081 74.2908H111.518V76.2419H121.081V74.2908Z" fill="white"/>
<path d="M121.081 78.8348H111.518V80.786H121.081V78.8348Z" fill="white"/>
<path d="M141.696 74.2908H126.449V76.2421H141.696V74.2908Z" fill="white"/>
<path d="M167.767 74.2908H146.079V76.2421H167.767V74.2908Z" fill="white"/>
<path d="M173.023 78.8348H159.461V80.786H173.023V78.8348Z" fill="white"/>
<path d="M153.462 78.8348H126.449V80.786H153.462V78.8348Z" fill="white"/>
<path d="M121.081 82.8039H111.518V84.755H121.081V82.8039Z" fill="white"/>
<path d="M121.081 87.348H111.518V89.2992H121.081V87.348Z" fill="white"/>
<path d="M141.696 82.804H126.449V84.7552H141.696V82.804Z" fill="white"/>
<path d="M167.767 82.804H146.079V84.7552H167.767V82.804Z" fill="white"/>
<path d="M192.589 87.3479H159.461V89.2991H192.589V87.3479Z" fill="white"/>
<path d="M133.345 87.3479H126.449V89.299H133.345V87.3479Z" fill="white"/>
<path d="M153.462 87.3479H137.042V89.299H153.462V87.3479Z" fill="white"/>
<path d="M67.5034 80.8416C67.5791 81.3381 66.0476 81.2666 66.0476 81.2666C66.0476 81.2666 66.1612 81.7757 66.2285 82.4363C66.2411 82.5541 66.2495 82.6803 66.258 82.8066C66.3295 83.9552 66.1907 85.3395 65.1388 85.4152C63.1613 85.5624 61.5372 85.0702 61.5372 85.0702L61.6214 88.617H55.2134L54.4813 77.766L65.3408 75.0312L66.1234 78.7211C66.1233 78.7211 67.4319 80.362 67.5034 80.8416Z" fill="#FDCCC5"/>
<path d="M61.3254 78.9108C62.546 77.7266 62.9788 77.1516 62.0016 76.2333C62.0016 76.2333 69.2285 75.6003 67.682 71.0314C66.0902 66.3286 58.6449 70.819 58.6449 70.819C58.6449 70.819 52.2033 69.3543 51.0153 73.7552C50.0294 77.4075 51.71 82.3416 54.1882 83.4446C55.4761 84.0178 59.4598 83.5839 59.6862 82.1925C59.8358 81.2734 57.5132 80.8707 58.279 78.7439C59.0447 76.617 61.5207 80.2456 61.5207 80.2456L61.3254 78.9108Z" fill="url(#paint3_linear_7_2486)"/>
<path d="M60.9448 79.0462C61.7793 80.0302 61.9703 81.2925 61.3748 81.8654C60.7793 82.4383 59.6196 82.1079 58.785 81.1239C57.9505 80.1398 57.7575 78.8751 58.353 78.3022C58.9485 77.7293 60.1102 78.0621 60.9448 79.0462Z" fill="#FDCCC5"/>
<path d="M61.5354 85.0715C60.9557 84.957 60.2928 84.5754 59.6084 84.124C60.1282 84.9312 60.7691 85.547 61.5559 85.9332L61.5354 85.0715Z" fill="#EC8B73"/>
<path d="M76.0655 178.234C117.633 178.234 151.331 176.598 151.331 174.58C151.331 172.563 117.633 170.927 76.0655 170.927C34.4975 170.927 0.800049 172.563 0.800049 174.58C0.800049 176.598 34.4975 178.234 76.0655 178.234Z" fill="#E7ECFF"/>
<path d="M145.6 125.869L143.916 128.426C143.391 129.223 142.5 129.703 141.546 129.703H17.8309C16.8766 129.703 15.9862 129.223 15.4612 128.426L13.7767 125.869C12.5337 123.983 13.887 121.471 16.1464 121.471H143.231C145.49 121.471 146.843 123.983 145.6 125.869Z" fill="url(#paint4_linear_7_2486)"/>
<path d="M145.602 125.87L143.916 128.425C143.391 129.224 142.499 129.703 141.548 129.703H17.83C16.8783 129.703 15.9865 129.224 15.4619 128.425L13.7758 125.87C13.3074 125.154 13.21 124.352 13.3861 123.633C13.4611 123.933 13.5884 124.229 13.7758 124.514L15.4619 127.069C15.9865 127.867 16.8783 128.347 17.83 128.347H141.548C142.499 128.347 143.391 127.867 143.916 127.069L145.602 124.514C145.789 124.229 145.917 123.933 145.991 123.633C146.168 124.353 146.07 125.154 145.602 125.87Z" fill="#ADC8F7"/>
<path d="M129.698 129.701L141.454 174.202H139.03L123.595 129.701H129.698Z" fill="url(#paint5_linear_7_2486)"/>
<path d="M111.838 129.701L123.595 174.202H121.17L105.735 129.701H111.838Z" fill="url(#paint6_linear_7_2486)"/>
<path d="M25.7915 129.701L14.035 174.202H16.4597L31.8947 129.701H25.7915Z" fill="url(#paint7_linear_7_2486)"/>
<path d="M49.7563 129.703L34.3191 174.201H31.8956L43.6513 129.703H49.7563Z" fill="url(#paint8_linear_7_2486)"/>
<path d="M126.262 93.8386L119.796 119.593C119.449 120.967 118.05 122.081 116.669 122.081H114.47C115.851 122.081 117.25 120.967 117.594 119.593L124.06 93.8386C124.406 92.4649 123.565 91.3513 122.184 91.3513H124.386C125.767 91.3513 126.606 92.4649 126.262 93.8386Z" fill="#78A7FF"/>
<path d="M124.061 93.8385L117.595 119.594C117.25 120.967 115.851 122.081 114.47 122.081H78.3006C76.9195 122.081 76.0796 120.967 76.4244 119.594L82.8906 93.8385C83.2354 92.465 84.6345 91.3515 86.0155 91.3515H122.185C123.566 91.3515 124.406 92.465 124.061 93.8385Z" fill="url(#paint9_linear_7_2486)"/>
<path d="M78.6855 120.547C78.1569 120.547 77.8342 120.12 77.9662 119.594L84.4323 93.8385C84.5643 93.3128 85.1018 92.8849 85.6305 92.8849H121.8C122.329 92.8849 122.651 93.3128 122.519 93.8385L116.053 119.594C115.921 120.12 115.384 120.547 114.855 120.547H78.6855Z" fill="url(#paint10_linear_7_2486)"/>
<path d="M91.2028 95.0821L90.9582 95.9293H86.8362L87.0807 95.0821H91.2028Z" fill="white"/>
<path d="M90.6333 97.0552L90.3886 97.9024H86.2666L86.5112 97.0552H90.6333Z" fill="white"/>
<path d="M100.089 95.0822H93.5166L93.272 95.9294H99.8441L100.089 95.0822Z" fill="white"/>
<path d="M111.327 95.0822H101.978L101.734 95.9294H111.082L111.327 95.0822Z" fill="white"/>
<path d="M107.177 97.0552L106.932 97.9024H112.778L113.023 97.0552H107.177Z" fill="white"/>
<path d="M104.591 97.0552H92.947L92.7024 97.9024H104.347L104.591 97.0552Z" fill="white"/>
<path d="M90.1357 98.7787L89.8911 99.6259H85.769L86.0136 98.7787H90.1357Z" fill="white"/>
<path d="M89.5661 100.752L89.3215 101.599H85.1995L85.444 100.752H89.5661Z" fill="white"/>
<path d="M99.0215 98.7787H92.4494L92.2048 99.6259H98.7769L99.0215 98.7787Z" fill="white"/>
<path d="M117.441 98.7787H100.911L100.667 99.6259H117.197L117.441 98.7787Z" fill="white"/>
<path d="M106.11 100.752L105.865 101.599H111.711L111.956 100.752H106.11Z" fill="white"/>
<path d="M103.524 100.752H91.8799L91.6353 101.599H103.279L103.524 100.752Z" fill="white"/>
<path d="M90.6243 102.773L90.3797 103.62H86.2577L86.5022 102.773H90.6243Z" fill="white"/>
<path d="M90.0548 104.746L89.8102 105.593H85.6881L85.9327 104.746H90.0548Z" fill="white"/>
<path d="M99.5101 102.773H92.9381L92.6935 103.62H99.2656L99.5101 102.773Z" fill="white"/>
<path d="M110.748 102.773H101.4L101.155 103.62H110.504L110.748 102.773Z" fill="white"/>
<path d="M106.598 104.746L106.354 105.593H115.848L116.093 104.746H106.598Z" fill="white"/>
<path d="M104.013 104.746H92.3685L92.1239 105.593H103.768L104.013 104.746Z" fill="white"/>
<path d="M89.5572 106.469L89.3126 107.316H85.1906L85.4352 106.469H89.5572Z" fill="white"/>
<path d="M88.9876 108.442L88.743 109.289H84.621L84.8655 108.442H88.9876Z" fill="white"/>
<path d="M98.443 106.469H91.8709L91.6263 107.316H98.1985L98.443 106.469Z" fill="white"/>
<path d="M109.681 106.469H100.333L100.088 107.316H109.437L109.681 106.469Z" fill="white"/>
<path d="M105.531 108.442L105.287 109.289L116.431 109.289L116.676 108.442L105.531 108.442Z" fill="white"/>
<path d="M102.946 108.442H91.3014L91.0568 109.289H102.701L102.946 108.442Z" fill="white"/>
<path d="M86.9318 110.487L86.6872 111.334H82.5652L82.8097 110.487H86.9318Z" fill="white"/>
<path d="M86.3623 112.46L86.1177 113.307H81.9956L82.2402 112.46H86.3623Z" fill="white"/>
<path d="M95.8176 110.487H89.2456L89.001 111.334H95.573L95.8176 110.487Z" fill="white"/>
<path d="M107.056 110.487H97.7072L97.4626 111.334H106.811L107.056 110.487Z" fill="white"/>
<path d="M102.906 112.46L102.661 113.307H108.507L108.752 112.46H102.906Z" fill="white"/>
<path d="M100.32 112.46H88.676L88.4314 113.307H100.076L100.32 112.46Z" fill="white"/>
<path d="M85.8647 114.184L85.6201 115.031H81.498L81.7426 114.184H85.8647Z" fill="white"/>
<path d="M85.2951 116.157L85.0505 117.004H80.9285L81.173 116.157H85.2951Z" fill="white"/>
<path d="M94.7504 114.184H88.1783L87.9337 115.031H94.5058L94.7504 114.184Z" fill="white"/>
<path d="M105.989 114.184H96.6401L96.3955 115.031H105.744L105.989 114.184Z" fill="white"/>
<path d="M101.839 116.157L101.594 117.004H115.874L116.118 116.157H101.839Z" fill="white"/>
<path d="M90.5816 116.157H87.6088L87.3643 117.004H90.337L90.5816 116.157Z" fill="white"/>
<path d="M92.1749 116.157L91.9303 117.004H99.0083L99.2529 116.157H92.1749Z" fill="white"/>
<path d="M103.103 122.081V124.293H76.6036C75.3815 124.293 74.3909 123.303 74.3909 122.081H103.103Z" fill="url(#paint11_linear_7_2486)"/>
<path d="M118.686 122.081C118.686 123.303 117.696 124.293 116.474 124.293H98.1147C96.8926 124.293 95.902 123.303 95.902 122.081H118.686Z" fill="url(#paint12_linear_7_2486)"/>
<path d="M105.735 185.194C105.735 186.554 90.8792 187.66 72.556 187.66C54.2301 187.66 39.3744 186.554 39.3744 185.194C39.3744 183.834 54.2301 182.729 72.556 182.729C90.8792 182.729 105.735 183.834 105.735 185.194Z" fill="#E7ECFF"/>
<path d="M66.535 175.78H61.3643V181.128H66.535V175.78Z" fill="#FDCCC5"/>
<path d="M76.3719 183.18C76.3719 183.183 76.3719 183.183 76.3719 183.183V183.194C76.4036 183.751 76.0861 184.27 75.5673 184.496C74.5686 184.93 72.6454 185.498 70.1153 185.004C66.3323 184.26 62.8 184.69 61.399 184.828C60.905 184.877 60.6367 184.171 60.5591 183.208C60.5556 183.166 60.5521 183.123 60.5521 183.081C60.4568 181.528 60.852 179.404 61.6284 178.691C61.6778 178.645 61.7272 178.606 61.7801 178.571C61.8436 178.529 61.9107 178.497 61.9813 178.476C63.0258 178.158 65.0161 180.755 66.2547 179.379C66.3923 179.231 66.35 178.945 66.2865 178.606C66.2583 178.454 66.2265 178.289 66.2018 178.123C66.1793 177.961 66.2208 177.793 66.2911 177.636C66.4722 177.231 67.0076 177.135 67.3376 177.432C67.6002 177.668 67.9728 177.99 68.4814 178.405C68.5732 178.479 68.6614 178.567 68.7532 178.656C68.8167 178.712 68.8802 178.772 68.9472 178.832C69.1802 179.054 69.4166 179.252 69.6495 179.428C69.7483 179.506 69.8471 179.577 69.9424 179.647C70.1965 179.82 70.4434 179.975 70.694 180.113C70.7998 180.173 70.9057 180.23 71.0151 180.282C73.1783 181.348 75.0768 181.091 75.7508 181.712C76.1778 182.1 76.326 182.668 76.3684 183.155C76.3719 183.162 76.3719 183.173 76.3719 183.18Z" fill="url(#paint13_linear_7_2486)"/>
<path d="M61.1576 183.566C61.1576 183.566 60.461 181.866 61.5094 180.278C61.5094 180.278 62.8814 181.799 64.231 181.681C65.5806 181.564 67.0238 179.885 67.0238 179.885C67.0238 179.885 67.0429 180.469 66.4701 181.327C66.4701 181.327 67.2781 181.294 67.9364 180.47C67.9364 180.47 67.9591 181.197 67.2384 181.866C67.2384 181.866 68.2102 181.764 68.9799 181.179C68.9799 181.179 68.7033 181.92 68.0677 182.346C68.0677 182.346 69.1526 183.383 69.8217 183.389L68.0222 184.276L61.6405 184.445L61.1576 183.566Z" fill="#F9C55F"/>
<path d="M75.5689 184.497C74.57 184.928 72.6449 185.496 70.1166 185.003C66.3323 184.258 62.8009 184.69 61.3976 184.829C60.9059 184.877 60.6356 184.169 60.5589 183.209C60.556 183.167 60.553 183.124 60.5529 183.08C62.8185 182.096 66.2958 182.267 69.0292 183.507C72.0213 184.862 75.4344 184.116 76.3634 183.18C76.3662 183.178 76.3686 183.178 76.3706 183.181C76.3726 183.183 76.3702 183.183 76.3702 183.183C76.3722 183.186 76.3715 183.191 76.371 183.193C76.4052 183.751 76.0871 184.272 75.5689 184.497Z" fill="#070159"/>
<path d="M68.7543 178.655C68.5426 178.981 68.1478 179.429 67.491 179.709C67.4388 179.733 67.3784 179.727 67.3319 179.7C67.2981 179.681 67.2703 179.652 67.2527 179.614C67.2128 179.522 67.2561 179.415 67.3482 179.376C67.9572 179.115 68.3055 178.685 68.4802 178.405C68.5696 178.484 68.6609 178.568 68.7543 178.655Z" fill="white"/>
<path d="M69.9433 179.646C69.7215 179.955 69.2832 180.426 68.5554 180.675C68.5035 180.693 68.4517 180.686 68.4073 180.661C68.3694 180.639 68.3385 180.605 68.3244 180.561C68.2911 180.467 68.342 180.362 68.438 180.33C69.0765 180.111 69.4621 179.694 69.6501 179.43C69.7483 179.508 69.8458 179.577 69.9433 179.646Z" fill="white"/>
<path d="M71.0154 180.281C70.8355 180.6 70.4296 181.162 69.664 181.492C69.6106 181.518 69.5501 181.512 69.5037 181.485C69.4699 181.466 69.442 181.437 69.4256 181.397C69.3857 181.305 69.429 181.198 69.5211 181.158C70.1857 180.874 70.5391 180.385 70.6928 180.113C70.8016 180.172 70.9084 180.229 71.0154 180.281Z" fill="white"/>
<path d="M66.3852 179.167C66.3569 179.488 66.2016 179.802 65.937 179.99C65.75 180.12 65.5171 180.18 65.2877 180.191C65.0548 180.201 64.8254 180.162 64.6031 180.109C64.3208 180.046 64.042 179.961 63.7739 179.855C63.2904 179.665 62.8317 179.411 62.4117 179.104C62.2035 178.949 62.0059 178.783 61.8188 178.603C61.8083 178.592 61.7941 178.581 61.78 178.571C61.8435 178.529 61.9106 178.497 61.9812 178.476C63.0257 178.158 65.016 180.755 66.2546 179.379C66.3923 179.231 66.3499 178.945 66.2864 178.606C66.3781 178.776 66.4028 178.973 66.3852 179.167Z" fill="#070159"/>
<path d="M71.8551 137.275C70.4525 134.292 64.1871 131.749 57.8655 129.879L56.2725 141.396C57.9622 141.396 60.589 144.228 60.589 144.228L60.1058 176.863C60.1058 177.639 67.1037 177.639 67.1037 176.863C67.1037 176.863 74.8829 143.713 71.8551 137.275Z" fill="url(#paint14_linear_7_2486)"/>
<path d="M90.1109 175.78C89.3845 177.763 89.5922 179.489 90.1109 181.128H85.3588V175.78H90.1109Z" fill="#FDCCC5"/>
<path d="M66.5459 127.703C66.5459 127.703 92.0324 130.8 95.06 137.238C98.0877 143.676 90.8844 176.938 90.8844 176.938C90.8844 177.936 84.481 177.861 84.481 176.863L84.9743 143.544C84.9743 143.544 59.9027 145.66 54.0901 142.819C47.4871 139.591 51.8989 126.009 51.8989 126.009L66.5459 127.703Z" fill="url(#paint15_linear_7_2486)"/>
<path d="M99.6732 184.127C99.6732 184.131 99.6732 184.131 99.6732 184.131V184.141C99.7049 184.699 99.3873 185.218 98.8686 185.444C97.8699 185.878 95.9467 186.446 93.4165 185.952C89.6336 185.207 86.1012 185.638 84.7002 185.775C84.2062 185.825 83.938 185.119 83.8604 184.155C83.8568 184.113 83.8533 184.071 83.8533 184.028C83.7581 182.476 84.1533 180.351 84.9296 179.638C84.979 179.593 85.0285 179.554 85.0814 179.518C85.1449 179.476 85.2119 179.444 85.2825 179.423C86.3271 179.106 88.3173 181.703 89.5559 180.327C89.6935 180.178 89.6512 179.893 89.5877 179.554C89.5595 179.402 89.5277 179.236 89.503 179.07C89.4805 178.909 89.522 178.741 89.5923 178.583C89.7735 178.178 90.3088 178.083 90.6389 178.379C90.9015 178.615 91.274 178.938 91.7826 179.353C91.8744 179.427 91.9626 179.515 92.0544 179.603C92.1179 179.66 92.1814 179.72 92.2484 179.78C92.4813 180.002 92.7178 180.2 92.9507 180.376C93.0495 180.454 93.1483 180.524 93.2436 180.595C93.4977 180.768 93.7446 180.923 93.9952 181.061C94.101 181.121 94.2069 181.177 94.3163 181.23C96.4795 182.296 98.378 182.038 99.0521 182.659C99.4791 183.047 99.6272 183.615 99.6696 184.102C99.6732 184.11 99.6732 184.12 99.6732 184.127Z" fill="url(#paint16_linear_7_2486)"/>
<path d="M84.4589 184.514C84.4589 184.514 83.7622 182.813 84.8107 181.225C84.8107 181.225 86.1827 182.746 87.5323 182.629C88.8819 182.511 90.3251 180.833 90.3251 180.833C90.3251 180.833 90.3442 181.416 89.7713 182.275C89.7713 182.275 90.5793 182.242 91.2376 181.418C91.2376 181.418 91.2604 182.144 90.5396 182.814C90.5396 182.814 91.5114 182.712 92.2811 182.126C92.2811 182.126 92.0045 182.868 91.3689 183.293C91.3689 183.293 92.4538 184.331 93.1229 184.337L91.3234 185.224L84.9417 185.392L84.4589 184.514Z" fill="#F9C55F"/>
<path d="M98.8703 185.444C97.8714 185.876 95.9463 186.444 93.418 185.951C89.6337 185.206 86.1023 185.637 84.699 185.777C84.2073 185.824 83.937 185.117 83.8603 184.156C83.8574 184.114 83.8544 184.072 83.8542 184.028C86.1199 183.044 89.5972 183.215 92.3306 184.454C95.3227 185.809 98.7358 185.064 99.6648 184.127C99.6676 184.125 99.67 184.126 99.672 184.128C99.674 184.131 99.6716 184.131 99.6716 184.131C99.6736 184.133 99.6728 184.138 99.6725 184.141C99.7066 184.699 99.3884 185.219 98.8703 185.444Z" fill="#070159"/>
<path d="M92.0555 179.602C91.8438 179.928 91.449 180.376 90.7923 180.657C90.7401 180.681 90.6796 180.674 90.6332 180.648C90.5994 180.629 90.5715 180.599 90.5539 180.562C90.514 180.47 90.5573 180.363 90.6494 180.323C91.2585 180.063 91.6068 179.633 91.7815 179.353C91.8709 179.431 91.9622 179.516 92.0555 179.602Z" fill="white"/>
<path d="M93.2446 180.593C93.0228 180.902 92.5845 181.373 91.8566 181.622C91.8048 181.64 91.753 181.633 91.7086 181.608C91.6706 181.587 91.6398 181.553 91.6257 181.509C91.5924 181.415 91.6433 181.31 91.7393 181.278C92.3778 181.059 92.7634 180.642 92.9514 180.378C93.0495 180.455 93.147 180.524 93.2446 180.593Z" fill="white"/>
<path d="M94.3167 181.229C94.1368 181.548 93.7309 182.109 92.9653 182.44C92.9118 182.466 92.8514 182.459 92.8049 182.433C92.7711 182.414 92.7433 182.384 92.7269 182.344C92.687 182.252 92.7303 182.146 92.8224 182.106C93.4869 181.821 93.8404 181.333 93.994 181.061C94.1029 181.119 94.2097 181.177 94.3167 181.229Z" fill="white"/>
<path d="M89.6865 180.115C89.6583 180.436 89.503 180.75 89.2383 180.937C89.0513 181.068 88.8184 181.128 88.589 181.138C88.3562 181.149 88.1268 181.11 87.9045 181.057C87.6222 180.994 87.3434 180.909 87.0752 180.803C86.5917 180.612 86.133 180.358 85.713 180.051C85.5048 179.896 85.3072 179.73 85.1201 179.55C85.1096 179.54 85.0955 179.529 85.0813 179.519C85.1448 179.476 85.2119 179.444 85.2824 179.423C86.327 179.106 88.3172 181.703 89.5559 180.327C89.6935 180.178 89.6511 179.893 89.5876 179.554C89.6795 179.723 89.7042 179.921 89.6865 180.115Z" fill="#070159"/>
<path d="M70.4555 93.2727C71.7521 114.478 70.5078 128.092 70.5078 128.092C70.5077 130.9 43.8958 135.64 43.896 132.832C43.896 132.832 40.0096 98.553 46.6013 91.8056C50.523 87.7913 70.1187 87.7657 70.4555 93.2727Z" fill="url(#paint17_linear_7_2486)"/>
<path d="M62.709 89.1432C62.6536 91.0329 60.7222 90.1045 58.2673 90.0326C55.8125 89.9607 53.7653 90.7726 53.8207 88.8829C53.8758 86.9992 55.8042 86.5095 58.259 86.5814C60.7139 86.6534 62.7641 87.2594 62.709 89.1432Z" fill="url(#paint18_linear_7_2486)"/>
<path d="M103.9 116.573C102.52 114.977 99.6083 116.078 99.6083 116.078C99.6083 116.078 100.357 114.077 99.5521 113.396C98.7472 112.714 98.863 114.531 98.2743 115.354C97.8175 115.992 96.4758 116.032 95.8961 116.018V118.887C100.728 121.591 100.821 117.956 102.035 118.538C103.29 119.14 103.676 120.075 104.493 119.681C105.187 119.347 104.736 117.54 103.9 116.573Z" fill="#FDCCC5"/>
<path d="M64.249 93.7299C61.586 100.605 70.1265 115.892 76.772 119.086C81.2782 121.252 96.755 119.877 96.755 119.877C97.4906 119.877 97.4906 115.633 96.755 115.633C96.755 115.633 83.6094 114.904 81.5735 112.376C77.3761 107.165 74.8233 93.3872 69.0862 91.1575C67.5837 90.5736 65.062 91.6306 64.249 93.7299Z" fill="url(#paint19_linear_7_2486)"/>
<path d="M33.2476 104.362C35.0783 99.5936 50.4853 100.303 54.2523 103.753C60.2216 109.22 54.6578 132.447 60.4901 138.827C63.8011 142.448 74.9382 141.211 79.7512 142.136C81.7708 142.524 82.0595 147.024 82.0855 149.071C82.0928 149.649 81.6747 150.133 81.1017 150.209C75.2525 150.992 44.6443 153.287 37.5369 146.225C29.9948 138.731 30.6604 111.102 33.2476 104.362Z" fill="url(#paint20_linear_7_2486)"/>
<path d="M42.9235 100.98C46.3289 101.355 49.4176 102.269 50.8477 103.564C56.806 109.026 51.2504 132.255 57.0731 138.637C59.0941 140.843 64.0168 141.251 68.631 141.44C65.1881 141.131 61.9996 140.498 60.4889 138.827C54.6661 132.444 60.2218 109.216 54.2467 103.753C52.3519 102.01 47.4975 100.981 42.9235 100.98Z" fill="url(#paint21_linear_7_2486)"/>
<path d="M70.0346 150.814V152.507C70.0346 153.349 69.3523 154.031 68.5106 154.031H53.3874C52.5458 154.031 51.8635 153.349 51.8635 152.507V150.693L70.0346 150.814Z" fill="#070159"/>
<path d="M62.7042 154.031H59.194V178.801H62.7042V154.031Z" fill="url(#paint22_linear_7_2486)"/>
<path d="M66.5732 180.16V181.227H55.3248V180.16C55.3248 179.409 55.9337 178.8 56.6848 178.8H65.2133C65.9644 178.8 66.5732 179.409 66.5732 180.16Z" fill="url(#paint23_linear_7_2486)"/>
<path d="M73.1293 185.454V184.085C73.1293 182.507 71.8497 181.227 70.2713 181.227H51.6267C50.0483 181.227 48.7687 182.507 48.7687 184.085V185.454H73.1293Z" fill="url(#paint24_linear_7_2486)"/>
<path d="M65.4403 78.2118C65.4403 78.4026 65.2865 78.5545 65.0976 78.5545C64.9087 78.5545 64.7549 78.4026 64.7549 78.2118C64.7549 78.0229 64.9087 77.871 65.0976 77.871C65.2865 77.871 65.4403 78.0229 65.4403 78.2118Z" fill="#070159"/>
<path d="M65.3162 76.7728C65.3303 76.8504 65.2703 76.9175 65.2103 76.9703C64.9104 77.2491 64.6104 77.5279 64.3069 77.8068C64.2222 77.8879 64.134 77.9691 64.0211 78.0043C63.9081 78.0432 63.7705 78.0184 63.7035 77.9197C63.6435 77.8245 63.6717 77.6938 63.7423 77.6056C63.7741 77.5632 64.5363 76.8258 65.0021 76.681C65.0621 76.6634 65.1221 76.6493 65.1856 76.6599C65.2456 76.6669 65.3056 76.7127 65.3162 76.7728Z" fill="url(#paint25_linear_7_2486)"/>
<path d="M66.258 82.8066C66.0014 82.9118 65.7237 82.937 65.4544 82.8823C65.223 82.8317 64.9958 82.7223 64.8106 82.5499C64.7349 82.4867 64.7307 82.3774 64.798 82.3058C64.8611 82.2301 64.9747 82.2259 65.0462 82.289C65.3786 82.5962 65.8541 82.6382 66.2285 82.4363C66.2412 82.5541 66.2496 82.6803 66.258 82.8066Z" fill="#EC8B73"/>
<path d="M128.381 121.43C128.381 122.279 129.07 122.968 129.92 122.968H137.04V119.891H129.92C129.07 119.891 128.381 120.58 128.381 121.43Z" fill="url(#paint26_linear_7_2486)"/>
<path d="M129.041 121.43C129.041 122.005 129.507 122.472 130.083 122.472H137.04V120.387H130.083C129.507 120.387 129.041 120.854 129.041 121.43Z" fill="url(#paint27_linear_7_2486)"/>
<path d="M121.425 121.429C121.425 122.278 122.114 122.968 122.963 122.968H129.92C129.071 122.968 128.381 122.278 128.381 121.429C128.381 120.581 129.071 119.891 129.92 119.891H122.963C122.114 119.891 121.425 120.581 121.425 121.429Z" fill="url(#paint28_linear_7_2486)"/>
<path d="M130.083 124.506C130.083 125.355 129.394 126.044 128.545 126.044H121.425V122.968H128.545C129.394 122.968 130.083 123.656 130.083 124.506Z" fill="url(#paint29_linear_7_2486)"/>
<path d="M129.424 124.506C129.424 125.081 128.957 125.548 128.381 125.548H121.425V123.464H128.381C128.957 123.464 129.424 123.93 129.424 124.506Z" fill="url(#paint30_linear_7_2486)"/>
<path d="M137.04 124.506C137.04 125.355 136.35 126.044 135.501 126.044H128.545C129.393 126.044 130.083 125.355 130.083 124.506C130.083 123.657 129.393 122.968 128.545 122.968H135.501C136.35 122.968 137.04 123.657 137.04 124.506Z" fill="url(#paint31_linear_7_2486)"/>
<path d="M139.738 161.601C139.661 160.26 140.256 158.048 140.827 156.832C141.398 155.616 142.219 154.528 143.16 153.57C143.804 152.914 144.517 152.308 145.346 151.911C146.176 151.514 147.135 151.339 148.027 151.563C148.919 151.788 149.721 152.451 149.981 153.332C150.144 153.882 150.093 154.478 149.927 155.026C149.533 156.324 148.52 157.364 147.36 158.068C146.2 158.773 144.89 159.183 143.594 159.586C142.298 159.989 140.899 160.899 139.738 161.601Z" fill="url(#paint32_linear_7_2486)"/>
<path d="M137.47 162.891C137.546 161.549 136.951 159.337 136.38 158.121C135.809 156.905 134.988 155.818 134.047 154.859C133.403 154.203 132.69 153.597 131.861 153.2C131.032 152.803 130.072 152.629 129.18 152.853C128.289 153.077 127.487 153.74 127.226 154.621C127.063 155.171 127.114 155.767 127.28 156.315C127.674 157.614 128.687 158.653 129.847 159.358C131.007 160.062 132.318 160.472 133.614 160.875C134.909 161.278 136.308 162.189 137.47 162.891Z" fill="url(#paint33_linear_7_2486)"/>
<path d="M137.895 159.527C137.895 159.527 126.271 142.209 137.4 140.072C148.222 137.993 137.895 159.527 137.895 159.527Z" fill="url(#paint34_linear_7_2486)"/>
<path d="M138.712 165.108C138.656 165.108 138.61 165.062 138.61 165.005C138.606 159.973 146.33 154.237 146.659 153.995C146.705 153.961 146.769 153.971 146.802 154.017C146.836 154.062 146.826 154.127 146.78 154.16C146.701 154.219 138.81 160.077 138.815 165.005C138.815 165.062 138.769 165.108 138.712 165.108Z" fill="#ADC8F7"/>
<path d="M138.025 164.981C137.971 164.981 137.926 164.939 137.923 164.884C137.721 160.583 129.498 155.135 129.414 155.081C129.367 155.05 129.354 154.986 129.385 154.939C129.416 154.891 129.48 154.878 129.527 154.909C129.87 155.134 137.921 160.469 138.128 164.874C138.13 164.93 138.087 164.979 138.03 164.981C138.029 164.981 138.027 164.981 138.025 164.981Z" fill="#ADC8F7"/>
<path d="M138.85 165.108C138.804 165.108 138.763 165.078 138.751 165.031C136.765 157.398 137.499 143.837 137.507 143.701C137.51 143.645 137.556 143.601 137.615 143.605C137.671 143.608 137.714 143.656 137.711 143.713C137.704 143.848 136.971 157.378 138.949 164.98C138.963 165.035 138.93 165.09 138.876 165.105C138.867 165.107 138.858 165.108 138.85 165.108Z" fill="#ADC8F7"/>
<path d="M143.853 164.175C144.191 164.175 144.464 164.449 144.464 164.786V169.29C144.464 171.823 142.908 173.978 140.71 174.884C140.629 174.917 140.541 174.934 140.453 174.934H136.312C136.225 174.934 136.136 174.917 136.055 174.884C133.857 173.978 132.301 171.823 132.301 169.29V164.786C132.301 164.449 132.575 164.175 132.912 164.175H143.853Z" fill="url(#paint35_linear_7_2486)"/>
<path d="M144.464 166.512V164.786C144.464 164.449 144.19 164.175 143.853 164.175H132.912C132.575 164.175 132.301 164.449 132.301 164.786V166.512H144.464Z" fill="#78A7FF"/>
<path d="M140.591 170.008C140.591 171.226 139.602 172.215 138.383 172.215C137.162 172.215 136.176 171.226 136.176 170.008C136.176 168.786 137.162 167.797 138.383 167.797C139.602 167.797 140.591 168.786 140.591 170.008Z" fill="#78A7FF"/>
<path d="M118.031 7.21408H117.628V4.65611C117.628 2.49851 115.872 0.74305 113.715 0.74305H111.063V0.340332H113.715C116.095 0.340332 118.031 2.27632 118.031 4.65611L118.031 7.21408Z" fill="#B7BCFF"/>
<path d="M113.668 42.3283H111.11V41.9256H113.668C115.825 41.9256 117.581 40.1701 117.581 38.0125V35.3608H117.983V38.0125C117.983 40.3923 116.048 42.3283 113.668 42.3283Z" fill="#B7BCFF"/>
<path d="M66.4594 7.21408H66.0566V4.65611C66.0566 2.27632 67.9924 0.340332 70.3722 0.340332H73.0242V0.74305H70.3722C68.2146 0.74305 66.4594 2.49851 66.4594 4.65611V7.21408Z" fill="#B7BCFF"/>
<path d="M72.9774 42.3283H70.4194C68.0396 42.3283 66.1034 40.3923 66.1034 38.0125V35.3607H66.5061V38.0125C66.5061 40.1701 68.2618 41.9255 70.4194 41.9255H72.9773L72.9774 42.3283Z" fill="#B7BCFF"/>
<path d="M115.729 4.65594V38.0126C115.729 39.1253 114.827 40.0273 113.715 40.0273H70.3723C69.2596 40.0273 68.3577 39.1253 68.3577 38.0126V4.65594C68.3577 3.54325 69.2597 2.64124 70.3723 2.64124H113.715C114.827 2.64124 115.729 3.54325 115.729 4.65594Z" fill="url(#paint36_linear_7_2486)"/>
<path d="M88.663 12.5723V21.0269C88.663 21.4438 88.3251 21.7817 87.9082 21.7817H72.923C72.5061 21.7817 72.1682 21.4438 72.1682 21.0269V12.5723C72.1682 12.1554 72.5061 11.8175 72.923 11.8175H87.9082C88.3251 11.8175 88.663 12.1554 88.663 12.5723Z" fill="#ADC8F7"/>
<path d="M115.73 4.65565V9.47077H82.6071C82.2572 9.47077 81.93 9.29773 81.733 9.00853L80.4415 7.11249C80.2445 6.82329 79.9173 6.65025 79.5674 6.65025H75.0309C74.681 6.65025 74.3537 6.82329 74.1568 7.11249L72.8653 9.00853C72.6683 9.29773 72.341 9.47077 71.9912 9.47077H68.3582V4.65575C68.3582 3.54244 69.2607 2.63989 70.374 2.63989H113.714C114.827 2.63989 115.73 3.54239 115.73 4.65565Z" fill="url(#paint37_linear_7_2486)"/>
<path d="M113.535 6.11142C113.535 6.9328 112.869 7.59866 112.048 7.59866H88.388C87.5667 7.59866 86.9008 6.9328 86.9008 6.11142C86.9008 5.29005 87.5666 4.62415 88.388 4.62415H112.048C112.869 4.62415 113.535 5.29005 113.535 6.11142Z" fill="url(#paint38_linear_7_2486)"/>
<path d="M112.048 4.62415H110.593V7.59866H112.048C112.869 7.59866 113.535 6.9328 113.535 6.11142C113.535 5.29005 112.869 4.62415 112.048 4.62415Z" fill="#3D79F3"/>
<path d="M111.829 6.5705C111.676 6.5705 111.531 6.5105 111.422 6.4014C111.313 6.29263 111.253 6.14791 111.253 5.99373C111.253 5.83956 111.313 5.69503 111.422 5.58631C111.638 5.36959 112.02 5.36959 112.237 5.58631C112.346 5.69508 112.405 5.8398 112.405 5.99373C112.405 6.14791 112.346 6.29263 112.237 6.4014C112.128 6.5105 111.983 6.5705 111.829 6.5705ZM111.829 5.61972C111.729 5.61972 111.635 5.65845 111.564 5.72868C111.493 5.79948 111.454 5.89346 111.454 5.99373C111.454 6.094 111.493 6.18823 111.564 6.25903C111.707 6.40101 111.952 6.40101 112.094 6.25903C112.165 6.18823 112.204 6.09405 112.204 5.99373C112.204 5.89346 112.165 5.79943 112.094 5.72868C112.024 5.65845 111.93 5.61972 111.829 5.61972Z" fill="white"/>
<path d="M112.539 6.80469C112.514 6.80469 112.488 6.79485 112.468 6.77517L112.094 6.40134C112.055 6.36203 112.055 6.29829 112.094 6.25898C112.134 6.21966 112.197 6.21966 112.237 6.25898L112.611 6.6328C112.65 6.67211 112.65 6.73585 112.611 6.77517C112.591 6.79485 112.565 6.80469 112.539 6.80469Z" fill="white"/>
<path d="M78.0284 18.5604L75.1554 17.2714C75.0736 17.233 75.0103 17.1815 74.9647 17.1166C74.9191 17.0517 74.8962 16.9786 74.8962 16.897V16.8394C74.8962 16.7578 74.919 16.6846 74.9647 16.6197C75.0103 16.555 75.0736 16.5035 75.1554 16.465L78.0284 15.1762C78.067 15.1616 78.1051 15.1545 78.1437 15.1545C78.2255 15.1545 78.2939 15.182 78.349 15.2373C78.404 15.2926 78.432 15.361 78.432 15.4424C78.432 15.5002 78.4139 15.5541 78.3777 15.6045C78.3419 15.655 78.2951 15.6922 78.2373 15.7162L75.6451 16.8681L78.2373 18.0203C78.2951 18.0445 78.3419 18.0814 78.3777 18.132C78.4139 18.1823 78.432 18.2364 78.432 18.294C78.432 18.3756 78.404 18.4441 78.349 18.4991C78.2939 18.5544 78.2255 18.5821 78.1437 18.5821C78.1051 18.582 78.067 18.5748 78.0284 18.5604Z" fill="white"/>
<path d="M79.2487 19.5971C79.1937 19.5397 79.1661 19.4699 79.1661 19.3883C79.1661 19.3596 79.1732 19.3236 79.1874 19.2803L81.0956 13.6999C81.1148 13.6423 81.1483 13.5943 81.1967 13.5559C81.2442 13.5176 81.3044 13.4984 81.3764 13.4984C81.4629 13.4984 81.5337 13.5271 81.5888 13.5847C81.6443 13.6423 81.6718 13.712 81.6718 13.7936C81.6718 13.8224 81.6648 13.8584 81.6502 13.9015L79.7419 19.4819C79.7227 19.5397 79.6892 19.5875 79.6412 19.6261C79.5932 19.6644 79.5331 19.6837 79.4611 19.6837C79.375 19.6837 79.3038 19.655 79.2487 19.5971Z" fill="white"/>
<path d="M82.4817 18.4991C82.4266 18.444 82.399 18.3756 82.399 18.294C82.399 18.2364 82.4171 18.1823 82.453 18.1319C82.4891 18.0814 82.5359 18.0444 82.5934 18.0202L85.1855 16.8681L82.5934 15.7161C82.5359 15.6921 82.4891 15.655 82.453 15.6044C82.4171 15.5541 82.399 15.5002 82.399 15.4424C82.399 15.361 82.4265 15.2925 82.4817 15.2373C82.5371 15.182 82.6055 15.1545 82.687 15.1545C82.7302 15.1545 82.7687 15.1615 82.8022 15.1761L85.6752 16.4649C85.757 16.5035 85.8203 16.555 85.8659 16.6197C85.9115 16.6846 85.9344 16.7577 85.9344 16.8393V16.8969C85.9344 16.9785 85.9116 17.0517 85.8659 17.1166C85.8203 17.1815 85.757 17.233 85.6752 17.2713L82.8022 18.5604C82.7687 18.5747 82.7302 18.582 82.687 18.582C82.6055 18.582 82.5371 18.5543 82.4817 18.4991Z" fill="white"/>
<path d="M77.1115 24.117C77.1115 24.4182 76.8673 24.6625 76.566 24.6625H72.7137C72.4125 24.6625 72.1682 24.4183 72.1682 24.117C72.1682 23.8157 72.4124 23.5715 72.7137 23.5715H76.566C76.8673 23.5715 77.1115 23.8157 77.1115 24.117Z" fill="white"/>
<path d="M77.1115 26.6579C77.1115 26.9592 76.8673 27.2034 76.566 27.2034H72.7137C72.4125 27.2034 72.1682 26.9592 72.1682 26.6579C72.1682 26.3566 72.4124 26.1124 72.7137 26.1124H76.566C76.8673 26.1124 77.1115 26.3566 77.1115 26.6579Z" fill="white"/>
<path d="M99.3995 23.5715H80.4316C80.1303 23.5715 79.8861 23.8158 79.8861 24.1171C79.8861 24.4183 80.1303 24.6626 80.4316 24.6626H99.3995C99.7008 24.6626 99.9451 24.4184 99.9451 24.1171C99.9451 23.8158 99.7008 23.5715 99.3995 23.5715Z" fill="white"/>
<path d="M96.9508 26.6578C96.9508 26.9591 97.195 27.2034 97.4963 27.2034H103.416C103.717 27.2034 103.961 26.9592 103.961 26.6579C103.961 26.3566 103.717 26.1123 103.416 26.1123H97.4963C97.195 26.1123 96.9508 26.3565 96.9508 26.6578Z" fill="white"/>
<path d="M93.3045 26.1123H80.4316C80.1303 26.1123 79.8861 26.3565 79.8861 26.6578C79.8861 26.9591 80.1303 27.2034 80.4316 27.2034H93.3045C93.6057 27.2034 93.85 26.9592 93.85 26.6579C93.8499 26.3566 93.6057 26.1123 93.3045 26.1123Z" fill="white"/>
<path d="M77.1115 28.8772C77.1115 29.1784 76.8673 29.4227 76.566 29.4227H72.7137C72.4125 29.4227 72.1682 29.1785 72.1682 28.8772C72.1682 28.5759 72.4124 28.3317 72.7137 28.3317H76.566C76.8673 28.3317 77.1115 28.5759 77.1115 28.8772Z" fill="white"/>
<path d="M77.1115 31.4181C77.1115 31.7193 76.8673 31.9636 76.566 31.9636H72.7137C72.4125 31.9636 72.1682 31.7194 72.1682 31.4181C72.1682 31.1168 72.4124 30.8726 72.7137 30.8726H76.566C76.8673 30.8726 77.1115 31.1168 77.1115 31.4181Z" fill="white"/>
<path d="M87.222 28.3317H80.4316C80.1303 28.3317 79.8861 28.5759 79.8861 28.8772C79.8861 29.1785 80.1303 29.4228 80.4316 29.4228H87.222C87.5232 29.4228 87.7675 29.1786 87.7675 28.8773C87.7674 28.576 87.5232 28.3317 87.222 28.3317Z" fill="white"/>
<path d="M109.311 28.3317H90.579C90.2777 28.3317 90.0334 28.5759 90.0334 28.8772C90.0334 29.1785 90.2777 29.4228 90.579 29.4228H109.311C109.612 29.4228 109.857 29.1786 109.857 28.8773C109.857 28.576 109.612 28.3317 109.311 28.3317Z" fill="white"/>
<path d="M93.3045 30.8725H80.4316C80.1303 30.8725 79.8861 31.1167 79.8861 31.418C79.8861 31.7193 80.1303 31.9636 80.4316 31.9636H93.3045C93.6057 31.9636 93.85 31.7194 93.85 31.4181C93.8499 31.1168 93.6057 30.8725 93.3045 30.8725Z" fill="white"/>
<path d="M79.0801 34.0204C79.0801 34.3216 78.8359 34.5659 78.5346 34.5659H74.6824C74.3811 34.5659 74.1368 34.3217 74.1368 34.0204C74.1368 33.7191 74.3811 33.4749 74.6824 33.4749H78.5346C78.8359 33.4749 79.0801 33.7191 79.0801 34.0204Z" fill="white"/>
<path d="M79.0801 36.5612C79.0801 36.8625 78.8359 37.1067 78.5346 37.1067H74.6824C74.3811 37.1067 74.1368 36.8625 74.1368 36.5612C74.1368 36.26 74.3811 36.0157 74.6824 36.0157H78.5346C78.8359 36.0157 79.0801 36.26 79.0801 36.5612Z" fill="white"/>
<path d="M89.1906 33.4749H82.4003C82.099 33.4749 81.8547 33.7191 81.8547 34.0204C81.8547 34.3216 82.099 34.5659 82.4003 34.5659H89.1906C89.4919 34.5659 89.7361 34.3217 89.7361 34.0204C89.7361 33.7191 89.4919 33.4749 89.1906 33.4749Z" fill="white"/>
<path d="M102.667 33.4749H92.5476C92.2463 33.4749 92.0021 33.7191 92.0021 34.0204C92.0021 34.3216 92.2463 34.5659 92.5476 34.5659H102.667C102.969 34.5659 103.213 34.3217 103.213 34.0204C103.213 33.7191 102.969 33.4749 102.667 33.4749Z" fill="white"/>
<path d="M98.9194 36.5611C98.9194 36.8624 99.1637 37.1067 99.465 37.1067H109.76C110.061 37.1067 110.306 36.8625 110.306 36.5612C110.306 36.2599 110.061 36.0156 109.76 36.0156H99.465C99.1637 36.0156 98.9194 36.2599 98.9194 36.5611Z" fill="white"/>
<path d="M95.2731 36.0156H82.4003C82.099 36.0156 81.8547 36.2598 81.8547 36.5611C81.8547 36.8624 82.099 37.1067 82.4003 37.1067H95.2731C95.5744 37.1067 95.8186 36.8625 95.8186 36.5612C95.8186 36.2599 95.5744 36.0156 95.2731 36.0156Z" fill="white"/>
<path d="M107.68 13.5555C107.68 13.8439 107.447 14.0776 107.158 14.0776H96.6705C96.3821 14.0776 96.1484 13.8439 96.1484 13.5555C96.1484 13.2671 96.3822 13.0334 96.6705 13.0334H107.158C107.447 13.0334 107.68 13.2671 107.68 13.5555Z" fill="white"/>
<path d="M95.7922 15.7552H92.5229C92.2346 15.7552 92.0009 15.989 92.0009 16.2773V16.2774C92.0009 16.5658 92.2346 16.7995 92.5229 16.7995H95.7922C96.0805 16.7995 96.3143 16.5658 96.3143 16.2774V16.2773C96.3143 15.989 96.0806 15.7552 95.7922 15.7552Z" fill="white"/>
<path d="M98.5063 16.2773V16.2774C98.5063 16.5658 98.7401 16.7995 99.0284 16.7995H111.306C111.594 16.7995 111.828 16.5658 111.828 16.2774V16.2773C111.828 15.989 111.594 15.7552 111.306 15.7552H99.0284C98.7401 15.7552 98.5063 15.989 98.5063 16.2773Z" fill="white"/>
<path d="M104.235 18.4772H92.5229C92.2346 18.4772 92.0009 18.711 92.0009 18.9993V18.9994C92.0009 19.2878 92.2346 19.5215 92.5229 19.5215H104.235C104.524 19.5215 104.758 19.2878 104.758 18.9994V18.9993C104.758 18.711 104.524 18.4772 104.235 18.4772Z" fill="white"/>
<path d="M108.086 18.9994V18.9995C108.086 19.2878 108.32 19.5216 108.608 19.5216H111.306C111.594 19.5216 111.828 19.2878 111.828 18.9995V18.9994C111.828 18.7111 111.594 18.4773 111.306 18.4773H108.608C108.32 18.4772 108.086 18.711 108.086 18.9994Z" fill="white"/>
<path d="M32.6086 48.6831C32.4973 48.6831 32.4072 48.5931 32.4072 48.4818V46.8022C32.4072 44.7463 34.0795 43.0738 36.1352 43.0738H38.3975C38.5088 43.0738 38.5988 43.1638 38.5988 43.2752C38.5988 43.3865 38.5088 43.4765 38.3975 43.4765H36.1352C34.3017 43.4765 32.8099 44.9684 32.8099 46.8022V48.4818C32.8099 48.5931 32.7199 48.6831 32.6086 48.6831Z" fill="url(#paint39_linear_7_2486)"/>
<path d="M59.7603 49.2656C59.649 49.2656 59.559 49.1756 59.559 49.0642V46.802C59.559 44.9683 58.0672 43.4765 56.2333 43.4765H54.5535C54.4422 43.4765 54.3522 43.3865 54.3522 43.2752C54.3522 43.1638 54.4422 43.0738 54.5535 43.0738H56.2333C58.289 43.0738 59.9617 44.7463 59.9617 46.802V49.0642C59.9617 49.1755 59.8716 49.2656 59.7603 49.2656Z" fill="url(#paint40_linear_7_2486)"/>
<path d="M56.2334 63.5659H53.9711C53.8598 63.5659 53.7698 63.4758 53.7698 63.3645C53.7698 63.2532 53.8598 63.1632 53.9711 63.1632H56.2334C58.0673 63.1632 59.5591 61.6712 59.5591 59.8375V58.1579C59.5591 58.0466 59.6491 57.9565 59.7604 57.9565C59.8717 57.9565 59.9618 58.0466 59.9618 58.1579V59.8375C59.9618 61.8934 58.2891 63.5659 56.2334 63.5659Z" fill="url(#paint41_linear_7_2486)"/>
<path d="M37.815 63.5659H36.1356C34.0799 63.5659 32.4072 61.8934 32.4072 59.8377V57.5754C32.4072 57.4641 32.4973 57.3741 32.6086 57.3741C32.7199 57.3741 32.8099 57.4641 32.8099 57.5754V59.8377C32.8099 61.6714 34.3017 63.1632 36.1356 63.1632H37.815C37.9263 63.1632 38.0164 63.2532 38.0164 63.3645C38.0164 63.4758 37.9263 63.5659 37.815 63.5659Z" fill="url(#paint42_linear_7_2486)"/>
<path d="M57.8473 46.8022V59.8375C57.8473 60.7288 57.1247 61.4514 56.2334 61.4514H36.1356C35.2443 61.4514 34.5217 60.7288 34.5217 59.8375V46.8022C34.5217 45.9109 35.2443 45.1884 36.1356 45.1884H56.2334C57.1247 45.1884 57.8473 45.9109 57.8473 46.8022Z" fill="url(#paint43_linear_7_2486)"/>
<path d="M39.0795 56.322C38.5675 56.0534 38.1584 55.6676 37.8524 55.164C37.5457 54.6606 37.3927 54.0689 37.3927 53.3892C37.3927 52.7096 37.5457 52.1181 37.8524 51.6147C38.1584 51.1111 38.5675 50.7252 39.0795 50.4564C39.5912 50.1882 40.1492 50.0537 40.7534 50.0537C41.1982 50.0537 41.582 50.1103 41.9053 50.2236C42.2282 50.3369 42.5283 50.4816 42.8052 50.658C42.9727 50.7672 43.0569 50.9141 43.0569 51.0985C43.0569 51.2244 43.0085 51.3398 42.9122 51.4446C42.8154 51.5498 42.7045 51.6021 42.5787 51.6021C42.4862 51.6021 42.3938 51.577 42.3018 51.5266C42.0249 51.3839 41.7878 51.281 41.5907 51.2181C41.3933 51.1552 41.1479 51.1237 40.8541 51.1237C40.1324 51.1237 39.566 51.3313 39.1551 51.7469C38.7437 52.1622 38.5384 52.7096 38.5384 53.3893C38.5384 54.0689 38.7437 54.6165 39.1551 55.0319C39.5661 55.4474 40.1324 55.6551 40.8541 55.6551C41.1479 55.6551 41.3933 55.6236 41.5907 55.5607C41.7878 55.4978 42.0249 55.3951 42.3018 55.2523C42.3938 55.2018 42.4863 55.1767 42.5787 55.1767C42.7045 55.1767 42.8154 55.2292 42.9122 55.3342C43.0085 55.4392 43.0569 55.5544 43.0569 55.6803C43.0569 55.8647 42.9727 56.0118 42.8052 56.1208C42.5283 56.297 42.2282 56.4417 41.9053 56.555C41.582 56.6683 41.1982 56.7249 40.7534 56.7249C40.1492 56.7248 39.5911 56.5907 39.0795 56.322Z" fill="white"/>
<path d="M44.2777 56.1585C44.1349 56.0578 44.0637 55.9193 44.0637 55.7432C44.0637 55.6091 44.1097 55.4915 44.2021 55.3907C44.2942 55.29 44.4118 55.2397 44.5545 55.2397C44.63 55.2397 44.7055 55.2566 44.781 55.2901C45.0496 55.4077 45.3179 55.4997 45.5865 55.567C45.8551 55.6342 46.1572 55.6677 46.493 55.6677C47.4243 55.6677 47.89 55.3699 47.89 54.7739C47.89 54.581 47.783 54.4341 47.5691 54.3334C47.3552 54.2325 47.0047 54.1193 46.5182 53.9934C46.0227 53.8762 45.6137 53.7543 45.2908 53.6284C44.9679 53.5026 44.691 53.3118 44.4601 53.0558C44.2293 52.7999 44.1141 52.4623 44.1141 52.0426C44.1141 51.4553 44.3257 50.977 44.7496 50.6077C45.1732 50.2386 45.7797 50.0538 46.5686 50.0538C47.2144 50.0538 47.8228 50.1588 48.3935 50.3684C48.5111 50.4023 48.6012 50.4652 48.6641 50.5572C48.727 50.6498 48.7585 50.7462 48.7585 50.8469C48.7585 50.9812 48.7101 51.0986 48.6137 51.1993C48.5174 51.3 48.3978 51.3503 48.255 51.3503C48.2129 51.3503 48.1587 51.342 48.0914 51.3251C47.6045 51.1741 47.1263 51.0986 46.6567 51.0986C46.2033 51.0986 45.8489 51.1804 45.5929 51.344C45.3368 51.5076 45.209 51.7198 45.209 51.9798C45.209 52.2315 45.3266 52.4159 45.5614 52.5335C45.7961 52.6511 46.1611 52.7644 46.6567 52.8733C47.1514 52.9992 47.5542 53.1231 47.8649 53.2446C48.1752 53.3665 48.4418 53.5573 48.664 53.8173C48.8862 54.0776 48.9975 54.4259 48.9975 54.862C48.9975 55.3991 48.7856 55.8439 48.362 56.1963C47.938 56.5487 47.3402 56.7249 46.5686 56.7249C45.7293 56.7248 44.9655 56.536 44.2777 56.1585Z" fill="white"/>
<path d="M50.319 56.1585C50.1763 56.0578 50.1051 55.9193 50.1051 55.7432C50.1051 55.6091 50.1511 55.4915 50.2435 55.3907C50.336 55.29 50.4532 55.2397 50.5963 55.2397C50.6718 55.2397 50.7473 55.2566 50.8228 55.2901C51.0911 55.4077 51.3597 55.4997 51.6283 55.567C51.8966 55.6342 52.1986 55.6677 52.5345 55.6677C53.4658 55.6677 53.9315 55.3699 53.9315 54.7739C53.9315 54.581 53.8245 54.4341 53.6105 54.3334C53.3966 54.2325 53.0462 54.1193 52.5597 53.9934C52.0645 53.8762 51.6555 53.7543 51.3326 53.6284C51.0093 53.5026 50.7325 53.3118 50.502 53.0558C50.2707 52.7999 50.1555 52.4623 50.1555 52.0426C50.1555 51.4553 50.3674 50.977 50.7914 50.6077C51.215 50.2386 51.8211 50.0538 52.61 50.0538C53.2562 50.0538 53.8642 50.1588 54.4353 50.3684C54.5525 50.4023 54.6429 50.4652 54.7059 50.5572C54.7688 50.6498 54.8003 50.7462 54.8003 50.8469C54.8003 50.9812 54.7519 51.0986 54.6556 51.1993C54.5588 51.3 54.4393 51.3503 54.2968 51.3503C54.2548 51.3503 54.2001 51.342 54.1328 51.3251C53.6464 51.1741 53.1681 51.0986 52.6981 51.0986C52.245 51.0986 51.8903 51.1804 51.6346 51.344C51.3786 51.5076 51.2508 51.7198 51.2508 51.9798C51.2508 52.2315 51.368 52.4159 51.6031 52.5335C51.8379 52.6511 52.2029 52.7644 52.6981 52.8733C53.1932 52.9992 53.596 53.1231 53.9063 53.2446C54.217 53.3665 54.4832 53.5573 54.7059 53.8173C54.9281 54.0776 55.0394 54.4259 55.0394 54.862C55.0394 55.3991 54.8274 55.8439 54.4038 56.1963C53.9798 56.5487 53.382 56.7249 52.61 56.7249C51.7707 56.7248 51.0073 56.536 50.319 56.1585Z" fill="white"/>
<path d="M5.45685 73.2347C5.34554 73.2347 5.25549 73.1446 5.25549 73.0333V71.3538C5.25549 69.298 6.92815 67.6255 8.98389 67.6255H11.2461C11.3574 67.6255 11.4475 67.7156 11.4475 67.8269C11.4475 67.9382 11.3574 68.0283 11.2461 68.0283H8.98389C7.14996 68.0283 5.65821 69.52 5.65821 71.3538V73.0333C5.65821 73.1446 5.56817 73.2347 5.45685 73.2347Z" fill="url(#paint44_linear_7_2486)"/>
<path d="M32.6086 73.8167C32.4973 73.8167 32.4072 73.7266 32.4072 73.6153V71.3531C32.4072 69.5195 30.9155 68.0278 29.0815 68.0278H27.4022C27.2909 68.0278 27.2008 67.9377 27.2008 67.8264C27.2008 67.7151 27.2909 67.6251 27.4022 67.6251H29.0815C31.1373 67.6251 32.8099 69.2975 32.8099 71.3531V73.6153C32.8099 73.7266 32.7199 73.8167 32.6086 73.8167Z" fill="url(#paint45_linear_7_2486)"/>
<path d="M29.082 88.117H26.8198C26.7085 88.117 26.6184 88.027 26.6184 87.9157C26.6184 87.8043 26.7085 87.7143 26.8198 87.7143H29.082C30.9155 87.7143 32.4073 86.2223 32.4073 84.3886V82.7091C32.4073 82.5977 32.4974 82.5077 32.6087 82.5077C32.72 82.5077 32.81 82.5977 32.81 82.7091V84.3886C32.81 86.4445 31.1377 88.117 29.082 88.117Z" fill="url(#paint46_linear_7_2486)"/>
<path d="M10.6637 88.117H8.98389C6.92815 88.117 5.25549 86.4445 5.25549 84.3888V82.1266C5.25549 82.0153 5.34554 81.9252 5.45685 81.9252C5.56817 81.9252 5.65821 82.0153 5.65821 82.1266V84.3888C5.65821 86.2226 7.14996 87.7143 8.98389 87.7143H10.6637C10.775 87.7143 10.865 87.8044 10.865 87.9157C10.8651 88.027 10.775 88.117 10.6637 88.117Z" fill="url(#paint47_linear_7_2486)"/>
<path d="M30.6957 71.3533V84.3886C30.6957 85.2799 29.9731 86.0025 29.0818 86.0025H8.98397C8.09266 86.0025 7.37012 85.28 7.37012 84.3886V71.3533C7.37012 70.462 8.09266 69.7394 8.98397 69.7394H29.0818C29.9731 69.7394 30.6957 70.462 30.6957 71.3533Z" fill="url(#paint48_linear_7_2486)"/>
<path d="M11.8298 80.5709C11.3877 80.3393 11.035 80.0062 10.7707 79.5716C10.506 79.137 10.3743 78.6265 10.3743 78.0399C10.3743 77.4533 10.506 76.9428 10.7707 76.5082C11.035 76.0736 11.3878 75.7407 11.8298 75.5089C12.2715 75.2772 12.7532 75.1612 13.2744 75.1612C13.6582 75.1612 13.9898 75.21 14.2686 75.3079C14.547 75.4056 14.8063 75.5305 15.0453 75.6827C15.1901 75.7767 15.2624 75.9038 15.2624 76.0628C15.2624 76.1716 15.2208 76.2711 15.1374 76.3615C15.0544 76.4522 14.9585 76.4974 14.8495 76.4974C14.7701 76.4974 14.6902 76.4756 14.6107 76.4323C14.3716 76.3093 14.1671 76.2204 13.9968 76.1661C13.8265 76.1118 13.6149 76.0847 13.3613 76.0847C12.7383 76.0847 12.2498 76.2638 11.8951 76.6223C11.5399 76.9808 11.3625 77.4533 11.3625 78.04C11.3625 78.6266 11.5399 79.0993 11.8951 79.4576C12.2498 79.8163 12.7383 79.9954 13.3613 79.9954C13.6149 79.9954 13.8265 79.9681 13.9968 79.9138C14.1671 79.8595 14.3717 79.7711 14.6107 79.6478C14.6902 79.6043 14.77 79.5827 14.8495 79.5827C14.9585 79.5827 15.0544 79.6279 15.1374 79.7184C15.2208 79.809 15.2624 79.9085 15.2624 80.0173C15.2624 80.1765 15.1901 80.3032 15.0453 80.3974C14.8062 80.5494 14.547 80.6744 14.2686 80.772C13.9898 80.8699 13.6582 80.9187 13.2744 80.9187C12.7532 80.9186 12.2715 80.803 11.8298 80.5709Z" fill="white"/>
<path d="M18.3966 79.5554C18.3132 79.4721 18.2715 79.3725 18.2715 79.2565V77.4749H16.4899C16.3739 77.4749 16.2763 77.4352 16.1965 77.3555C16.117 77.2759 16.0773 77.1782 16.0773 77.0624C16.0773 76.9392 16.117 76.8378 16.1965 76.7579C16.2763 76.6785 16.3738 76.6386 16.4899 76.6386H18.2715V74.8569C18.2715 74.7341 18.3132 74.6326 18.3966 74.5527C18.4796 74.4733 18.5795 74.4333 18.6951 74.4333C18.8182 74.4333 18.9197 74.4733 18.9995 74.5527C19.079 74.6325 19.1191 74.734 19.1191 74.8569V76.6386H20.8897C21.0128 76.6386 21.1139 76.6785 21.1937 76.7579C21.2736 76.8378 21.3133 76.9392 21.3133 77.0624C21.3133 77.1782 21.2736 77.2759 21.1937 77.3555C21.1139 77.4352 21.0128 77.4749 20.8897 77.4749H19.1191V79.2565C19.1191 79.3725 19.079 79.4721 18.9995 79.5554C18.9197 79.6388 18.8182 79.6803 18.6951 79.6803C18.5795 79.6803 18.4796 79.6388 18.3966 79.5554Z" fill="white"/>
<path d="M24.5016 79.5554C24.4183 79.4721 24.3765 79.3725 24.3765 79.2565V77.4749H22.5949C22.4789 77.4749 22.3814 77.4352 22.3016 77.3555C22.2221 77.2759 22.1824 77.1782 22.1824 77.0624C22.1824 76.9392 22.2221 76.8378 22.3016 76.7579C22.3814 76.6785 22.4789 76.6386 22.5949 76.6386H24.3765V74.8569C24.3765 74.7341 24.4183 74.6326 24.5016 74.5527C24.5846 74.4733 24.6845 74.4333 24.8001 74.4333C24.9233 74.4333 25.0247 74.4733 25.1046 74.5527C25.184 74.6325 25.2241 74.734 25.2241 74.8569V76.6386H26.9948C27.1179 76.6386 27.2189 76.6785 27.2988 76.7579C27.3786 76.8378 27.4184 76.9392 27.4184 77.0624C27.4184 77.1782 27.3786 77.2759 27.2988 77.3555C27.219 77.4352 27.1179 77.4749 26.9948 77.4749H25.2241V79.2565C25.2241 79.3725 25.184 79.4721 25.1046 79.5554C25.0247 79.6388 24.9233 79.6803 24.8001 79.6803C24.6845 79.6803 24.5846 79.6388 24.5016 79.5554Z" fill="white"/>
<path d="M85.2246 58.8691C85.1132 58.8691 85.0232 58.7791 85.0232 58.6678V56.9882C85.0232 54.9325 86.6955 53.26 88.7512 53.26H91.0135C91.1248 53.26 91.2148 53.3501 91.2148 53.4614C91.2148 53.5727 91.1248 53.6627 91.0135 53.6627H88.7512C86.9177 53.6627 85.4259 55.1545 85.4259 56.9882V58.6678C85.4259 58.7791 85.3359 58.8691 85.2246 58.8691Z" fill="url(#paint49_linear_7_2486)"/>
<path d="M112.376 59.4516C112.265 59.4516 112.175 59.3616 112.175 59.2503V56.988C112.175 55.1545 110.683 53.6627 108.849 53.6627H107.17C107.058 53.6627 106.968 53.5727 106.968 53.4614C106.968 53.3501 107.058 53.26 107.17 53.26H108.849C110.905 53.26 112.578 54.9325 112.578 56.988V59.2503C112.578 59.3616 112.488 59.4516 112.376 59.4516Z" fill="url(#paint50_linear_7_2486)"/>
<path d="M108.849 73.752H106.587C106.476 73.752 106.386 73.662 106.386 73.5506C106.386 73.4393 106.476 73.3493 106.587 73.3493H108.849C110.683 73.3493 112.175 71.8573 112.175 70.0236V68.344C112.175 68.2327 112.265 68.1426 112.376 68.1426C112.488 68.1426 112.578 68.2327 112.578 68.344V70.0236C112.578 72.0795 110.905 73.752 108.849 73.752Z" fill="url(#paint51_linear_7_2486)"/>
<path d="M90.431 73.752H88.7516C86.6959 73.752 85.0232 72.0795 85.0232 70.0238V67.7615C85.0232 67.6502 85.1132 67.5602 85.2246 67.5602C85.3359 67.5602 85.4259 67.6502 85.4259 67.7615V70.0238C85.4259 71.8575 86.9177 73.3493 88.7516 73.3493H90.431C90.5423 73.3493 90.6323 73.4393 90.6323 73.5506C90.6323 73.6619 90.5423 73.752 90.431 73.752Z" fill="url(#paint52_linear_7_2486)"/>
<path d="M110.463 56.9882V70.0236C110.463 70.9149 109.741 71.6374 108.849 71.6374H88.7516C87.8602 71.6374 87.1377 70.9149 87.1377 70.0236V56.9882C87.1377 56.0969 87.8602 55.3744 88.7516 55.3744H108.849C109.741 55.3744 110.463 56.0969 110.463 56.9882Z" fill="url(#paint53_linear_7_2486)"/>
<path d="M89.9047 65.5774C89.8473 65.5202 89.8186 65.4496 89.8186 65.3655V61.2787C89.8186 61.1948 89.8473 61.123 89.9047 61.0634C89.9621 61.0038 90.0325 60.9739 90.1167 60.9739C90.2005 60.9739 90.2724 61.0038 90.3319 61.0634C90.3917 61.123 90.4215 61.1948 90.4215 61.2787V63.0407H92.9319V61.2787C92.9319 61.1948 92.9606 61.123 93.018 61.0634C93.0751 61.0038 93.1459 60.9739 93.23 60.9739C93.3138 60.9739 93.3854 61.0038 93.4451 61.0634C93.505 61.123 93.5344 61.1948 93.5344 61.2787V65.3655C93.5344 65.4496 93.5049 65.5202 93.4451 65.5774C93.3854 65.6348 93.3138 65.6635 93.23 65.6635C93.1459 65.6635 93.0751 65.6348 93.018 65.5774C92.9606 65.5202 92.9319 65.4496 92.9319 65.3655V63.6035H90.4215V65.3655C90.4215 65.4496 90.3916 65.5202 90.3319 65.5774C90.2725 65.6348 90.2005 65.6635 90.1167 65.6635C90.0325 65.6636 89.9621 65.6349 89.9047 65.5774Z" fill="white"/>
<path d="M95.9787 65.577C95.9213 65.5198 95.8926 65.4492 95.8926 65.365V61.5698H94.5413C94.4618 61.5698 94.3957 61.5432 94.3426 61.4903C94.2895 61.4372 94.2632 61.3709 94.2632 61.2915C94.2632 61.2119 94.2895 61.1446 94.3426 61.0895C94.3957 61.0343 94.4618 61.0065 94.5413 61.0065H97.8398C97.9196 61.0065 97.9869 61.0343 98.0419 61.0895C98.097 61.1446 98.1249 61.2118 98.1249 61.2915C98.1249 61.3709 98.097 61.4372 98.0419 61.4903C97.9869 61.5432 97.9196 61.5698 97.8398 61.5698H96.4951V65.365C96.4951 65.4492 96.4656 65.5198 96.4059 65.577C96.3465 65.6344 96.2745 65.6631 96.1907 65.6631C96.1065 65.6632 96.0361 65.6345 95.9787 65.577Z" fill="white"/>
<path d="M98.9394 65.577C98.882 65.5198 98.8533 65.4492 98.8533 65.365V61.4106C98.8533 61.2915 98.8954 61.1888 98.9791 61.1027C99.0629 61.0166 99.1647 60.9734 99.2839 60.9734H99.5022C99.5907 60.9734 99.6713 61 99.744 61.0529C99.8168 61.106 99.8711 61.1721 99.9065 61.2517L101.41 65.0007L102.914 61.2517C102.949 61.1721 103.003 61.106 103.076 61.0529C103.149 61 103.229 60.9734 103.318 60.9734H103.536C103.655 60.9734 103.757 61.0165 103.841 61.1027C103.925 61.1888 103.967 61.2915 103.967 61.4106V65.365C103.967 65.4492 103.938 65.5198 103.881 65.577C103.823 65.6344 103.752 65.6631 103.669 65.6631C103.585 65.6631 103.513 65.6344 103.454 65.577C103.394 65.5198 103.364 65.4492 103.364 65.365V61.6028L101.834 65.3851C101.799 65.4688 101.742 65.5363 101.665 65.587C101.588 65.6378 101.503 65.6631 101.41 65.6631C101.317 65.6631 101.232 65.6378 101.155 65.587C101.078 65.5363 101.021 65.4688 100.986 65.3851L99.4562 61.6028V65.365C99.4562 65.4492 99.4263 65.5198 99.3665 65.577C99.3072 65.6344 99.2352 65.6631 99.1514 65.6631C99.0672 65.6631 98.9968 65.6344 98.9394 65.577Z" fill="white"/>
<path d="M105.375 65.5076C105.293 65.426 105.252 65.3276 105.252 65.2128V61.2783C105.252 61.1944 105.281 61.1226 105.338 61.063C105.395 61.0034 105.466 60.9735 105.55 60.9735C105.634 60.9735 105.706 61.0034 105.765 61.063C105.825 61.1226 105.855 61.1944 105.855 61.2783V65.0272H108.021C108.104 65.0272 108.176 65.0571 108.236 65.1168C108.296 65.1762 108.325 65.2482 108.325 65.332C108.325 65.4159 108.296 65.4865 108.236 65.5439C108.176 65.6013 108.104 65.63 108.021 65.63H105.669C105.554 65.6301 105.456 65.5892 105.375 65.5076Z" fill="white"/>
<path d="M181.064 118.308C181.064 124.625 175.944 129.741 169.632 129.741C163.319 129.741 158.199 124.625 158.199 118.308C158.199 111.996 163.319 106.879 169.632 106.879C175.944 106.879 181.064 111.996 181.064 118.308Z" fill="#ADC8F7"/>
<path d="M178.168 118.309C178.168 123.025 174.345 126.845 169.632 126.845C164.918 126.845 161.095 123.025 161.095 118.309C161.095 113.596 164.918 109.776 169.632 109.776C174.345 109.776 178.168 113.596 178.168 118.309Z" fill="url(#paint54_linear_7_2486)"/>
<path d="M166.974 119.911L163.775 118.476C163.684 118.433 163.613 118.375 163.563 118.303C163.512 118.231 163.487 118.15 163.487 118.059V117.995C163.487 117.904 163.512 117.822 163.563 117.75C163.613 117.678 163.684 117.621 163.775 117.578L166.974 116.143C167.017 116.127 167.059 116.119 167.102 116.119C167.193 116.119 167.269 116.149 167.331 116.211C167.392 116.272 167.423 116.348 167.423 116.439C167.423 116.503 167.403 116.564 167.363 116.62C167.323 116.676 167.271 116.717 167.206 116.744L164.32 118.027L167.206 119.31C167.271 119.336 167.323 119.378 167.363 119.434C167.403 119.49 167.423 119.55 167.423 119.614C167.423 119.705 167.392 119.781 167.331 119.842C167.269 119.904 167.193 119.935 167.102 119.935C167.059 119.935 167.017 119.927 166.974 119.911Z" fill="white"/>
<path d="M168.333 121.065C168.272 121.001 168.241 120.924 168.241 120.833C168.241 120.8 168.249 120.76 168.265 120.712L170.389 114.499C170.411 114.435 170.448 114.382 170.501 114.339C170.555 114.296 170.622 114.275 170.702 114.275C170.798 114.275 170.877 114.307 170.938 114.371C171 114.435 171.031 114.513 171.031 114.603C171.031 114.635 171.023 114.675 171.007 114.723L168.882 120.937C168.861 121.001 168.823 121.054 168.77 121.097C168.716 121.14 168.649 121.161 168.57 121.161C168.473 121.161 168.394 121.129 168.333 121.065Z" fill="white"/>
<path d="M171.933 119.842C171.871 119.781 171.841 119.705 171.841 119.614C171.841 119.55 171.861 119.49 171.9 119.434C171.941 119.378 171.993 119.336 172.057 119.31L174.943 118.027L172.057 116.744C171.993 116.717 171.941 116.676 171.9 116.62C171.861 116.564 171.841 116.503 171.841 116.439C171.841 116.348 171.871 116.272 171.933 116.211C171.994 116.149 172.07 116.119 172.161 116.119C172.209 116.119 172.252 116.127 172.289 116.143L175.488 117.578C175.579 117.621 175.65 117.678 175.701 117.75C175.752 117.822 175.777 117.904 175.777 117.995V118.059C175.777 118.15 175.752 118.231 175.701 118.303C175.65 118.375 175.579 118.433 175.488 118.476L172.289 119.911C172.252 119.927 172.209 119.935 172.161 119.935C172.07 119.935 171.994 119.904 171.933 119.842Z" fill="white"/>
<defs>
<linearGradient id="paint0_linear_7_2486" x1="153.473" y1="85.088" x2="154.96" y2="8.33665" gradientUnits="userSpaceOnUse">
<stop stop-color="#E7ECFF"/>
<stop offset="1" stop-color="#C2D5FF"/>
</linearGradient>
<linearGradient id="paint1_linear_7_2486" x1="153.96" y1="32.8618" x2="154.147" y2="14.4528" gradientUnits="userSpaceOnUse">
<stop offset="1.1e-07" stop-color="#B3B3FF"/>
<stop offset="1" stop-color="#8F8FEA"/>
</linearGradient>
<linearGradient id="paint2_linear_7_2486" x1="143.492" y1="26.6234" x2="197.925" y2="26.6234" gradientUnits="userSpaceOnUse">
<stop stop-color="#E7ECFF"/>
<stop offset="1" stop-color="#C2D5FF"/>
</linearGradient>
<linearGradient id="paint3_linear_7_2486" x1="68.4488" y1="74.5363" x2="50.9441" y2="78.1974" gradientUnits="userSpaceOnUse">
<stop stop-color="#771E24"/>
<stop offset="1" stop-color="#47090E"/>
</linearGradient>
<linearGradient id="paint4_linear_7_2486" x1="13.304" y1="125.587" x2="146.073" y2="125.587" gradientUnits="userSpaceOnUse">
<stop stop-color="#E7ECFF"/>
<stop offset="1" stop-color="#C2D5FF"/>
</linearGradient>
<linearGradient id="paint5_linear_7_2486" x1="144.013" y1="175.972" x2="129.79" y2="140.566" gradientUnits="userSpaceOnUse">
<stop stop-color="#E7ECFF"/>
<stop offset="1" stop-color="#C2D5FF"/>
</linearGradient>
<linearGradient id="paint6_linear_7_2486" x1="122.917" y1="177.146" x2="111.37" y2="138.376" gradientUnits="userSpaceOnUse">
<stop stop-color="#E7ECFF"/>
<stop offset="1" stop-color="#C2D5FF"/>
</linearGradient>
<linearGradient id="paint7_linear_7_2486" x1="10.583" y1="186.618" x2="30.9141" y2="123.246" gradientUnits="userSpaceOnUse">
<stop stop-color="#E7ECFF"/>
<stop offset="1" stop-color="#C2D5FF"/>
</linearGradient>
<linearGradient id="paint8_linear_7_2486" x1="46.9316" y1="128.901" x2="33.9064" y2="174.772" gradientUnits="userSpaceOnUse">
<stop stop-color="#E7ECFF"/>
<stop offset="1" stop-color="#C2D5FF"/>
</linearGradient>
<linearGradient id="paint9_linear_7_2486" x1="79.6574" y1="106.716" x2="118.387" y2="116.439" gradientUnits="userSpaceOnUse">
<stop offset="3.2e-07" stop-color="#78A7FF"/>
<stop offset="1" stop-color="#3D79F3"/>
</linearGradient>
<linearGradient id="paint10_linear_7_2486" x1="103.513" y1="93.6888" x2="103.513" y2="124.452" gradientUnits="userSpaceOnUse">
<stop stop-color="#E7ECFF"/>
<stop offset="1" stop-color="#C2D5FF"/>
</linearGradient>
<linearGradient id="paint11_linear_7_2486" x1="88.7892" y1="122.045" x2="88.678" y2="125.047" gradientUnits="userSpaceOnUse">
<stop offset="3.2e-07" stop-color="#78A7FF"/>
<stop offset="1" stop-color="#3D79F3"/>
</linearGradient>
<linearGradient id="paint12_linear_7_2486" x1="111.649" y1="123.399" x2="97.6691" y2="122.497" gradientUnits="userSpaceOnUse">
<stop offset="3.2e-07" stop-color="#78A7FF"/>
<stop offset="1" stop-color="#3D79F3"/>
</linearGradient>
<linearGradient id="paint13_linear_7_2486" x1="60.538" y1="181.227" x2="76.3741" y2="181.227" gradientUnits="userSpaceOnUse">
<stop offset="3.2e-07" stop-color="#FF8888"/>
<stop offset="1" stop-color="#F24E4E"/>
</linearGradient>
<linearGradient id="paint14_linear_7_2486" x1="56.2724" y1="153.662" x2="72.5548" y2="153.662" gradientUnits="userSpaceOnUse">
<stop offset="2.2e-07" stop-color="#5C5CA0"/>
<stop offset="1" stop-color="#434389"/>
</linearGradient>
<linearGradient id="paint15_linear_7_2486" x1="50.4556" y1="151.83" x2="95.8031" y2="151.83" gradientUnits="userSpaceOnUse">
<stop offset="2.2e-07" stop-color="#5C5CA0"/>
<stop offset="1" stop-color="#434389"/>
</linearGradient>
<linearGradient id="paint16_linear_7_2486" x1="83.8393" y1="182.175" x2="99.6753" y2="182.175" gradientUnits="userSpaceOnUse">
<stop offset="3.2e-07" stop-color="#FF8888"/>
<stop offset="1" stop-color="#F24E4E"/>
</linearGradient>
<linearGradient id="paint17_linear_7_2486" x1="42.7581" y1="111.319" x2="71.0456" y2="111.319" gradientUnits="userSpaceOnUse">
<stop offset="2.2e-07" stop-color="#FFBB83"/>
<stop offset="1" stop-color="#FF9D45"/>
</linearGradient>
<linearGradient id="paint18_linear_7_2486" x1="53.8384" y1="88.2777" x2="62.7267" y2="88.5382" gradientUnits="userSpaceOnUse">
<stop offset="2.2e-07" stop-color="#FFBB83"/>
<stop offset="1" stop-color="#FF9D45"/>
</linearGradient>
<linearGradient id="paint19_linear_7_2486" x1="63.7496" y1="105.653" x2="97.3066" y2="105.653" gradientUnits="userSpaceOnUse">
<stop offset="2.2e-07" stop-color="#FFBB83"/>
<stop offset="1" stop-color="#FF9D45"/>
</linearGradient>
<linearGradient id="paint20_linear_7_2486" x1="65.4384" y1="125.703" x2="32.6919" y2="126.809" gradientUnits="userSpaceOnUse">
<stop stop-color="#E7ECFF"/>
<stop offset="1" stop-color="#C2D5FF"/>
</linearGradient>
<linearGradient id="paint21_linear_7_2486" x1="65.6421" y1="119.845" x2="45.9123" y2="122.576" gradientUnits="userSpaceOnUse">
<stop stop-color="#E7ECFF"/>
<stop offset="1" stop-color="#C2D5FF"/>
</linearGradient>
<linearGradient id="paint22_linear_7_2486" x1="59.194" y1="166.416" x2="62.7042" y2="166.416" gradientUnits="userSpaceOnUse">
<stop stop-color="#E7ECFF"/>
<stop offset="1" stop-color="#C2D5FF"/>
</linearGradient>
<linearGradient id="paint23_linear_7_2486" x1="60.9827" y1="178.599" x2="60.9441" y2="180.99" gradientUnits="userSpaceOnUse">
<stop stop-color="#E7ECFF"/>
<stop offset="1" stop-color="#C2D5FF"/>
</linearGradient>
<linearGradient id="paint24_linear_7_2486" x1="60.8307" y1="181.354" x2="60.9465" y2="184.672" gradientUnits="userSpaceOnUse">
<stop stop-color="#E7ECFF"/>
<stop offset="1" stop-color="#C2D5FF"/>
</linearGradient>
<linearGradient id="paint25_linear_7_2486" x1="63.6708" y1="77.339" x2="65.3183" y2="77.339" gradientUnits="userSpaceOnUse">
<stop stop-color="#771E24"/>
<stop offset="1" stop-color="#47090E"/>
</linearGradient>
<linearGradient id="paint26_linear_7_2486" x1="128.381" y1="121.43" x2="137.04" y2="121.43" gradientUnits="userSpaceOnUse">
<stop offset="3.2e-07" stop-color="#A7C161"/>
<stop offset="1" stop-color="#8BA53A"/>
</linearGradient>
<linearGradient id="paint27_linear_7_2486" x1="129.041" y1="121.43" x2="137.04" y2="121.43" gradientUnits="userSpaceOnUse">
<stop stop-color="#E7ECFF"/>
<stop offset="1" stop-color="#C2D5FF"/>
</linearGradient>
<linearGradient id="paint28_linear_7_2486" x1="121.425" y1="121.43" x2="129.92" y2="121.43" gradientUnits="userSpaceOnUse">
<stop offset="3.2e-07" stop-color="#A7C161"/>
<stop offset="1" stop-color="#8BA53A"/>
</linearGradient>
<linearGradient id="paint29_linear_7_2486" x1="121.425" y1="124.506" x2="130.083" y2="124.506" gradientUnits="userSpaceOnUse">
<stop offset="3.2e-07" stop-color="#FF8888"/>
<stop offset="1" stop-color="#F24E4E"/>
</linearGradient>
<linearGradient id="paint30_linear_7_2486" x1="121.425" y1="124.506" x2="129.424" y2="124.506" gradientUnits="userSpaceOnUse">
<stop stop-color="#E7ECFF"/>
<stop offset="1" stop-color="#C2D5FF"/>
</linearGradient>
<linearGradient id="paint31_linear_7_2486" x1="128.545" y1="124.506" x2="137.04" y2="124.506" gradientUnits="userSpaceOnUse">
<stop offset="3.2e-07" stop-color="#FF8888"/>
<stop offset="1" stop-color="#F24E4E"/>
</linearGradient>
<linearGradient id="paint32_linear_7_2486" x1="139.731" y1="156.533" x2="150.081" y2="156.533" gradientUnits="userSpaceOnUse">
<stop stop-color="#E7ECFF"/>
<stop offset="1" stop-color="#C2D5FF"/>
</linearGradient>
<linearGradient id="paint33_linear_7_2486" x1="127.127" y1="157.822" x2="137.476" y2="157.822" gradientUnits="userSpaceOnUse">
<stop stop-color="#E7ECFF"/>
<stop offset="1" stop-color="#C2D5FF"/>
</linearGradient>
<linearGradient id="paint34_linear_7_2486" x1="132.579" y1="149.729" x2="142.342" y2="149.729" gradientUnits="userSpaceOnUse">
<stop stop-color="#E7ECFF"/>
<stop offset="1" stop-color="#C2D5FF"/>
</linearGradient>
<linearGradient id="paint35_linear_7_2486" x1="132.301" y1="169.555" x2="144.464" y2="169.555" gradientUnits="userSpaceOnUse">
<stop stop-color="#E7ECFF"/>
<stop offset="1" stop-color="#C2D5FF"/>
</linearGradient>
<linearGradient id="paint36_linear_7_2486" x1="91.7878" y1="14.2463" x2="92.7006" y2="39.549" gradientUnits="userSpaceOnUse">
<stop stop-color="#E7ECFF"/>
<stop offset="1" stop-color="#C2D5FF"/>
</linearGradient>
<linearGradient id="paint37_linear_7_2486" x1="91.9387" y1="10.9798" x2="92.2316" y2="0.0463325" gradientUnits="userSpaceOnUse">
<stop offset="1.1e-07" stop-color="#B3B3FF"/>
<stop offset="1" stop-color="#8F8FEA"/>
</linearGradient>
<linearGradient id="paint38_linear_7_2486" x1="86.9008" y1="6.11142" x2="113.535" y2="6.11142" gradientUnits="userSpaceOnUse">
<stop stop-color="#E7ECFF"/>
<stop offset="1" stop-color="#C2D5FF"/>
</linearGradient>
<linearGradient id="paint39_linear_7_2486" x1="32.4072" y1="45.8784" x2="38.5988" y2="45.8784" gradientUnits="userSpaceOnUse">
<stop stop-color="#E7ECFF"/>
<stop offset="1" stop-color="#C2D5FF"/>
</linearGradient>
<linearGradient id="paint40_linear_7_2486" x1="57.1569" y1="43.0738" x2="57.1569" y2="49.2656" gradientUnits="userSpaceOnUse">
<stop stop-color="#E7ECFF"/>
<stop offset="1" stop-color="#C2D5FF"/>
</linearGradient>
<linearGradient id="paint41_linear_7_2486" x1="59.9618" y1="60.7612" x2="53.7698" y2="60.7612" gradientUnits="userSpaceOnUse">
<stop stop-color="#E7ECFF"/>
<stop offset="1" stop-color="#C2D5FF"/>
</linearGradient>
<linearGradient id="paint42_linear_7_2486" x1="35.2118" y1="63.5659" x2="35.2118" y2="57.3741" gradientUnits="userSpaceOnUse">
<stop stop-color="#E7ECFF"/>
<stop offset="1" stop-color="#C2D5FF"/>
</linearGradient>
<linearGradient id="paint43_linear_7_2486" x1="34.5217" y1="53.3199" x2="57.8473" y2="53.3199" gradientUnits="userSpaceOnUse">
<stop stop-color="#E7ECFF"/>
<stop offset="1" stop-color="#C2D5FF"/>
</linearGradient>
<linearGradient id="paint44_linear_7_2486" x1="5.25551" y1="70.4301" x2="11.4475" y2="70.4301" gradientUnits="userSpaceOnUse">
<stop stop-color="#E7ECFF"/>
<stop offset="1" stop-color="#C2D5FF"/>
</linearGradient>
<linearGradient id="paint45_linear_7_2486" x1="30.0054" y1="67.6251" x2="30.0054" y2="73.8167" gradientUnits="userSpaceOnUse">
<stop stop-color="#E7ECFF"/>
<stop offset="1" stop-color="#C2D5FF"/>
</linearGradient>
<linearGradient id="paint46_linear_7_2486" x1="32.81" y1="85.3124" x2="26.6184" y2="85.3124" gradientUnits="userSpaceOnUse">
<stop stop-color="#E7ECFF"/>
<stop offset="1" stop-color="#C2D5FF"/>
</linearGradient>
<linearGradient id="paint47_linear_7_2486" x1="8.06027" y1="88.117" x2="8.06027" y2="81.9252" gradientUnits="userSpaceOnUse">
<stop stop-color="#E7ECFF"/>
<stop offset="1" stop-color="#C2D5FF"/>
</linearGradient>
<linearGradient id="paint48_linear_7_2486" x1="7.3701" y1="77.871" x2="30.6957" y2="77.871" gradientUnits="userSpaceOnUse">
<stop stop-color="#E7ECFF"/>
<stop offset="1" stop-color="#C2D5FF"/>
</linearGradient>
<linearGradient id="paint49_linear_7_2486" x1="85.0232" y1="56.0646" x2="91.2148" y2="56.0646" gradientUnits="userSpaceOnUse">
<stop stop-color="#E7ECFF"/>
<stop offset="1" stop-color="#C2D5FF"/>
</linearGradient>
<linearGradient id="paint50_linear_7_2486" x1="109.773" y1="53.26" x2="109.773" y2="59.4516" gradientUnits="userSpaceOnUse">
<stop stop-color="#E7ECFF"/>
<stop offset="1" stop-color="#C2D5FF"/>
</linearGradient>
<linearGradient id="paint51_linear_7_2486" x1="112.578" y1="70.9473" x2="106.386" y2="70.9473" gradientUnits="userSpaceOnUse">
<stop stop-color="#E7ECFF"/>
<stop offset="1" stop-color="#C2D5FF"/>
</linearGradient>
<linearGradient id="paint52_linear_7_2486" x1="87.8278" y1="73.752" x2="87.8278" y2="67.5602" gradientUnits="userSpaceOnUse">
<stop stop-color="#E7ECFF"/>
<stop offset="1" stop-color="#C2D5FF"/>
</linearGradient>
<linearGradient id="paint53_linear_7_2486" x1="87.1376" y1="63.5059" x2="110.463" y2="63.5059" gradientUnits="userSpaceOnUse">
<stop stop-color="#E7ECFF"/>
<stop offset="1" stop-color="#C2D5FF"/>
</linearGradient>
<linearGradient id="paint54_linear_7_2486" x1="161.095" y1="118.31" x2="178.168" y2="118.31" gradientUnits="userSpaceOnUse">
<stop stop-color="#E7ECFF"/>
<stop offset="1" stop-color="#C2D5FF"/>
</linearGradient>
</defs>
</svg>
