<svg width="224" height="209" viewBox="0 0 224 209" fill="none" xmlns="http://www.w3.org/2000/svg">
<path d="M111.47 208.853C157.643 208.853 195.074 207.281 195.074 205.341C195.074 203.401 157.643 201.829 111.47 201.829C65.2961 201.829 27.8651 203.401 27.8651 205.341C27.8651 207.281 65.2961 208.853 111.47 208.853Z" fill="#E7ECFF"/>
<path d="M124.857 129.695C124.857 129.695 128.63 126.268 129.674 127.378C130.356 128.104 127.937 129.971 127.937 129.971C127.937 129.971 131.737 129.649 133.512 129.733C136.764 129.886 135.978 137.943 125.375 134.64L124.857 129.695Z" fill="#FDCCC5"/>
<path d="M97.9017 104.678C96.7482 105.226 94.9282 108.155 94.4188 111.553C93.5218 117.536 95.9861 130.976 101.462 134.705C106.377 138.053 125.235 134.927 125.235 134.927C126.25 134.842 125.797 129.439 124.782 129.524C124.782 129.524 110.261 129.89 106.857 126.541C103.39 123.129 104.409 112.09 102.067 107.681C101.521 106.654 98.9519 104.18 97.9017 104.678Z" fill="url(#paint0_linear_7_1600)"/>
<path d="M137.603 192.495C137.08 194.764 137.544 196.622 138.336 198.344L133.138 198.995L132.406 193.146L137.603 192.495Z" fill="#FDCCC5"/>
<path d="M149.205 200.314C149.206 200.318 149.206 200.318 149.206 200.318L149.207 200.329C149.318 200.935 149.042 201.546 148.505 201.864C147.473 202.475 145.447 203.36 142.612 203.167C138.373 202.871 134.568 203.826 133.055 204.168C132.522 204.29 132.132 203.555 131.915 202.512C131.905 202.466 131.895 202.42 131.89 202.374C131.573 200.689 131.714 198.311 132.465 197.425C132.513 197.368 132.562 197.319 132.615 197.273C132.678 197.218 132.747 197.174 132.822 197.141C133.92 196.651 136.453 199.219 137.619 197.544C137.749 197.363 137.664 197.056 137.548 196.694C137.496 196.532 137.439 196.355 137.389 196.177C137.342 196.003 137.365 195.814 137.42 195.632C137.563 195.164 138.135 194.986 138.537 195.266C138.856 195.488 139.308 195.789 139.921 196.173C140.032 196.242 140.14 196.326 140.253 196.41C140.33 196.463 140.408 196.52 140.489 196.577C140.774 196.788 141.06 196.971 141.339 197.133C141.458 197.204 141.575 197.268 141.689 197.332C141.991 197.486 142.282 197.622 142.575 197.738C142.699 197.789 142.823 197.836 142.949 197.879C145.461 198.749 147.502 198.207 148.325 198.794C148.845 199.16 149.085 199.761 149.198 200.287C149.203 200.295 149.204 200.306 149.205 200.314Z" fill="url(#paint1_linear_7_1600)"/>
<path d="M132.618 202.822C132.618 202.822 131.623 201.057 132.553 199.177C132.553 199.177 134.261 200.652 135.721 200.339C137.181 200.026 138.53 197.992 138.53 197.992C138.53 197.992 138.631 198.628 138.122 199.645C138.122 199.645 139.001 199.498 139.608 198.507C139.608 198.507 139.733 199.298 139.036 200.129C139.036 200.129 140.085 199.884 140.846 199.139C140.846 199.139 140.645 199.988 140.009 200.54C140.009 200.54 141.337 201.526 142.07 201.441L140.223 202.658L133.267 203.717L132.618 202.822Z" fill="#070159"/>
<path d="M148.507 201.865C147.474 202.474 145.446 203.359 142.614 203.165C138.373 202.869 134.57 203.825 133.054 204.17C132.523 204.29 132.13 203.553 131.915 202.513C131.906 202.467 131.897 202.421 131.89 202.373C134.233 200.986 138.06 200.697 141.219 201.678C144.677 202.75 148.308 201.467 149.196 200.315C149.199 200.313 149.201 200.313 149.204 200.315C149.206 200.318 149.204 200.318 149.204 200.318C149.206 200.321 149.206 200.326 149.206 200.329C149.32 200.935 149.043 201.548 148.507 201.865Z" fill="#070159"/>
<path d="M140.254 196.409C140.067 196.794 139.696 197.339 139.017 197.736C138.963 197.769 138.896 197.77 138.841 197.748C138.802 197.731 138.767 197.703 138.743 197.664C138.687 197.569 138.719 197.446 138.815 197.39C139.445 197.022 139.767 196.504 139.92 196.174C140.028 196.247 140.14 196.328 140.254 196.409Z" fill="white"/>
<path d="M141.69 197.33C141.49 197.698 141.075 198.273 140.313 198.645C140.259 198.672 140.201 198.672 140.149 198.651C140.105 198.632 140.066 198.599 140.045 198.553C139.996 198.455 140.037 198.333 140.137 198.285C140.806 197.958 141.17 197.449 141.34 197.134C141.458 197.206 141.574 197.268 141.69 197.33Z" fill="white"/>
<path d="M142.95 197.878C142.797 198.251 142.43 198.921 141.638 199.388C141.583 199.423 141.516 199.425 141.461 199.402C141.422 199.386 141.387 199.357 141.364 199.316C141.307 199.221 141.34 199.098 141.436 199.042C142.123 198.64 142.443 198.057 142.574 197.738C142.701 197.788 142.825 197.836 142.95 197.878Z" fill="white"/>
<path d="M137.733 197.294C137.746 197.649 137.619 198.014 137.355 198.255C137.169 198.423 136.922 198.521 136.673 198.564C136.42 198.607 136.163 198.596 135.913 198.569C135.595 198.538 135.279 198.484 134.971 198.405C134.416 198.263 133.88 198.048 133.378 197.769C133.129 197.628 132.891 197.474 132.661 197.302C132.648 197.292 132.631 197.283 132.615 197.273C132.678 197.218 132.747 197.174 132.821 197.141C133.92 196.651 136.453 199.219 137.619 197.544C137.749 197.363 137.664 197.056 137.548 196.694C137.671 196.867 137.726 197.08 137.733 197.294Z" fill="#070159"/>
<path d="M138.472 194.294C138.549 194.959 131.809 195.729 131.731 195.064L120.031 153.196L96.8639 155.86L92.348 140.372C107.389 141.216 117.944 140.308 126.672 144.917C134.479 149.04 138.472 194.294 138.472 194.294Z" fill="url(#paint2_linear_7_1600)"/>
<path d="M111.469 202.666H108.471L106.495 184.698H78.2907L76.3147 202.666H73.3158L78.2751 159.944H81.2779L78.6913 181.369H106.094L103.507 159.944H106.51L111.469 202.666Z" fill="url(#paint3_linear_7_1600)"/>
<path d="M72.0652 104.842C79.1681 107.927 55.0992 162.06 109.942 152.784C115.682 152.784 115.889 160.988 109.959 161.361C109.959 161.361 73.5551 166.402 66.2273 156.761C59.8558 148.379 58.7802 99.0715 72.0652 104.842Z" fill="url(#paint4_linear_7_1600)"/>
<path d="M113.994 158.693C113.415 160.095 112.077 161.225 109.961 161.361C109.961 161.361 73.5529 166.402 66.2279 156.762C60.1509 148.768 58.8939 103.566 70.3064 104.384C63.8993 114.196 65.6039 147.298 70.7179 154.027C77.5636 163.034 109.78 159.231 113.994 158.693Z" fill="#C2D5FF"/>
<path d="M103.74 140.914C93.2798 141.931 83.644 141.25 71.5682 140.37C74.9704 123.792 66.2784 110.224 71.4899 105.031C76.8902 99.6449 95.9546 99.7185 100.011 106.178C103.859 112.305 101.332 128.713 103.74 140.914Z" fill="url(#paint5_linear_7_1600)"/>
<path d="M85.722 120.37L89.9213 124.804L92.4273 120.37C92.0023 115.993 89.3355 110.464 86.0553 104.62C86.8602 110.648 87.1791 116.264 85.722 120.37Z" fill="white"/>
<path d="M94.0373 89.817C93.8349 96.8705 91.7075 97.4284 88.6817 97.4284V101.358L86.1466 104.912L81.2509 101.317V93.3661C80.8758 92.3886 79.6982 91.209 79.6982 89.817C79.6982 84.348 82.9116 79.9106 86.8653 79.9106C90.8289 79.9106 94.3631 78.336 94.0373 89.817Z" fill="#FDCCC5"/>
<path d="M82.0398 75.4377C78.6736 75.0918 81.0484 78.6424 81.0484 78.6424C81.0484 78.6424 74.4228 79.9339 78.3714 85.8567C78.3714 85.8567 76.6453 89.4426 79.1903 91.9978L81.3701 88.0118C81.3701 88.0118 84.8547 87.1865 82.8272 84.8146C87.9965 85.2102 90.4016 84.4755 89.4302 82.2108C89.4302 82.2108 93.4171 80.1988 94.0515 86.4114C94.0515 86.4114 96.1348 85.5949 95.7297 83.5357C95.7297 83.5357 98.464 80.9703 95.2909 80.734C95.2909 80.734 98.7799 74.3703 92.0504 75.4006C92.0504 75.4006 85.406 75.7835 82.0398 75.4377Z" fill="url(#paint6_linear_7_1600)"/>
<path d="M78.7227 89.3898C78.7188 89.3898 78.7151 89.3894 78.7112 89.389C78.656 89.3828 78.6165 89.3332 78.6226 89.2778C78.624 89.2653 78.7794 88.0175 80.1287 87.7876C81.2708 87.593 81.8846 88.3158 82.0247 88.5071L87.5535 88.8251C87.6092 88.8286 87.6514 88.8762 87.6483 88.9316C87.6451 88.987 87.6072 89.0302 87.5421 89.0263L81.9643 88.7052C81.9315 88.7033 81.9016 88.6852 81.8844 88.6573C81.8624 88.6215 81.3314 87.7848 80.1625 87.9857C78.965 88.19 78.8276 89.2554 78.8225 89.3006C78.8164 89.3517 78.7731 89.3898 78.7227 89.3898Z" fill="#47090E"/>
<path d="M91.6649 86.3131C91.5655 86.3408 91.4651 86.3741 91.3884 86.4342C91.3117 86.4943 91.2629 86.5868 91.2901 86.672C91.3272 86.7885 91.4816 86.8455 91.6204 86.8747C92.2549 87.0082 92.9583 86.885 93.4772 86.5495C93.5277 86.5169 93.5794 86.4784 93.5932 86.426C93.652 86.2034 92.8902 86.1912 92.7418 86.1864C92.3777 86.1746 92.011 86.2169 91.6649 86.3131Z" fill="url(#paint7_linear_7_1600)"/>
<path d="M87.8213 86.3131C87.7219 86.3408 87.6215 86.3741 87.5448 86.4342C87.4681 86.4943 87.4193 86.5868 87.4464 86.672C87.4836 86.7885 87.638 86.8455 87.7768 86.8747C88.4112 87.0082 89.1147 86.885 89.6336 86.5495C89.684 86.5169 89.7358 86.4784 89.7496 86.426C89.8084 86.2034 89.0466 86.1912 88.8982 86.1864C88.5342 86.1746 88.1674 86.2169 87.8213 86.3131Z" fill="url(#paint8_linear_7_1600)"/>
<path d="M79.2646 92.1415C80.0798 93.6483 81.5259 94.3125 82.4901 93.6247C83.4577 92.9345 83.5766 91.1539 82.7615 89.6472C81.9436 88.1353 80.5009 87.4687 79.5332 88.1589C78.5691 88.8466 78.4468 90.6296 79.2646 92.1415Z" fill="#FDCCC5"/>
<path d="M90.9932 92.448C90.9125 92.448 90.8315 92.4457 90.7527 92.4437L90.6297 92.4406C90.5187 92.4382 90.4303 92.3466 90.4324 92.2354C90.4346 92.1258 90.5242 92.0381 90.6336 92.0381C90.6348 92.0381 90.6362 92.0381 90.6376 92.0381L90.7639 92.0413C90.9869 92.0487 91.3986 92.0594 91.4624 91.9528C91.4894 91.9081 91.4721 91.7693 91.3343 91.5268C90.8075 90.5978 90.5715 89.6232 90.5617 89.5823C90.536 89.4742 90.6026 89.3658 90.7107 89.3398C90.8191 89.3158 90.9272 89.3807 90.9532 89.4888C90.9555 89.4982 91.1868 90.4504 91.6845 91.328C91.8881 91.6872 91.9282 91.9591 91.8074 92.16C91.658 92.4083 91.3287 92.448 90.9932 92.448Z" fill="#F7B4AD"/>
<path d="M89.9049 89.27C89.9049 89.4366 89.7687 89.573 89.602 89.573C89.4353 89.573 89.2991 89.4366 89.2991 89.27C89.2991 89.1035 89.4354 88.9672 89.602 88.9672C89.7686 88.9672 89.9049 89.1035 89.9049 89.27Z" fill="#47090E"/>
<path d="M93.5964 89.2285C93.5964 89.3951 93.4601 89.5315 93.2935 89.5315C93.1269 89.5315 92.9906 89.3951 92.9906 89.2285C92.9906 89.062 93.1269 88.9257 93.2935 88.9257C93.4601 88.9257 93.5964 89.062 93.5964 89.2285Z" fill="#47090E"/>
<path d="M90.7023 94.6908C89.9377 94.6908 89.327 94.2562 89.3169 94.2491C89.2273 94.1835 89.2077 94.0581 89.2727 93.9685C89.3376 93.8785 89.4637 93.858 89.5535 93.9237C89.6093 93.9638 90.928 94.8936 91.9667 93.6329C92.0373 93.5476 92.1644 93.5346 92.2499 93.6058C92.3357 93.6765 92.3479 93.803 92.2772 93.8891C91.77 94.5046 91.2031 94.6908 90.7023 94.6908Z" fill="#F7B4AD"/>
<path d="M92.8616 91.321C92.0355 91.321 91.3635 90.4788 91.3635 89.4432C91.3635 88.4081 92.0355 87.5659 92.8616 87.5659C93.6877 87.5659 94.3597 88.4081 94.3597 89.4432C94.3597 90.4788 93.6877 91.321 92.8616 91.321ZM92.8616 87.7671C92.1466 87.7671 91.5647 88.5189 91.5647 89.4432C91.5647 90.3676 92.1466 91.1197 92.8616 91.1197C93.5767 91.1197 94.1585 90.3675 94.1585 89.4432C94.1585 88.5189 93.5767 87.7671 92.8616 87.7671Z" fill="#47090E"/>
<path d="M88.8844 91.321C88.0584 91.321 87.3864 90.4788 87.3864 89.4432C87.3864 88.4081 88.0584 87.5659 88.8844 87.5659C89.7105 87.5659 90.3825 88.4081 90.3825 89.4432C90.3826 90.4788 89.7105 91.321 88.8844 91.321ZM88.8844 87.7671C88.1694 87.7671 87.5876 88.5189 87.5876 89.4432C87.5876 90.3676 88.1694 91.1197 88.8844 91.1197C89.5995 91.1197 90.1813 90.3675 90.1813 89.4432C90.1813 88.5189 89.5995 87.7671 88.8844 87.7671Z" fill="#47090E"/>
<path d="M91.556 88.9115C91.5374 88.9115 91.5185 88.9064 91.5016 88.8954C90.9813 88.5605 90.2409 88.8985 90.2336 88.902C90.1833 88.9252 90.1231 88.9036 90.0998 88.8533C90.0764 88.803 90.098 88.7433 90.1483 88.7197C90.1825 88.7036 90.9963 88.3298 91.6104 88.7264C91.6572 88.7562 91.6707 88.8187 91.6405 88.8655C91.6214 88.8954 91.589 88.9115 91.556 88.9115Z" fill="#47090E"/>
<path d="M88.6818 97.3992C88.6818 97.3992 86.528 97.2874 84.8879 96.2201C84.8879 96.2201 85.7842 98.2569 88.6818 98.6372V97.3992Z" fill="#F7B4AD"/>
<path d="M81.2864 101.346C81.2864 101.346 80.0331 101.052 79.7521 101.485C79.005 102.636 81.4475 106.55 82.9941 107.027C84.0454 107.352 86.1467 104.912 86.1467 104.912L81.2864 101.346Z" fill="white"/>
<path d="M88.6818 101.358C88.6818 101.358 89.9293 101.077 90.4016 101.485C91.608 102.526 91.3685 106.481 90.1095 107.027C89.2184 107.414 86.1467 104.912 86.1467 104.912L88.6818 101.358Z" fill="white"/>
<path d="M122.793 192.76C121.992 194.946 122.221 196.848 122.793 198.655H117.555V192.76H122.793Z" fill="#FDCCC5"/>
<path d="M133.333 201.961C133.333 201.965 133.333 201.965 133.333 201.965V201.976C133.368 202.591 133.018 203.163 132.446 203.412C131.345 203.89 129.225 204.516 126.436 203.972C122.267 203.151 118.373 203.626 116.829 203.777C116.284 203.832 115.989 203.054 115.903 201.992C115.899 201.945 115.895 201.899 115.895 201.852C115.79 200.14 116.226 197.799 117.082 197.013C117.136 196.963 117.191 196.92 117.249 196.881C117.319 196.834 117.393 196.799 117.471 196.776C118.622 196.426 120.816 199.289 122.181 197.772C122.333 197.608 122.286 197.293 122.216 196.92C122.185 196.752 122.15 196.57 122.123 196.387C122.098 196.209 122.144 196.024 122.221 195.85C122.421 195.404 123.011 195.298 123.375 195.625C123.664 195.886 124.075 196.241 124.635 196.698C124.737 196.78 124.834 196.877 124.935 196.974C125.005 197.036 125.075 197.103 125.149 197.169C125.406 197.414 125.666 197.632 125.923 197.826C126.032 197.911 126.141 197.989 126.246 198.067C126.526 198.258 126.798 198.429 127.074 198.581C127.191 198.647 127.308 198.709 127.428 198.767C129.813 199.942 131.905 199.658 132.648 200.343C133.119 200.77 133.282 201.397 133.329 201.933C133.333 201.941 133.333 201.953 133.333 201.961Z" fill="url(#paint9_linear_7_1600)"/>
<path d="M116.563 202.387C116.563 202.387 115.795 200.512 116.951 198.762C116.951 198.762 118.463 200.439 119.951 200.309C121.438 200.18 123.029 198.33 123.029 198.33C123.029 198.33 123.05 198.973 122.419 199.919C122.419 199.919 123.309 199.883 124.035 198.974C124.035 198.974 124.06 199.775 123.265 200.513C123.265 200.513 124.337 200.401 125.185 199.755C125.185 199.755 124.88 200.573 124.18 201.041C124.18 201.041 125.375 202.185 126.113 202.192L124.129 203.17L117.095 203.355L116.563 202.387Z" fill="#070159"/>
<path d="M132.448 203.413C131.347 203.888 129.225 204.514 126.438 203.971C122.267 203.15 118.374 203.625 116.827 203.779C116.286 203.832 115.988 203.052 115.903 201.993C115.9 201.946 115.897 201.9 115.896 201.851C118.394 200.766 122.227 200.955 125.239 202.321C128.537 203.815 132.299 202.993 133.323 201.961C133.326 201.959 133.329 201.959 133.331 201.962C133.334 201.965 133.331 201.965 133.331 201.965C133.333 201.968 133.332 201.973 133.332 201.976C133.37 202.591 133.019 203.165 132.448 203.413Z" fill="#070159"/>
<path d="M124.936 196.973C124.703 197.332 124.268 197.826 123.544 198.136C123.486 198.162 123.42 198.155 123.369 198.126C123.331 198.105 123.301 198.072 123.281 198.031C123.237 197.929 123.285 197.812 123.386 197.768C124.058 197.481 124.442 197.007 124.634 196.698C124.733 196.785 124.833 196.878 124.936 196.973Z" fill="white"/>
<path d="M126.247 198.065C126.002 198.406 125.519 198.925 124.717 199.2C124.66 199.22 124.603 199.212 124.554 199.184C124.512 199.161 124.478 199.123 124.462 199.074C124.426 198.971 124.482 198.855 124.588 198.82C125.291 198.579 125.716 198.119 125.924 197.828C126.032 197.914 126.139 197.99 126.247 198.065Z" fill="white"/>
<path d="M127.429 198.766C127.23 199.118 126.783 199.737 125.939 200.101C125.88 200.129 125.814 200.122 125.762 200.093C125.725 200.072 125.694 200.04 125.676 199.996C125.632 199.894 125.68 199.777 125.782 199.733C126.514 199.419 126.904 198.881 127.073 198.581C127.193 198.645 127.311 198.709 127.429 198.766Z" fill="white"/>
<path d="M122.325 197.538C122.294 197.892 122.123 198.238 121.831 198.445C121.625 198.588 121.368 198.655 121.115 198.666C120.859 198.678 120.606 198.635 120.361 198.577C120.05 198.507 119.742 198.413 119.447 198.297C118.914 198.087 118.408 197.807 117.945 197.468C117.716 197.297 117.498 197.114 117.292 196.916C117.28 196.904 117.265 196.893 117.249 196.881C117.319 196.834 117.393 196.799 117.471 196.776C118.622 196.426 120.816 199.289 122.181 197.772C122.333 197.608 122.286 197.293 122.216 196.92C122.317 197.107 122.345 197.324 122.325 197.538Z" fill="#070159"/>
<path d="M123.419 195.064C123.399 195.768 115.997 195.601 116.013 194.897L113.076 156.611C113.076 156.611 81.6086 159.489 75.2528 156.082C69.7762 153.149 69.3055 136.968 73.7086 138.512C89.4579 144.04 111.329 134.864 121.513 147.038C127.884 154.654 123.419 195.064 123.419 195.064Z" fill="url(#paint10_linear_7_1600)"/>
<path d="M183.619 142.286L181.421 145.621C180.737 146.661 179.575 147.287 178.33 147.287H42.8783C41.6332 147.287 40.4716 146.661 39.7867 145.621L37.5891 142.286C35.9674 139.824 37.7329 136.547 40.6806 136.547H180.528C183.475 136.547 185.241 139.824 183.619 142.286Z" fill="url(#paint11_linear_7_1600)"/>
<path d="M183.621 142.286L181.421 145.62C180.737 146.661 179.573 147.287 178.332 147.287H42.877C41.6354 147.287 40.472 146.661 39.7876 145.62L37.5878 142.286C36.9768 141.352 36.8497 140.306 37.0795 139.368C37.1772 139.759 37.3434 140.145 37.5878 140.517L39.7876 143.851C40.472 144.892 41.6354 145.517 42.877 145.517H178.332C179.573 145.517 180.737 144.892 181.421 143.851L183.621 140.517C183.865 140.145 184.032 139.759 184.129 139.368C184.359 140.306 184.232 141.352 183.621 142.286Z" fill="#ADC8F7"/>
<path d="M174.819 147.284H170.436V205.341H174.819V147.284Z" fill="url(#paint12_linear_7_1600)"/>
<path d="M161.402 147.284H157.018V205.341H161.402V147.284Z" fill="url(#paint13_linear_7_1600)"/>
<path d="M66.8235 147.284H62.4399V205.341H66.8235V147.284Z" fill="url(#paint14_linear_7_1600)"/>
<path d="M53.4063 147.284H49.0227V205.341H53.4063V147.284Z" fill="url(#paint15_linear_7_1600)"/>
<path d="M97.8385 132.422C98.6154 131.544 100.498 129.758 101.279 130.55C101.669 130.946 100.409 132.44 100.409 132.44C100.409 132.44 102.388 132.124 103.914 132.163C106.711 132.235 107.042 139.472 97.8712 136.827L97.8385 132.422Z" fill="#FDCCC5"/>
<path d="M97.6593 137.197C97.6593 137.197 76.1736 140.351 72.6149 136.731C69.4611 133.524 68.8561 119.523 68.9371 113.763C68.9991 109.48 70.6855 104.664 73.2914 103.692C77.3742 102.172 76.9693 127.183 79.6133 129.827C82.4812 132.691 97.5831 131.89 97.5831 131.89C98.2643 131.881 98.3453 137.183 97.6593 137.197Z" fill="url(#paint16_linear_7_1600)"/>
<path d="M34.9587 190.966C35.0415 189.515 34.398 187.121 33.78 185.805C33.1621 184.49 32.2734 183.313 31.2551 182.275C30.5581 181.565 29.7873 180.91 28.8898 180.48C27.9923 180.051 26.9538 179.862 25.989 180.104C25.0241 180.347 24.1562 181.064 23.8739 182.018C23.6981 182.613 23.7529 183.258 23.9329 183.851C24.3593 185.256 25.4552 186.381 26.7105 187.143C27.9658 187.905 29.3839 188.349 30.7862 188.785C32.1884 189.221 33.7019 190.207 34.9587 190.966Z" fill="url(#paint17_linear_7_1600)"/>
<path d="M37.4132 192.361C37.3304 190.91 37.974 188.516 38.5919 187.2C39.2099 185.885 40.0985 184.708 41.1169 183.67C41.8138 182.96 42.5847 182.305 43.4822 181.875C44.3796 181.446 45.4181 181.257 46.383 181.499C47.3478 181.742 48.2158 182.459 48.498 183.413C48.6739 184.008 48.6191 184.653 48.4391 185.246C48.0127 186.651 46.9168 187.776 45.6615 188.539C44.4062 189.301 42.9881 189.744 41.5858 190.18C40.1835 190.616 38.6701 191.602 37.4132 192.361Z" fill="url(#paint18_linear_7_1600)"/>
<path d="M36.9527 188.722C36.9527 188.722 49.5314 169.982 37.4889 167.669C25.7773 165.42 36.9527 188.722 36.9527 188.722Z" fill="url(#paint19_linear_7_1600)"/>
<path d="M36.0683 194.761C36.1295 194.761 36.1792 194.711 36.1792 194.65C36.1838 189.205 27.8249 182.997 27.469 182.736C27.4199 182.699 27.3503 182.71 27.3142 182.759C27.2778 182.809 27.2885 182.878 27.3379 182.914C27.4239 182.978 35.9621 189.317 35.9575 194.65C35.9575 194.711 36.0071 194.761 36.0683 194.761Z" fill="#ADC8F7"/>
<path d="M36.8118 194.624C36.8707 194.624 36.9198 194.578 36.9227 194.518C37.1407 189.864 46.0397 183.969 46.1298 183.91C46.1809 183.877 46.195 183.808 46.1615 183.757C46.1277 183.705 46.0591 183.691 46.0079 183.725C45.6372 183.968 36.9244 189.741 36.7009 194.508C36.6981 194.569 36.7454 194.621 36.8066 194.624C36.8084 194.624 36.8101 194.624 36.8118 194.624Z" fill="#ADC8F7"/>
<path d="M35.9197 194.761C35.969 194.761 36.0141 194.728 36.027 194.678C38.1756 186.418 37.3813 171.744 37.373 171.596C37.3698 171.535 37.3196 171.487 37.2561 171.492C37.1952 171.495 37.1484 171.548 37.1519 171.609C37.1599 171.756 37.9522 186.396 35.8123 194.622C35.797 194.682 35.8325 194.742 35.8917 194.757C35.9012 194.76 35.9104 194.761 35.9197 194.761Z" fill="#ADC8F7"/>
<path d="M30.5053 193.752C30.1404 193.752 29.8446 194.048 29.8446 194.412V199.287C29.8446 202.028 31.5281 204.359 33.9067 205.34C33.9943 205.376 34.0899 205.393 34.1847 205.393H38.6657C38.7605 205.393 38.856 205.376 38.9437 205.34C41.3222 204.359 43.0058 202.028 43.0058 199.287V194.412C43.0058 194.048 42.71 193.752 42.3451 193.752H30.5053Z" fill="url(#paint20_linear_7_1600)"/>
<path d="M29.8446 196.281V194.412C29.8446 194.048 30.1404 193.752 30.5052 193.752H42.345C42.7099 193.752 43.0056 194.048 43.0056 194.412V196.281H29.8446Z" fill="#78A7FF"/>
<path d="M34.0359 200.063C34.0359 201.381 35.106 202.452 36.4247 202.452C37.7461 202.452 38.8133 201.381 38.8133 200.063C38.8133 198.741 37.7461 197.671 36.4247 197.671C35.106 197.671 34.0359 198.741 34.0359 200.063Z" fill="#78A7FF"/>
<path d="M221.064 40.0528V86.1344C221.064 88.7623 218.927 90.8994 216.303 90.8994H176.526L162.08 101.052C161.115 101.73 159.788 101.04 159.788 99.8619V90.8994H146.364C143.74 90.8994 141.603 88.7622 141.603 86.1344V40.0528C141.603 37.425 143.74 35.2878 146.364 35.2878H216.303C218.927 35.2878 221.064 37.425 221.064 40.0528Z" fill="url(#paint21_linear_7_1600)"/>
<path d="M219.041 40.0514V86.1352C219.041 87.6479 217.815 88.8742 216.302 88.8742H146.366C144.853 88.8742 143.627 87.6479 143.627 86.1352V40.0514C143.627 38.5387 144.853 37.3124 146.366 37.3124H216.302C217.815 37.3123 219.041 38.5387 219.041 40.0514Z" fill="url(#paint22_linear_7_1600)"/>
<path d="M139.63 43.104C139.519 43.104 139.429 43.014 139.429 42.9028V39.6626C139.429 36.1626 142.276 33.3153 145.776 33.3153H150.359C150.47 33.3153 150.56 33.4053 150.56 33.5165C150.56 33.6277 150.47 33.7177 150.359 33.7177H145.776C142.498 33.7177 139.831 36.3846 139.831 39.6626V42.9028C139.831 43.014 139.741 43.104 139.63 43.104Z" fill="#ADC8F7"/>
<path d="M150.359 92.8714H145.776C142.276 92.8714 139.429 90.0237 139.429 86.5237V83.2835C139.429 83.1723 139.519 83.0823 139.63 83.0823C139.741 83.0823 139.831 83.1723 139.831 83.2835V86.5237C139.831 89.8021 142.498 92.469 145.776 92.469H150.359C150.47 92.469 150.56 92.559 150.56 92.6702C150.56 92.7814 150.47 92.8714 150.359 92.8714Z" fill="#ADC8F7"/>
<path d="M216.852 92.8714H212.27C212.158 92.8714 212.068 92.7814 212.068 92.6702C212.068 92.559 212.158 92.469 212.27 92.469H216.852C220.13 92.469 222.798 89.8021 222.798 86.5237V83.2835C222.798 83.1723 222.888 83.0823 222.999 83.0823C223.11 83.0823 223.2 83.1723 223.2 83.2835V86.5237C223.2 90.0237 220.352 92.8714 216.852 92.8714Z" fill="#ADC8F7"/>
<path d="M222.999 43.104C222.888 43.104 222.798 43.014 222.798 42.9028V39.6626C222.798 36.3846 220.13 33.7177 216.852 33.7177H212.27C212.158 33.7177 212.068 33.6277 212.068 33.5165C212.068 33.4053 212.158 33.3153 212.27 33.3153H216.852C220.352 33.3153 223.2 36.1626 223.2 39.6626V42.9028C223.2 43.014 223.11 43.104 222.999 43.104Z" fill="#ADC8F7"/>
<path d="M185.482 52.8754V63.6587C185.482 63.9162 185.273 64.125 185.016 64.125H181.067C180.81 64.125 180.601 63.9162 180.601 63.6587V52.8754C180.601 52.6178 180.81 52.4091 181.067 52.4091H185.016C185.273 52.4091 185.482 52.6178 185.482 52.8754Z" fill="white"/>
<path d="M193.091 57.7704V63.6587C193.091 63.9162 192.882 64.125 192.625 64.125H188.676C188.419 64.125 188.21 63.9162 188.21 63.6587V57.7704C188.21 57.5129 188.419 57.3041 188.676 57.3041H192.625C192.882 57.3041 193.091 57.5129 193.091 57.7704Z" fill="url(#paint23_linear_7_1600)"/>
<path d="M200.7 50.1935V63.6587C200.7 63.9162 200.491 64.125 200.234 64.125H196.285C196.028 64.125 195.819 63.9162 195.819 63.6587V50.1935C195.819 49.936 196.028 49.7272 196.285 49.7272H200.234C200.491 49.7272 200.7 49.9359 200.7 50.1935Z" fill="white"/>
<path d="M208.309 54.8768V63.6586C208.309 63.9162 208.1 64.125 207.843 64.125H203.894C203.636 64.125 203.428 63.9162 203.428 63.6586V54.8768C203.428 54.6193 203.637 54.4105 203.894 54.4105H207.843C208.1 54.4105 208.309 54.6193 208.309 54.8768Z" fill="url(#paint24_linear_7_1600)"/>
<path d="M215.918 59.573V63.6587C215.918 63.9162 215.709 64.125 215.452 64.125H211.503C211.245 64.125 211.037 63.9162 211.037 63.6587V59.573C211.037 59.3155 211.245 59.1067 211.503 59.1067H215.452C215.709 59.1066 215.918 59.3154 215.918 59.573Z" fill="white"/>
<path d="M159.767 75.6501V81.0576C159.767 81.4772 159.427 81.8173 159.007 81.8173H148.938C148.518 81.8173 148.178 81.4771 148.178 81.0576V75.6501C148.178 75.2305 148.518 74.8904 148.938 74.8904H159.007C159.427 74.8903 159.767 75.2305 159.767 75.6501Z" fill="white"/>
<path d="M159.765 84.379C159.765 84.8161 159.411 85.1704 158.974 85.1704H148.971C148.534 85.1704 148.18 84.8161 148.18 84.379C148.18 83.9419 148.534 83.5876 148.971 83.5876H158.974C159.411 83.5876 159.765 83.942 159.765 84.379Z" fill="white"/>
<path d="M175.729 75.6501V81.0576C175.729 81.4772 175.389 81.8173 174.969 81.8173H164.9C164.48 81.8173 164.14 81.4771 164.14 81.0576V75.6501C164.14 75.2305 164.48 74.8904 164.9 74.8904H174.969C175.389 74.8903 175.729 75.2305 175.729 75.6501Z" fill="url(#paint25_linear_7_1600)"/>
<path d="M175.728 84.379C175.728 84.8161 175.373 85.1704 174.936 85.1704H164.933C164.496 85.1704 164.142 84.8161 164.142 84.379C164.142 83.9419 164.496 83.5876 164.933 83.5876H174.936C175.373 83.5876 175.728 83.942 175.728 84.379Z" fill="url(#paint26_linear_7_1600)"/>
<path d="M191.691 75.6501V81.0576C191.691 81.4772 191.351 81.8173 190.932 81.8173H180.862C180.443 81.8173 180.103 81.4771 180.103 81.0576V75.6501C180.103 75.2305 180.443 74.8904 180.862 74.8904H190.932C191.351 74.8903 191.691 75.2305 191.691 75.6501Z" fill="url(#paint27_linear_7_1600)"/>
<path d="M191.69 84.379C191.69 84.8161 191.336 85.1704 190.899 85.1704H180.896C180.459 85.1704 180.104 84.8161 180.104 84.379C180.104 83.9419 180.459 83.5876 180.896 83.5876H190.899C191.336 83.5876 191.69 83.942 191.69 84.379Z" fill="url(#paint28_linear_7_1600)"/>
<path d="M176.873 56.4394C176.628 62.8147 171.382 67.9084 164.946 67.9084C158.35 67.9084 153.007 62.5617 153.007 55.9655C153.007 49.3732 158.35 44.0262 164.946 44.0262V49.6223C161.439 49.6223 158.603 52.4624 158.603 55.9655C158.603 59.4723 161.439 62.3126 164.946 62.3126C168.292 62.3126 171.028 59.7255 171.269 56.4394H176.873Z" fill="url(#paint29_linear_7_1600)"/>
<path d="M176.885 55.9655C176.885 56.1261 176.881 56.2827 176.873 56.4394H171.269C171.285 56.2827 171.289 56.1261 171.289 55.9655C171.289 52.4624 168.453 49.6223 164.946 49.6223V44.0262C171.542 44.0262 176.885 49.3732 176.885 55.9655Z" fill="url(#paint30_linear_7_1600)"/>
<path d="M181.31 46.028H173.961C173.918 46.028 173.877 46.0463 173.849 46.0784L170.804 49.4746C170.716 49.5721 170.786 49.7272 170.917 49.7272C170.96 49.7272 171.001 49.7089 171.029 49.6768L174.029 46.3311H181.319C181.408 46.3311 181.479 46.2545 181.469 46.1638C181.462 46.0849 181.389 46.028 181.31 46.028Z" fill="#ADC8F7"/>
<path d="M181.47 43.9685V42.2262C181.47 42.1414 181.403 42.0747 181.318 42.0747H177.449C177.367 42.0747 177.297 42.1414 177.297 42.2262V43.9685C177.297 44.0534 177.367 44.12 177.449 44.12H181.318C181.403 44.12 181.47 44.0535 181.47 43.9685Z" fill="#ADC8F7"/>
<path d="M148.78 66.1398H156.129C156.172 66.1398 156.213 66.1214 156.241 66.0893L159.286 62.6931C159.374 62.5956 159.304 62.4406 159.173 62.4406C159.13 62.4406 159.089 62.4588 159.061 62.4909L156.061 65.8366H148.771C148.682 65.8366 148.611 65.9132 148.621 66.0039C148.629 66.0828 148.701 66.1398 148.78 66.1398Z" fill="#ADC8F7"/>
<path d="M148.62 68.1992V69.9415C148.62 70.0263 148.687 70.093 148.772 70.093H152.641C152.723 70.093 152.793 70.0263 152.793 69.9415V68.1992C152.793 68.1143 152.723 68.0477 152.641 68.0477H148.772C148.687 68.0477 148.62 68.1143 148.62 68.1992Z" fill="#ADC8F7"/>
<path d="M212.27 71.082V72.6848C212.27 72.9114 212.086 73.095 211.859 73.095H201.967C201.741 73.095 201.557 72.9114 201.557 72.6848V71.082C201.557 70.8554 201.741 70.6718 201.967 70.6718H211.859C212.086 70.6718 212.27 70.8554 212.27 71.082Z" fill="url(#paint31_linear_7_1600)"/>
<path d="M215.918 76.4058C215.918 76.8367 215.568 77.1861 215.137 77.1861H198.689C198.258 77.1861 197.909 76.8367 197.909 76.4058C197.909 75.9748 198.258 75.6254 198.689 75.6254H215.137C215.568 75.6254 215.918 75.9748 215.918 76.4058Z" fill="white"/>
<path d="M215.918 80.4968C215.918 80.9278 215.568 81.2772 215.137 81.2772H198.689C198.258 81.2772 197.909 80.9278 197.909 80.4968C197.909 80.0658 198.258 79.7164 198.689 79.7164H215.137C215.568 79.7165 215.918 80.0659 215.918 80.4968Z" fill="white"/>
<path d="M215.918 84.588C215.918 85.019 215.568 85.3684 215.137 85.3684H198.689C198.258 85.3684 197.909 85.019 197.909 84.588C197.909 84.157 198.258 83.8076 198.689 83.8076H215.137C215.568 83.8076 215.918 84.157 215.918 84.588Z" fill="white"/>
<path d="M213.477 53.4893C213.387 53.4893 213.296 53.4591 213.22 53.3966C213.166 53.3518 207.791 48.9027 205.691 47.8719C202.087 46.1031 199.35 45.2809 197.988 45.5528C196.913 45.7686 195.785 47.1653 194.694 48.5164C193.448 50.0589 192.159 51.6544 190.697 51.8238C188.437 52.0879 183.373 48.415 182.803 47.9957C182.624 47.8636 182.586 47.6117 182.717 47.4329C182.849 47.2538 183.101 47.216 183.28 47.3473C184.758 48.4351 188.957 51.2053 190.604 51.0245C191.74 50.8928 192.923 49.4273 194.068 48.0106C195.303 46.4811 196.47 45.0368 197.83 44.7637C199.798 44.3691 203.384 45.8437 206.046 47.1496C208.231 48.2221 213.51 52.5918 213.734 52.7773C213.905 52.9192 213.929 53.1726 213.787 53.344C213.708 53.4398 213.593 53.4893 213.477 53.4893Z" fill="url(#paint32_linear_7_1600)"/>
<path d="M166.864 108.173L160.411 136.095C160.017 137.803 158.496 139.012 156.743 139.012H112.814C110.393 139.012 108.601 136.759 109.146 134.399L115.599 106.478C115.994 104.77 117.515 103.561 119.267 103.561H163.196C165.617 103.56 167.409 105.814 166.864 108.173Z" fill="url(#paint33_linear_7_1600)"/>
<path d="M119.266 103.559C117.513 103.559 115.994 104.771 115.599 106.475L109.147 134.397C108.598 136.76 110.395 139.013 112.814 139.013H86.785V137.032C86.785 135.289 88.1948 133.879 89.9382 133.879H106.798L113.131 106.475C113.526 104.771 115.045 103.559 116.798 103.559H119.266Z" fill="url(#paint34_linear_7_1600)"/>
<path d="M142.509 121.551C142.106 123.616 140.123 125.293 138.08 125.293C136.038 125.293 134.707 123.616 135.111 121.551C135.514 119.485 137.499 117.811 139.541 117.811C141.584 117.811 142.912 119.485 142.509 121.551Z" fill="#ADC8F7"/>
<path d="M58.9276 135.197C58.9276 136.418 57.9374 137.409 56.716 137.409H46.4786V132.985H56.716C57.9374 132.985 58.9276 133.975 58.9276 135.197Z" fill="url(#paint35_linear_7_1600)"/>
<path d="M57.9796 135.197C57.9796 136.024 57.3087 136.695 56.4813 136.695H46.4786V133.698H56.4812C57.3087 133.699 57.9796 134.369 57.9796 135.197Z" fill="white"/>
<path d="M68.9303 135.197C68.9303 136.417 67.9389 137.409 66.7186 137.409H56.7159C57.9362 137.409 58.9277 136.417 58.9277 135.197C58.9277 133.977 57.9362 132.985 56.7159 132.985H66.7186C67.9388 132.985 68.9303 133.977 68.9303 135.197Z" fill="url(#paint36_linear_7_1600)"/>
<path d="M56.4812 139.62C56.4812 140.842 57.4714 141.832 58.6929 141.832H68.9302V137.409H58.6929C57.4714 137.409 56.4812 138.399 56.4812 139.62Z" fill="url(#paint37_linear_7_1600)"/>
<path d="M57.4293 139.62C57.4293 140.448 58.1002 141.119 58.9276 141.119H68.9302V138.122H58.9276C58.1002 138.122 57.4293 138.793 57.4293 139.62Z" fill="white"/>
<path d="M46.4786 139.62C46.4786 140.84 47.4701 141.832 48.6904 141.832H58.693C57.4727 141.832 56.4812 140.84 56.4812 139.62C56.4812 138.4 57.4727 137.409 58.693 137.409H48.6904C47.4701 137.409 46.4786 138.4 46.4786 139.62Z" fill="url(#paint38_linear_7_1600)"/>
<path d="M122.08 55.6428V58.0341C122.08 58.5734 121.643 59.0106 121.104 59.0106H83.515C82.9756 59.0106 82.5385 58.5734 82.5385 58.0341V55.6428C82.5385 55.1034 82.9756 54.6663 83.515 54.6663H121.104C121.643 54.6663 122.08 55.1034 122.08 55.6428Z" fill="url(#paint39_linear_7_1600)"/>
<path d="M91.9257 35.8766V54.0142C91.9257 54.3738 91.6317 54.6678 91.272 54.6678H85.617C85.2573 54.6678 84.9633 54.3738 84.9633 54.0142V35.8766C84.9633 35.517 85.2573 35.2229 85.617 35.2229H91.272C91.6317 35.2229 91.9257 35.517 91.9257 35.8766Z" fill="url(#paint40_linear_7_1600)"/>
<path d="M91.9257 38.3979H84.9633V39.9474H91.9257V38.3979Z" fill="#B3B3FF"/>
<path d="M90.186 42.7613V51.6466C90.186 51.852 90.0195 52.0185 89.8141 52.0185H87.0749C86.8695 52.0185 86.703 51.852 86.703 51.6466V42.7613C86.703 42.5559 86.8695 42.3894 87.0749 42.3894H89.8141C90.0195 42.3895 90.186 42.5559 90.186 42.7613Z" fill="#B3B3FF"/>
<path d="M98.0299 38.1927V54.0948C98.0299 54.4101 97.7722 54.6679 97.4568 54.6679H92.4988C92.1834 54.6679 91.9257 54.4101 91.9257 54.0948V38.1927C91.9257 37.8774 92.1834 37.6196 92.4988 37.6196H97.4568C97.7722 37.6197 98.0299 37.8774 98.0299 38.1927Z" fill="url(#paint41_linear_7_1600)"/>
<path d="M98.0299 40.4034H91.9257V41.7619H98.0299V40.4034Z" fill="#B3B3FF"/>
<path d="M96.3706 51.5304C96.3706 52.2998 95.7491 52.9212 94.9797 52.9212C94.2104 52.9212 93.5851 52.2998 93.5851 51.5304C93.5851 50.7611 94.2104 50.1357 94.9797 50.1357C95.7491 50.1357 96.3706 50.7611 96.3706 51.5304Z" fill="#B3B3FF"/>
<path d="M96.3706 47.5385C96.3706 48.3078 95.7491 48.9293 94.9797 48.9293C94.2104 48.9293 93.5851 48.3078 93.5851 47.5385C93.5851 46.7691 94.2104 46.1438 94.9797 46.1438C95.7491 46.1438 96.3706 46.7691 96.3706 47.5385Z" fill="#B3B3FF"/>
<path d="M104.992 35.8766V54.0142C104.992 54.3738 104.698 54.6678 104.339 54.6678H98.6836C98.3239 54.6678 98.0299 54.3738 98.0299 54.0142V35.8766C98.0299 35.517 98.3239 35.2229 98.6836 35.2229H104.339C104.698 35.2229 104.992 35.517 104.992 35.8766Z" fill="url(#paint42_linear_7_1600)"/>
<path d="M104.992 37.4933H98.0299V39.0428H104.992V37.4933Z" fill="#B3B3FF"/>
<path d="M104.992 50.8479H98.0299V52.3974H104.992V50.8479Z" fill="#B3B3FF"/>
<path d="M102.981 44.9454C102.981 46.9687 102.324 48.6082 101.511 48.6082C100.698 48.6082 100.041 46.9687 100.041 44.9454C100.041 42.922 100.698 41.2826 101.511 41.2826C102.324 41.2826 102.981 42.922 102.981 44.9454Z" fill="#B3B3FF"/>
<path d="M117.453 45.2772C117.267 45.8668 117.013 46.5378 116.523 47.0483C116.246 47.34 115.909 47.5484 115.544 47.6504C115.404 47.6922 115.275 47.7067 115.152 47.7067C114.99 47.7067 114.836 47.6818 114.679 47.6546C114.619 47.6463 114.556 47.6359 114.494 47.6254C114.221 47.588 113.95 47.5755 113.685 47.5629C113.123 47.5359 112.541 47.5088 111.966 47.2254C111.633 47.0607 111.406 46.8629 111.268 46.6232C111.014 46.1732 111.112 45.6459 111.243 45.1001C111.358 44.6207 111.452 44.1187 111.222 43.7331C111.158 43.6247 111.07 43.5289 110.977 43.4289C110.862 43.306 110.745 43.1809 110.668 43.0225C110.537 42.7537 110.529 42.4204 110.641 41.9994C110.668 41.9036 110.697 41.8099 110.727 41.7161C110.795 41.4973 110.86 41.2931 110.879 41.0784C110.904 40.7722 110.829 40.4554 110.758 40.1513L110.749 40.1158C110.668 39.7657 110.597 39.424 110.647 39.0822C110.693 38.7614 110.881 38.3634 111.266 38.2155C111.627 38.0737 112.085 38.2009 112.489 38.5509C112.694 38.728 112.873 38.9384 113.048 39.1406C113.363 39.5073 113.66 39.8554 114.081 40.0137C114.19 40.0554 114.302 40.0825 114.423 40.1117C114.657 40.1679 114.898 40.2262 115.094 40.3888C115.43 40.668 115.486 41.143 115.5 41.4764L115.505 41.6286C115.515 41.937 115.525 42.2558 115.667 42.5141C115.842 42.8309 116.18 43.0122 116.536 43.2059C116.934 43.4206 117.347 43.6435 117.52 44.0749C117.672 44.4561 117.578 44.8792 117.453 45.2772Z" fill="url(#paint43_linear_7_1600)"/>
<path d="M115.911 44.4373C115.921 44.3807 115.884 44.3265 115.828 44.3157C115.772 44.3051 115.717 44.3419 115.706 44.3987C115.704 44.4098 115.489 45.4748 114.555 46.0903C114.476 45.7299 114.387 45.3717 114.291 45.0184C114.291 45.0161 114.291 45.0139 114.291 45.0114C114.29 45.0017 114.285 44.9933 114.281 44.9847C114.228 44.789 114.172 44.5951 114.115 44.403C114.748 43.7649 114.78 42.8322 114.781 42.7918C114.782 42.7344 114.737 42.6866 114.679 42.6852C114.613 42.6868 114.574 42.7293 114.573 42.7867C114.572 42.7954 114.545 43.597 114.045 44.1737C113.955 43.881 113.862 43.5942 113.767 43.3144C113.766 43.3119 113.767 43.3095 113.767 43.307C113.764 43.2919 113.758 43.2786 113.75 43.2668C113.689 43.0873 113.627 42.91 113.564 42.7372C114.062 42.0386 114.019 41.1093 114.016 41.0692C114.013 41.0119 113.974 40.9677 113.907 40.9709C113.849 40.974 113.805 41.023 113.808 41.0806C113.809 41.089 113.844 41.8698 113.475 42.4936C113.416 42.3349 113.357 42.1788 113.299 42.0274C113.298 42.0226 113.298 42.0179 113.297 42.0132C113.294 42.0065 113.29 42.0014 113.286 41.9954C113.196 41.7618 113.106 41.5377 113.018 41.324C113.399 40.8199 113.306 40.1142 113.302 40.0835C113.294 40.0265 113.242 39.9876 113.184 39.995C113.127 40.0031 113.087 40.0558 113.095 40.1128C113.096 40.1188 113.169 40.6654 112.923 41.0924C112.861 40.9463 112.802 40.8081 112.744 40.674C112.742 40.6647 112.738 40.6565 112.733 40.6485C112.283 39.6114 111.941 38.9521 111.932 38.9339C111.905 38.8831 111.842 38.8638 111.791 38.89C111.74 38.9169 111.72 38.9797 111.747 39.0308C111.756 39.0478 112.064 39.6405 112.479 40.585C111.703 40.4905 111.428 39.8618 111.415 39.8334C111.393 39.7805 111.331 39.7558 111.279 39.778C111.226 39.8002 111.201 39.8611 111.223 39.914C111.238 39.9488 111.584 40.7455 112.572 40.8005C112.725 41.1537 112.889 41.5492 113.056 41.9773C112.282 42.1468 111.731 41.2023 111.725 41.1923C111.697 41.142 111.633 41.1248 111.583 41.1532C111.533 41.1815 111.515 41.245 111.544 41.2951C111.55 41.3057 112.072 42.2104 112.866 42.2104C112.951 42.2104 113.041 42.1955 113.132 42.1725C113.262 42.5101 113.392 42.8658 113.52 43.2355C112.596 43.3144 111.927 42.5111 111.92 42.5027C111.884 42.458 111.818 42.4517 111.774 42.4877C111.729 42.5241 111.722 42.5896 111.759 42.6342C111.788 42.6708 112.436 43.4522 113.387 43.4522C113.453 43.4522 113.521 43.4469 113.59 43.4388C113.753 43.9198 113.909 44.4219 114.052 44.936C112.999 45.0318 112.26 44.2656 112.252 44.2576C112.212 44.2157 112.147 44.2136 112.105 44.2533C112.063 44.2926 112.061 44.3585 112.1 44.4004C112.132 44.4342 112.823 45.156 113.863 45.156C113.943 45.156 114.025 45.15 114.109 45.1407C114.255 45.6833 114.384 46.2373 114.487 46.7918C113.333 47.0976 112.26 46.0714 112.249 46.0609C112.208 46.021 112.142 46.0218 112.102 46.0625C112.061 46.1038 112.062 46.1697 112.103 46.2098C112.145 46.2507 112.99 47.0625 114.038 47.0625C114.195 47.0625 114.358 47.0427 114.524 47.0004C114.606 47.4753 114.669 47.9495 114.705 48.4161C114.709 48.4708 114.755 48.5123 114.809 48.5123C114.812 48.5123 114.814 48.5123 114.817 48.5119C114.874 48.5076 114.917 48.4576 114.913 48.4002C114.873 47.889 114.802 47.3685 114.708 46.848C114.707 46.8442 114.708 46.8404 114.707 46.8366C114.707 46.8359 114.706 46.8355 114.706 46.8349C114.674 46.6587 114.64 46.4826 114.603 46.3067C115.669 45.6504 115.902 44.4876 115.911 44.4373Z" fill="#C2D5FF"/>
<path d="M121.822 41.8307C121.729 42.0202 121.587 42.1724 121.449 42.3182C121.335 42.4433 121.226 42.56 121.145 42.6954C120.862 43.1726 120.976 43.7894 121.118 44.3791C121.276 45.0396 121.395 45.6772 121.089 46.221C120.928 46.5044 120.645 46.7481 120.249 46.9441C119.899 47.1169 119.549 47.2108 119.199 47.267C118.851 47.3233 118.503 47.34 118.161 47.3545C117.838 47.3692 117.507 47.3858 117.174 47.4317C117.094 47.442 117.019 47.4546 116.946 47.4671C116.755 47.4983 116.569 47.5296 116.373 47.5296C116.225 47.5296 116.069 47.5109 115.902 47.463C115.463 47.3379 115.052 47.0858 114.717 46.7358C114.123 46.1148 113.815 45.3001 113.59 44.5833C113.44 44.102 113.325 43.5914 113.508 43.133C113.715 42.6141 114.215 42.3433 114.696 42.0828C115.136 41.8474 115.548 41.6223 115.765 41.2305C115.942 40.9117 115.952 40.52 115.965 40.1407L115.971 39.9553C115.988 39.5531 116.059 38.9801 116.459 38.6467C116.694 38.4509 116.986 38.38 117.267 38.3133C117.409 38.2779 117.555 38.2425 117.688 38.1925C118.207 37.9966 118.572 37.5715 118.957 37.1215C119.17 36.8756 119.388 36.6192 119.636 36.4047C120.122 35.9816 120.672 35.8295 121.105 35.9983C121.566 36.1775 121.789 36.6526 121.845 37.0381C121.903 37.4507 121.82 37.8653 121.72 38.2904L121.71 38.3321C121.622 38.7071 121.533 39.0926 121.564 39.4698C121.585 39.7344 121.664 39.9866 121.749 40.2554C121.785 40.3679 121.82 40.4825 121.851 40.5971C121.989 41.1056 121.981 41.5076 121.822 41.8307Z" fill="url(#paint44_linear_7_1600)"/>
<path d="M121.144 38.0404C121.166 37.9875 121.141 37.9266 121.088 37.9042C121.035 37.8827 120.974 37.9069 120.951 37.96C120.936 37.9957 120.586 38.7935 119.597 38.8939C120.112 37.7202 120.495 36.9826 120.506 36.9617C120.532 36.9106 120.513 36.8477 120.462 36.8208C120.411 36.7952 120.348 36.8141 120.321 36.8648C120.309 36.8868 119.892 37.6905 119.344 38.9547C119.338 38.9638 119.334 38.9733 119.331 38.9841C119.255 39.1603 119.177 39.3438 119.096 39.5368C118.765 39.0051 118.858 38.2961 118.859 38.2882C118.867 38.2312 118.827 38.1787 118.77 38.1706C118.714 38.1639 118.661 38.2023 118.653 38.2591C118.647 38.2965 118.534 39.1579 119.002 39.7654C118.893 40.0297 118.782 40.3066 118.67 40.5959C118.666 40.6027 118.66 40.6089 118.658 40.617C118.656 40.6226 118.656 40.6282 118.655 40.6339C118.578 40.8334 118.501 41.0394 118.423 41.249C117.942 40.4753 117.989 39.4816 117.989 39.4709C117.992 39.4136 117.948 39.3643 117.891 39.3612C117.828 39.359 117.784 39.4021 117.781 39.4595C117.779 39.5082 117.725 40.6425 118.335 41.4891C118.257 41.7046 118.18 41.9258 118.103 42.1499C118.094 42.162 118.088 42.1757 118.085 42.1912C118.085 42.1945 118.086 42.1977 118.085 42.2011C117.965 42.5551 117.846 42.9183 117.733 43.2893C117.092 42.5772 117.057 41.5642 117.057 41.5534C117.056 41.4969 117.009 41.4519 116.953 41.4519C116.952 41.4519 116.951 41.4519 116.95 41.4519C116.893 41.4534 116.847 41.5012 116.849 41.5585C116.85 41.6077 116.888 42.7452 117.664 43.5176C117.593 43.7549 117.524 43.9947 117.458 44.2367C117.452 44.2468 117.448 44.2574 117.446 44.2694C117.445 44.2725 117.447 44.2754 117.446 44.2785C117.326 44.7199 117.216 45.1678 117.116 45.6184C115.946 44.865 115.678 43.5366 115.675 43.5228C115.664 43.466 115.609 43.4288 115.554 43.4397C115.497 43.4505 115.46 43.5049 115.47 43.5614C115.482 43.6225 115.766 45.0414 117.069 45.835C117.022 46.0549 116.98 46.2752 116.94 46.4955C116.94 46.4968 116.939 46.4975 116.938 46.4988C116.936 46.5058 116.937 46.5128 116.936 46.5199C116.822 47.1505 116.736 47.7809 116.688 48.4004C116.684 48.4578 116.727 48.5078 116.784 48.5121C116.787 48.5125 116.79 48.5125 116.792 48.5125C116.846 48.5125 116.892 48.471 116.896 48.4162C116.94 47.8386 117.019 47.251 117.122 46.6627C117.33 46.7183 117.535 46.7444 117.733 46.7444C119.001 46.7444 120.025 45.7605 120.076 45.7111C120.117 45.671 120.118 45.6051 120.077 45.5638C120.037 45.5231 119.972 45.5223 119.93 45.5622C119.917 45.5753 118.586 46.8469 117.159 46.4541C117.286 45.7639 117.447 45.074 117.629 44.3988C117.737 44.4115 117.843 44.4194 117.946 44.4194C119.204 44.4194 120.04 43.546 120.079 43.5051C120.118 43.4632 120.116 43.3973 120.074 43.3578C120.032 43.3185 119.967 43.3204 119.927 43.3623C119.918 43.3724 118.995 44.3269 117.686 44.1943C117.864 43.5513 118.06 42.9238 118.263 42.3233C118.353 42.3344 118.441 42.3418 118.526 42.3418C119.675 42.3418 120.458 41.3966 120.494 41.3524C120.53 41.3079 120.524 41.2423 120.479 41.2059C120.435 41.1699 120.369 41.1762 120.332 41.221C120.324 41.2316 119.487 42.2347 118.333 42.1198C118.494 41.6521 118.66 41.2022 118.823 40.7766C118.939 40.8077 119.053 40.827 119.161 40.827C120.116 40.827 120.747 39.7353 120.754 39.7225C120.783 39.6724 120.765 39.6089 120.715 39.5805C120.665 39.5519 120.601 39.5693 120.573 39.62C120.566 39.6327 119.875 40.8227 118.899 40.5816C119.109 40.0448 119.314 39.5497 119.504 39.1087C120.706 39.048 121.139 38.0507 121.144 38.0404Z" fill="#C2D5FF"/>
<path d="M119.222 48.6152V51.649C119.222 52.7805 118.676 53.8558 117.759 54.5266C117.634 54.6183 117.48 54.6662 117.313 54.6662H113.998C113.825 54.6662 113.658 54.6101 113.515 54.5016C112.606 53.8203 112.085 52.7805 112.085 51.649V48.6151C112.085 48.4443 112.225 48.3047 112.396 48.3047H118.911C119.082 48.3047 119.222 48.4443 119.222 48.6152Z" fill="url(#paint45_linear_7_1600)"/>
<path d="M119.222 50.0655V51.2303C119.222 51.2886 119.176 51.3345 119.118 51.3345H112.189C112.133 51.3345 112.085 51.2886 112.085 51.2303V50.0655C112.085 50.0093 112.133 49.9613 112.189 49.9613H119.118C119.176 49.9613 119.222 50.0093 119.222 50.0655Z" fill="#B3B3FF"/>
<path d="M66.0147 46.7335V96.402C66.0147 97.6009 65.0428 98.5728 63.8439 98.5728H19.0364C17.8375 98.5728 16.8656 97.6009 16.8656 96.402V46.7335C16.8656 45.5346 17.8375 44.5627 19.0364 44.5627H63.8439C65.0428 44.5627 66.0147 45.5346 66.0147 46.7335Z" fill="#E7ECFF"/>
<path d="M62.9643 49.1775V93.9582C62.9643 94.7921 62.2859 95.4705 61.452 95.4705H21.4284C20.5945 95.4705 19.9161 94.7921 19.9161 93.9582V49.1775C19.9161 48.3435 20.5945 47.6652 21.4284 47.6652H61.452C62.2859 47.6652 62.9643 48.3435 62.9643 49.1775Z" fill="url(#paint46_linear_7_1600)"/>
<g opacity="0.4">
<path d="M62.9644 49.7046V53.9648L29.2923 95.4705H25.8357L62.9644 49.7046Z" fill="white"/>
<path d="M62.9643 58.3677V68.2494L40.8807 95.4704H32.8656L62.9643 58.3677Z" fill="white"/>
<path d="M62.9644 77.2454V81.5057L51.6352 95.4705H48.1786L62.9644 77.2454Z" fill="white"/>
<path d="M31.6125 47.6652L19.9161 62.0836V52.202L23.5975 47.6652H31.6125Z" fill="white"/>
<path d="M42.3714 47.6652L19.9161 75.3485V71.0839L38.9147 47.6652H42.3714Z" fill="white"/>
</g>
<path d="M66.0804 69.8796H42.7162V45.7085H39.3397V69.8796H16.8V73.256H39.3397V97.1895H42.7162V73.256H66.0804V69.8796Z" fill="#E7ECFF"/>
<defs>
<linearGradient id="paint0_linear_7_1600" x1="93.0413" y1="115.604" x2="127.564" y2="135.597" gradientUnits="userSpaceOnUse">
<stop offset="2.2e-07" stop-color="#FC6865"/>
<stop offset="1" stop-color="#F24E4E"/>
</linearGradient>
<linearGradient id="paint1_linear_7_1600" x1="131.62" y1="200.348" x2="148.94" y2="198.178" gradientUnits="userSpaceOnUse">
<stop offset="3.2e-07" stop-color="#78A7FF"/>
<stop offset="1" stop-color="#3D79F3"/>
</linearGradient>
<linearGradient id="paint2_linear_7_1600" x1="137.076" y1="166.309" x2="98.2021" y2="168.779" gradientUnits="userSpaceOnUse">
<stop stop-color="#771E24"/>
<stop offset="1" stop-color="#47090E"/>
</linearGradient>
<linearGradient id="paint3_linear_7_1600" x1="92.1426" y1="207.946" x2="93.5996" y2="177.177" gradientUnits="userSpaceOnUse">
<stop stop-color="#E7ECFF"/>
<stop offset="1" stop-color="#C2D5FF"/>
</linearGradient>
<linearGradient id="paint4_linear_7_1600" x1="61.6648" y1="133.526" x2="114.327" y2="133.526" gradientUnits="userSpaceOnUse">
<stop stop-color="#E7ECFF"/>
<stop offset="1" stop-color="#C2D5FF"/>
</linearGradient>
<linearGradient id="paint5_linear_7_1600" x1="84.8679" y1="112.807" x2="90.1267" y2="151.395" gradientUnits="userSpaceOnUse">
<stop offset="2.2e-07" stop-color="#FC6865"/>
<stop offset="1" stop-color="#F24E4E"/>
</linearGradient>
<linearGradient id="paint6_linear_7_1600" x1="96.8247" y1="83.6428" x2="77.1157" y2="83.6428" gradientUnits="userSpaceOnUse">
<stop stop-color="#771E24"/>
<stop offset="1" stop-color="#47090E"/>
</linearGradient>
<linearGradient id="paint7_linear_7_1600" x1="91.2824" y1="86.556" x2="93.5964" y2="86.556" gradientUnits="userSpaceOnUse">
<stop stop-color="#771E24"/>
<stop offset="1" stop-color="#47090E"/>
</linearGradient>
<linearGradient id="paint8_linear_7_1600" x1="87.4388" y1="86.556" x2="89.7529" y2="86.556" gradientUnits="userSpaceOnUse">
<stop stop-color="#771E24"/>
<stop offset="1" stop-color="#47090E"/>
</linearGradient>
<linearGradient id="paint9_linear_7_1600" x1="115.88" y1="199.809" x2="133.335" y2="199.809" gradientUnits="userSpaceOnUse">
<stop offset="3.2e-07" stop-color="#78A7FF"/>
<stop offset="1" stop-color="#3D79F3"/>
</linearGradient>
<linearGradient id="paint10_linear_7_1600" x1="97.3369" y1="169.732" x2="98.8404" y2="135.261" gradientUnits="userSpaceOnUse">
<stop stop-color="#771E24"/>
<stop offset="1" stop-color="#47090E"/>
</linearGradient>
<linearGradient id="paint11_linear_7_1600" x1="110.405" y1="134.991" x2="110.823" y2="146.072" gradientUnits="userSpaceOnUse">
<stop stop-color="#E7ECFF"/>
<stop offset="1" stop-color="#C2D5FF"/>
</linearGradient>
<linearGradient id="paint12_linear_7_1600" x1="174.248" y1="151.468" x2="171.545" y2="192.919" gradientUnits="userSpaceOnUse">
<stop stop-color="#E7ECFF"/>
<stop offset="1" stop-color="#C2D5FF"/>
</linearGradient>
<linearGradient id="paint13_linear_7_1600" x1="160.831" y1="151.468" x2="158.127" y2="192.919" gradientUnits="userSpaceOnUse">
<stop stop-color="#E7ECFF"/>
<stop offset="1" stop-color="#C2D5FF"/>
</linearGradient>
<linearGradient id="paint14_linear_7_1600" x1="66.252" y1="151.468" x2="63.5487" y2="192.919" gradientUnits="userSpaceOnUse">
<stop stop-color="#E7ECFF"/>
<stop offset="1" stop-color="#C2D5FF"/>
</linearGradient>
<linearGradient id="paint15_linear_7_1600" x1="52.8348" y1="151.468" x2="50.1315" y2="192.919" gradientUnits="userSpaceOnUse">
<stop stop-color="#E7ECFF"/>
<stop offset="1" stop-color="#C2D5FF"/>
</linearGradient>
<linearGradient id="paint16_linear_7_1600" x1="84.5356" y1="104.164" x2="82.8302" y2="138.59" gradientUnits="userSpaceOnUse">
<stop offset="2.2e-07" stop-color="#FC6865"/>
<stop offset="1" stop-color="#F24E4E"/>
</linearGradient>
<linearGradient id="paint17_linear_7_1600" x1="34.9659" y1="185.482" x2="23.7666" y2="185.482" gradientUnits="userSpaceOnUse">
<stop stop-color="#E7ECFF"/>
<stop offset="1" stop-color="#C2D5FF"/>
</linearGradient>
<linearGradient id="paint18_linear_7_1600" x1="48.6054" y1="186.877" x2="37.406" y2="186.877" gradientUnits="userSpaceOnUse">
<stop stop-color="#E7ECFF"/>
<stop offset="1" stop-color="#C2D5FF"/>
</linearGradient>
<linearGradient id="paint19_linear_7_1600" x1="42.7055" y1="178.119" x2="32.141" y2="178.119" gradientUnits="userSpaceOnUse">
<stop stop-color="#E7ECFF"/>
<stop offset="1" stop-color="#C2D5FF"/>
</linearGradient>
<linearGradient id="paint20_linear_7_1600" x1="43.0057" y1="199.573" x2="29.8446" y2="199.573" gradientUnits="userSpaceOnUse">
<stop stop-color="#E7ECFF"/>
<stop offset="1" stop-color="#C2D5FF"/>
</linearGradient>
<linearGradient id="paint21_linear_7_1600" x1="141.603" y1="68.3037" x2="221.064" y2="68.3037" gradientUnits="userSpaceOnUse">
<stop offset="3.2e-07" stop-color="#78A7FF"/>
<stop offset="1" stop-color="#3D79F3"/>
</linearGradient>
<linearGradient id="paint22_linear_7_1600" x1="180.963" y1="85.5276" x2="182.145" y2="14.0512" gradientUnits="userSpaceOnUse">
<stop stop-color="#E7ECFF"/>
<stop offset="1" stop-color="#C2D5FF"/>
</linearGradient>
<linearGradient id="paint23_linear_7_1600" x1="188.21" y1="60.7145" x2="193.091" y2="60.7145" gradientUnits="userSpaceOnUse">
<stop offset="1.1e-07" stop-color="#B3B3FF"/>
<stop offset="1" stop-color="#C2D5FF"/>
</linearGradient>
<linearGradient id="paint24_linear_7_1600" x1="203.428" y1="59.2677" x2="208.309" y2="59.2677" gradientUnits="userSpaceOnUse">
<stop offset="1.1e-07" stop-color="#B3B3FF"/>
<stop offset="1" stop-color="#C2D5FF"/>
</linearGradient>
<linearGradient id="paint25_linear_7_1600" x1="164.14" y1="78.3538" x2="175.729" y2="78.3538" gradientUnits="userSpaceOnUse">
<stop offset="1.1e-07" stop-color="#B3B3FF"/>
<stop offset="1" stop-color="#C2D5FF"/>
</linearGradient>
<linearGradient id="paint26_linear_7_1600" x1="164.142" y1="84.379" x2="175.728" y2="84.379" gradientUnits="userSpaceOnUse">
<stop offset="1.1e-07" stop-color="#B3B3FF"/>
<stop offset="1" stop-color="#C2D5FF"/>
</linearGradient>
<linearGradient id="paint27_linear_7_1600" x1="180.103" y1="78.3538" x2="191.691" y2="78.3538" gradientUnits="userSpaceOnUse">
<stop offset="2.2e-07" stop-color="#FFBB83"/>
<stop offset="1" stop-color="#FF9D45"/>
</linearGradient>
<linearGradient id="paint28_linear_7_1600" x1="180.104" y1="84.379" x2="191.69" y2="84.379" gradientUnits="userSpaceOnUse">
<stop offset="2.2e-07" stop-color="#FFBB83"/>
<stop offset="1" stop-color="#FF9D45"/>
</linearGradient>
<linearGradient id="paint29_linear_7_1600" x1="153.007" y1="55.9674" x2="176.873" y2="55.9674" gradientUnits="userSpaceOnUse">
<stop offset="2.2e-07" stop-color="#FFBB83"/>
<stop offset="1" stop-color="#FF9D45"/>
</linearGradient>
<linearGradient id="paint30_linear_7_1600" x1="164.946" y1="50.2328" x2="176.885" y2="50.2328" gradientUnits="userSpaceOnUse">
<stop offset="1.1e-07" stop-color="#B3B3FF"/>
<stop offset="1" stop-color="#C2D5FF"/>
</linearGradient>
<linearGradient id="paint31_linear_7_1600" x1="201.557" y1="71.8834" x2="212.27" y2="71.8834" gradientUnits="userSpaceOnUse">
<stop offset="1.1e-07" stop-color="#B3B3FF"/>
<stop offset="1" stop-color="#C2D5FF"/>
</linearGradient>
<linearGradient id="paint32_linear_7_1600" x1="182.639" y1="49.0939" x2="213.88" y2="49.0939" gradientUnits="userSpaceOnUse">
<stop offset="1.1e-07" stop-color="#B3B3FF"/>
<stop offset="1" stop-color="#C2D5FF"/>
</linearGradient>
<linearGradient id="paint33_linear_7_1600" x1="136.305" y1="131.344" x2="140.402" y2="107.109" gradientUnits="userSpaceOnUse">
<stop stop-color="#E7ECFF"/>
<stop offset="1" stop-color="#C2D5FF"/>
</linearGradient>
<linearGradient id="paint34_linear_7_1600" x1="86.785" y1="121.286" x2="119.266" y2="121.286" gradientUnits="userSpaceOnUse">
<stop offset="3.2e-07" stop-color="#78A7FF"/>
<stop offset="1" stop-color="#3D79F3"/>
</linearGradient>
<linearGradient id="paint35_linear_7_1600" x1="58.9276" y1="135.197" x2="46.4786" y2="135.197" gradientUnits="userSpaceOnUse">
<stop offset="3.2e-07" stop-color="#A7C161"/>
<stop offset="1" stop-color="#8BA53A"/>
</linearGradient>
<linearGradient id="paint36_linear_7_1600" x1="68.9303" y1="135.197" x2="56.716" y2="135.197" gradientUnits="userSpaceOnUse">
<stop offset="3.2e-07" stop-color="#A7C161"/>
<stop offset="1" stop-color="#8BA53A"/>
</linearGradient>
<linearGradient id="paint37_linear_7_1600" x1="68.9302" y1="139.62" x2="56.4812" y2="139.62" gradientUnits="userSpaceOnUse">
<stop offset="3.2e-07" stop-color="#FF8888"/>
<stop offset="1" stop-color="#F24E4E"/>
</linearGradient>
<linearGradient id="paint38_linear_7_1600" x1="58.693" y1="139.62" x2="46.4786" y2="139.62" gradientUnits="userSpaceOnUse">
<stop offset="3.2e-07" stop-color="#FF8888"/>
<stop offset="1" stop-color="#F24E4E"/>
</linearGradient>
<linearGradient id="paint39_linear_7_1600" x1="82.5384" y1="56.8384" x2="122.08" y2="56.8384" gradientUnits="userSpaceOnUse">
<stop stop-color="#E7ECFF"/>
<stop offset="1" stop-color="#C2D5FF"/>
</linearGradient>
<linearGradient id="paint40_linear_7_1600" x1="84.9633" y1="44.9454" x2="91.9257" y2="44.9454" gradientUnits="userSpaceOnUse">
<stop stop-color="#E7ECFF"/>
<stop offset="1" stop-color="#C2D5FF"/>
</linearGradient>
<linearGradient id="paint41_linear_7_1600" x1="91.9257" y1="46.1438" x2="98.0299" y2="46.1438" gradientUnits="userSpaceOnUse">
<stop stop-color="#E7ECFF"/>
<stop offset="1" stop-color="#C2D5FF"/>
</linearGradient>
<linearGradient id="paint42_linear_7_1600" x1="98.0299" y1="44.9454" x2="104.992" y2="44.9454" gradientUnits="userSpaceOnUse">
<stop stop-color="#E7ECFF"/>
<stop offset="1" stop-color="#C2D5FF"/>
</linearGradient>
<linearGradient id="paint43_linear_7_1600" x1="110.563" y1="42.9326" x2="117.598" y2="42.9326" gradientUnits="userSpaceOnUse">
<stop stop-color="#E7ECFF"/>
<stop offset="1" stop-color="#C2D5FF"/>
</linearGradient>
<linearGradient id="paint44_linear_7_1600" x1="113.414" y1="41.7302" x2="121.948" y2="41.7302" gradientUnits="userSpaceOnUse">
<stop stop-color="#E7ECFF"/>
<stop offset="1" stop-color="#C2D5FF"/>
</linearGradient>
<linearGradient id="paint45_linear_7_1600" x1="112.085" y1="51.4855" x2="119.222" y2="51.4855" gradientUnits="userSpaceOnUse">
<stop stop-color="#E7ECFF"/>
<stop offset="1" stop-color="#C2D5FF"/>
</linearGradient>
<linearGradient id="paint46_linear_7_1600" x1="19.9161" y1="71.5678" x2="62.9643" y2="71.5678" gradientUnits="userSpaceOnUse">
<stop stop-color="#E7ECFF"/>
<stop offset="1" stop-color="#C2D5FF"/>
</linearGradient>
</defs>
</svg>
